<svg xmlns="http://www.w3.org/2000/svg" width="259" height="212" fill="none">
<path fill="url(#a)" d="M117.283 0c27.219 0 54.108 24.499 74.752 54.764V10.526h66v4h-62v46.01h-.181c20.371 31.753 33.763 68.346 33.763 89.49l-.011 1.43C228.75 211.5 173.723 211.5 117.282 211.5c-56.44 0-116.339 0-117.271-60.044L0 150.026C0 107 60.398 0 117.283 0Zm-.001 4c-12.977 0-26.563 6.125-39.856 16.54C64.172 30.924 51.552 45.31 40.6 61.153c-10.943 15.83-20.13 32.982-26.57 48.789C7.554 125.84 4 140.031 4 150.026c0 14.692 3.597 25.315 9.514 33.123 5.937 7.835 14.501 13.218 25.103 16.886 21.439 7.417 49.998 7.465 78.665 7.465 28.692 0 55.962-.054 76.123-7.44 9.941-3.642 17.888-8.986 23.388-16.797 5.501-7.812 8.824-18.474 8.824-33.237 0-10.054-3.278-24.285-9.294-40.177-5.985-15.814-14.564-32.964-24.891-48.785-10.339-15.837-22.34-30.202-35.119-40.566C143.504 10.11 130.241 4 117.282 4Z"/>
<defs>
    <linearGradient id="a" x1="1.271" x2="259.573" y1="163.613" y2="163.613" gradientUnits="userSpaceOnUse">
    <stop stop-color="#5A92EB"/>
    </linearGradient>
</defs>
</svg>