<svg xmlns="http://www.w3.org/2000/svg" width="141" height="112" fill="none"><path fill="url(#a)" d="M56.662 0c27.483 0 54.272 51.572 54.273 72.31l-.005.689a45.497 45.497 0 0 1-.057 1.682l30.113-.106.007 2h-.005v35h-2V76.582l-28.267.099c-2.566 25.258-28 25.258-54.059 25.258l-5.165-.006C25.647 101.824 0 100.087 0 72.31 0 51.57 29.18 0 56.662 0Zm0 2c-6.25 0-12.8 2.943-19.216 7.958-6.396 5-12.488 11.927-17.777 19.56-5.284 7.625-9.72 15.887-12.83 23.5C3.714 60.679 2 67.508 2 72.31c0 7.067 1.734 12.171 4.581 15.92 2.858 3.761 6.983 6.35 12.097 8.115 10.345 3.57 24.13 3.594 37.984 3.594 13.866 0 27.029-.026 36.756-3.582 4.793-1.752 8.62-4.321 11.267-8.07 2.646-3.75 4.25-8.874 4.25-15.977-.001-4.833-1.581-11.681-4.486-19.337-2.89-7.617-7.032-15.879-12.018-23.5-4.992-7.628-10.786-14.547-16.953-19.536C69.297 4.935 62.903 2 56.662 2Z"/><defs><linearGradient id="a" x1=".694" x2="141.833" y1="86.313" y2="86.313" gradientUnits="userSpaceOnUse"><stop stop-color="#5A92EB"/><stop offset="1" stop-color="#FE37A3"/></linearGradient></defs></svg>