<svg xmlns="http://www.w3.org/2000/svg" width="390" height="774" fill="none"><path fill="url(#a)" d="M195.534 0c27.483 0 54.272 51.572 54.273 72.31l-.005.689a43.406 43.406 0 0 1-.057 1.682l30.113-.106.007 2h-.005v33.356h82.35a4 4 0 0 1 4 4v52.045l7.255-4.362.772 1.284 5.771 12.502a6.998 6.998 0 0 1 7.49 5.285l.077.351a6.997 6.997 0 0 1-4.845 8.023l-.347.094a6.997 6.997 0 0 1-8.374-4.767l-.095-.347a6.995 6.995 0 0 1 4.59-8.316l-5.56-12.046-6.734 4.05v345.122l19.834-5.315-3.501-13.067a6.65 6.65 0 0 1-7.108-4.893l-.081-.332a6.65 6.65 0 0 1 4.782-7.81l.333-.08a6.649 6.649 0 0 1 7.713 4.453l.096.328a6.65 6.65 0 0 1-2.891 7.356l4.332 16.168-2.898.777-.001-.002-20.61 5.522v228.597a4 4 0 0 1-4 4H254.732l-8.24 25.45-19.43-6.291c-1.656 4.03-6.087 6.189-10.209 4.854l-.401-.14c-4.074-1.557-6.235-6.128-4.846-10.42 1.39-4.292 5.821-6.731 10.035-5.604l.407.121c3.91 1.266 6.204 5.243 5.558 9.263l17.599 5.698 7.425-22.931H28.413l-.206-.005a4 4 0 0 1-3.794-3.995V532.135l-14.805-4.833a5.156 5.156 0 0 1-3.175 1.326 5.178 5.178 0 0 1-.581-10.339l.266-.008a5.18 5.18 0 0 1 5.194 4.888l.007.266c.006.95-.249 1.847-.698 2.62l13.792 4.502V186.15l-8.73-3.821a8.942 8.942 0 0 1-1.737 1.493l-.392.244a8.996 8.996 0 0 1-12.313-3.197l-.224-.404a8.995 8.995 0 0 1 3.422-11.907l.405-.225a8.994 8.994 0 0 1 11.906 3.422l.225.404a8.998 8.998 0 0 1-.364 8.94l7.802 3.414v-70.582a4 4 0 0 1 4-4H277.86V76.582l-28.267.099c-2.566 25.258-28 25.258-54.059 25.258l-5.165-.006c-25.851-.109-51.497-1.846-51.497-29.623 0-20.739 29.18-72.31 56.662-72.31Zm25.898 758.423c-3.241-1.049-6.816.777-7.923 4.197-1.107 3.42.719 6.993 3.96 8.042 3.241 1.049 6.815-.775 7.923-4.195 1.107-3.42-.72-6.995-3.96-8.044ZM28.413 112.931a1 1 0 0 0-1 1v630.62a1 1 0 0 0 1 1h225.189l.079-.245.757.245H362.21a1 1 0 0 0 1-1v-630.62a1 1 0 0 0-1-1H28.413ZM5.936 519.787a3.678 3.678 0 1 0 .415 7.345 3.678 3.678 0 0 0-.415-7.345Zm379.445-32.878a3.65 3.65 0 0 0-4.469-2.58 3.65 3.65 0 1 0 4.469 2.58Zm.661-305.864a5.496 5.496 0 1 0-10.67 2.633 5.496 5.496 0 0 0 10.67-2.633Zm-370.585-8.53a7.495 7.495 0 1 0-12.922 7.595 7.495 7.495 0 0 0 12.922-7.595ZM195.534 2c-6.25 0-12.8 2.943-19.216 7.958-6.396 5-12.488 11.927-17.777 19.56-5.284 7.625-9.72 15.887-12.829 23.5-3.127 7.66-4.84 14.489-4.84 19.292 0 7.067 1.734 12.171 4.581 15.92 2.858 3.761 6.983 6.35 12.097 8.115 10.345 3.57 24.131 3.594 37.984 3.594 13.866 0 27.029-.026 36.756-3.582 4.794-1.752 8.62-4.321 11.267-8.07 2.646-3.75 4.25-8.874 4.25-15.977 0-4.833-1.581-11.681-4.486-19.337-2.89-7.617-7.032-15.879-12.018-23.5-4.992-7.628-10.786-14.547-16.952-19.536C208.169 4.935 201.775 2 195.534 2Z"/><defs><linearGradient id="a" x1="1.92" x2="392.041" y1="598.756" y2="598.756" gradientUnits="userSpaceOnUse"><stop stop-color="#5A92EB"/><stop offset="1" stop-color="#FE37A3"/></linearGradient></defs></svg>