<svg xmlns="http://www.w3.org/2000/svg" width="1920" height="1705" fill="none"><path stroke="#BD4597" d="m74.894 48.555 668.334 342"/><path stroke="#BD4597" d="M0-.5h1599.03" transform="matrix(-.7838 .621 -.8154 -.5789 1253.33 39)"/><path stroke="#BD4597" d="M0-.5h821.327" transform="matrix(.55358 .8328 -.93667 .35022 1465.33 39)"/><path stroke="#BD4597" d="m1733.51 1678.88 186-776.996"/><path stroke="#BD4597" d="M0-.5h836.657" transform="matrix(.84304 .53785 -.7501 .66133 1214.67 706)"/><path stroke="#BD4597" d="m1415.69 592.611 504-406M465.686 1704.61 1911.3 539.986M427.544 1685.21l-428-951.005"/><path stroke="#BD4597" d="M0-.5h828.998" transform="matrix(-.46482 .8854 -.95906 -.28321 385.333 0)"/><path stroke="#BD4597" d="m929.674 1330.38-930-798"/><path stroke="#BD4597" d="M0-.5h1021.05" transform="matrix(-.85533 .5181 -.73277 -.68048 873.333 706)"/></svg>