<svg xmlns="http://www.w3.org/2000/svg" width="390" height="665" fill="none"><path fill="url(#a)" d="M362.209 0a4 4 0 0 1 4 4v52.045l7.254-4.361.774 1.284 5.77 12.502a6.998 6.998 0 0 1 7.49 5.284l.078.352a6.998 6.998 0 0 1-4.846 8.022l-.348.095a6.996 6.996 0 0 1-8.373-4.768l-.094-.347a6.994 6.994 0 0 1 4.589-8.316l-5.559-12.046-6.735 4.049v345.123l19.834-5.314-3.501-13.068a6.651 6.651 0 0 1-7.109-4.892l-.079-.332a6.65 6.65 0 0 1 4.78-7.811l.334-.08a6.65 6.65 0 0 1 7.712 4.453l.098.328a6.653 6.653 0 0 1-2.893 7.357l4.332 16.168-2.897.776v-.002l-20.611 5.522V634.62a4 4 0 0 1-4 4H254.731l-8.24 25.45-19.431-6.291c-1.655 4.031-6.086 6.19-10.209 4.855l-.399-.141c-4.075-1.557-6.235-6.128-4.846-10.42 1.39-4.292 5.82-6.73 10.034-5.603l.406.12c3.911 1.266 6.205 5.243 5.56 9.264l17.599 5.698 7.424-22.932H28.413l-.207-.005a4 4 0 0 1-3.793-3.995V422.203l-14.804-4.832a5.178 5.178 0 1 1-3.757-9.013l.267-.007a5.178 5.178 0 0 1 5.193 4.887l.008.266c.005.95-.25 1.847-.698 2.62l13.79 4.502V76.22l-8.73-3.822a8.96 8.96 0 0 1-1.736 1.494l-.393.244a8.996 8.996 0 0 1-12.312-3.197l-.224-.405A8.995 8.995 0 0 1 4.44 58.627l.404-.225a8.996 8.996 0 0 1 11.907 3.422l.224.404a8.997 8.997 0 0 1-.362 8.94l7.8 3.414V4a4 4 0 0 1 4-4H362.21ZM221.43 648.492c-3.241-1.049-6.814.778-7.922 4.197-1.106 3.42.719 6.993 3.959 8.042 3.241 1.05 6.816-.775 7.923-4.195 1.107-3.42-.719-6.994-3.96-8.044ZM28.413 3a1 1 0 0 0-1 1v630.62a1 1 0 0 0 1 1H253.6l.079-.245.757.245h107.772a1 1 0 0 0 1-1V4a1 1 0 0 0-1-1H28.413ZM5.936 409.856a3.677 3.677 0 1 0 .413 7.343 3.677 3.677 0 0 0-.413-7.343Zm379.443-32.877a3.649 3.649 0 1 0-7.049 1.888 3.649 3.649 0 0 0 7.049-1.888Zm.662-305.865a5.495 5.495 0 1 0-10.671 2.634 5.495 5.495 0 1 0 10.671-2.634Zm-370.584-8.53a7.495 7.495 0 1 0-12.923 7.595 7.495 7.495 0 0 0 12.922-7.595Z"/><defs><linearGradient id="a" x1="1.919" x2="392.04" y1="513.715" y2="513.715" gradientUnits="userSpaceOnUse"><stop stop-color="#5A92EB"/><stop offset="1" stop-color="#FE37A3"/></linearGradient></defs></svg>