<svg xmlns="http://www.w3.org/2000/svg" width="892" height="683" fill="none"><path fill="url(#a)" d="M286.124 0c7.456 0 13.5 6.044 13.5 13.5S293.58 27 286.124 27c-2.884 0-5.558-.905-7.752-2.446L261.587 64h568.037a6 6 0 0 1 6 6v59.856l33.161-8.186.48 1.941-33.641 8.306-.001 471.687 24.192-6.482 1.035 3.864-25.227 6.758.001 34.256a6 6 0 0 1-6 6H483.163l-10.711 33.082h.001l-.616 1.902-25.892-8.382c-1.992 5.776-8.145 8.95-13.855 7.102-5.599-1.813-8.715-7.79-7.164-13.536l.164-.555c1.854-5.725 7.765-8.978 13.387-7.474l.544.16c5.216 1.689 8.275 6.995 7.414 12.359l24.114 7.808L481.062 648H39.624l-.308-.008A6 6 0 0 1 33.624 642v-11.921l-21.86-7.886a6.872 6.872 0 0 1-4.114 1.958l-.355.029a6.908 6.908 0 0 1-7.283-6.509L0 617.315a6.908 6.908 0 0 1 6.52-6.927l.356-.011a6.906 6.906 0 0 1 6.927 6.519l.012.356a6.87 6.87 0 0 1-.805 3.265l20.614 7.436V70a6 6 0 0 1 6-6h218.702l17.684-41.559a13.448 13.448 0 0 1-3.386-8.941c0-7.456 6.045-13.5 13.5-13.5Zm152.28 662.202c-4.688-1.518-9.825 1.127-11.412 6.027-1.586 4.901 1.025 10.055 5.713 11.573 4.688 1.517 9.824-1.128 11.411-6.028 1.587-4.9-1.024-10.053-5.712-11.572ZM39.624 642h790V70h-790v572ZM6.633 612.385a4.907 4.907 0 1 0 .55 9.8 4.907 4.907 0 0 0-.55-9.8Zm845.744-50.197a8.873 8.873 0 0 1 6.559 16.196l5.779 21.566-3.864 1.035-5.707-21.299c-4.263.446-8.337-2.256-9.482-6.527l-.107-.444a8.87 8.87 0 0 1 6.379-10.419l.443-.108Zm6.556 7.416a4.87 4.87 0 1 0-9.408 2.517 4.87 4.87 0 0 0 9.408-2.517Zm18.318-421.997c6.448-1.545 12.828 1.932 14.277 7.802 1.411 5.714-2.366 11.597-8.494 13.413l-.599.163c-6.378 1.575-12.712-1.777-14.297-7.507l-.072-.276c-1.314-5.323 1.877-10.792 7.276-12.983l-6.556-26.551 1.942-.48 6.523 26.419Zm12.336 8.282c-1.15-4.658-6.364-7.698-11.946-6.32-5.582 1.379-8.783 6.496-7.633 11.154 1.15 4.657 6.365 7.698 11.947 6.32 5.582-1.379 8.782-6.497 7.632-11.154ZM286.124 3c-5.799 0-10.5 4.701-10.5 10.5s4.701 10.5 10.5 10.5 10.5-4.701 10.5-10.5S291.923 3 286.124 3Z"/><defs><linearGradient id="a" x1="4.393" x2="897.138" y1="528.347" y2="528.347" gradientUnits="userSpaceOnUse"><stop stop-color="#5A92EB"/><stop offset="1" stop-color="#FE37A3"/></linearGradient></defs></svg>