<svg xmlns="http://www.w3.org/2000/svg" width="56" height="56" fill="none"><path stroke="url(#a)" stroke-width="2" d="M28 1c14.912 0 27 12.088 27 26.998 0 14.91-12.088 27-27 27s-27-12.09-27-27S13.088 1 28 1Z"/><path fill="url(#b)" d="m27.128 7 4.012 10.017h-7.088L27.128 7Z"/><path fill="url(#c)" d="m34.617 23.294-10.564-6.277h7.087l3.477 6.277Z"/><path fill="url(#d)" d="m14.09 11.073 14.308 10.551-10.363 3.473-3.945-14.024Z"/><path fill="url(#e)" d="M28.398 21.624 25.256 33.11l-7.221-8.013 10.363-3.473Z"/><path fill="url(#f)" d="m28.398 21.624 6.553 4.875-9.695 6.611 3.142-11.486Z"/><path fill="url(#g)" d="m34.95 26.5 4.213 13.488-13.907-6.878 9.695-6.61Z"/><path fill="url(#h)" d="m34.95 26.5 9.495 5.542-5.282 7.946L34.95 26.5Z"/><path fill="url(#i)" d="m34.95 26.5 9.762-1.47-.267 7.012-9.494-5.543Z"/><path fill="url(#j)" d="m42.506 17.017 2.206 8.013-9.761 1.47 7.555-9.483Z"/><path fill="url(#k)" d="M42.506 17.017 52 21.557l-7.288 3.473-2.206-8.013Z"/><path fill="url(#l)" d="m25.256 33.11 13.907 6.878-16.047.735 2.14-7.613Z"/><path fill="url(#m)" d="m25.256 33.11-2.14 7.613-4.613-3.206 6.753-4.407Z"/><path fill="url(#n)" d="m18.503 37.517 4.613 3.206L15.428 47l3.075-9.483Z"/><path fill="url(#o)" d="M18.503 37.517 15.427 47 6 36.65l12.503.867Z"/><defs><linearGradient id="a" x1="28" x2="28" y1="0" y2="55.997" gradientUnits="userSpaceOnUse"><stop stop-color="#0287DF"/><stop offset="1" stop-color="#FFD800"/></linearGradient><linearGradient id="b" x1="27.596" x2="27.596" y1="17.017" y2="7.033" gradientUnits="userSpaceOnUse"><stop stop-color="#0287DF"/><stop offset="1" stop-color="#014979"/></linearGradient><linearGradient id="c" x1="29.351" x2="29.351" y1="17.017" y2="23.294" gradientUnits="userSpaceOnUse"><stop stop-color="#014979"/><stop offset="1" stop-color="#0287DF"/></linearGradient><linearGradient id="d" x1="21.244" x2="21.244" y1="25.097" y2="11.073" gradientUnits="userSpaceOnUse"><stop stop-color="#0287DF"/><stop offset="1" stop-color="#014979"/></linearGradient><linearGradient id="e" x1="23.217" x2="23.217" y1="33.11" y2="21.624" gradientUnits="userSpaceOnUse"><stop stop-color="#0287DF"/><stop offset="1" stop-color="#014979"/></linearGradient><linearGradient id="f" x1="30.103" x2="30.103" y1="33.11" y2="21.624" gradientUnits="userSpaceOnUse"><stop stop-color="#014979"/><stop offset="1" stop-color="#0287DF"/></linearGradient><linearGradient id="g" x1="32.209" x2="32.209" y1="39.988" y2="26.499" gradientUnits="userSpaceOnUse"><stop stop-color="#0287DF"/><stop offset="1" stop-color="#014979"/></linearGradient><linearGradient id="h" x1="39.698" x2="39.698" y1="39.988" y2="26.499" gradientUnits="userSpaceOnUse"><stop stop-color="#014979"/><stop offset="1" stop-color="#0287DF"/></linearGradient><linearGradient id="i" x1="39.831" x2="39.831" y1="32.042" y2="25.03" gradientUnits="userSpaceOnUse"><stop stop-color="#0287DF"/><stop offset="1" stop-color="#014979"/></linearGradient><linearGradient id="j" x1="39.831" x2="39.831" y1="26.499" y2="17.017" gradientUnits="userSpaceOnUse"><stop stop-color="#0287DF"/><stop offset="1" stop-color="#014979"/></linearGradient><linearGradient id="k" x1="52" x2="43.776" y1="21.558" y2="20.855" gradientUnits="userSpaceOnUse"><stop offset=".505" stop-color="#0287DF"/><stop offset="1" stop-color="#014979"/></linearGradient><linearGradient id="l" x1="31.14" x2="31.14" y1="40.723" y2="33.11" gradientUnits="userSpaceOnUse"><stop stop-color="#0287DF"/><stop offset="1" stop-color="#014979"/></linearGradient><linearGradient id="m" x1="21.879" x2="21.879" y1="40.723" y2="33.11" gradientUnits="userSpaceOnUse"><stop stop-color="#014979"/><stop offset="1" stop-color="#0287DF"/></linearGradient><linearGradient id="n" x1="19.272" x2="19.272" y1="47" y2="37.517" gradientUnits="userSpaceOnUse"><stop stop-color="#0287DF"/><stop offset="1" stop-color="#014979"/></linearGradient><linearGradient id="o" x1="6.234" x2="17.061" y1="36.95" y2="41.801" gradientUnits="userSpaceOnUse"><stop stop-color="#0287DF"/><stop offset="1" stop-color="#014979"/></linearGradient></defs></svg>