<svg xmlns="http://www.w3.org/2000/svg" width="120" height="16" fill="none"><path fill="url(#a)" d="M.7 9.64h2.14v.4c0 .56.207 1.087.62 1.58.427.493 1 .893 1.72 1.2.72.307 1.493.46 2.32.46.573 0 1.073-.073 1.5-.22.44-.147.78-.353 1.02-.62.253-.28.38-.607.38-.98 0-.427-.167-.78-.5-1.06-.32-.28-.74-.513-1.26-.7-.52-.187-1.28-.413-2.28-.68a3.906 3.906 0 0 0-.18-.04A1.418 1.418 0 0 0 6 8.92h-.04c0-.013-.007-.02-.02-.02a18.87 18.87 0 0 1-2.38-.82 4.993 4.993 0 0 1-1.78-1.3c-.493-.587-.74-1.333-.74-2.24 0-.813.207-1.507.62-2.08.427-.587 1-1.027 1.72-1.32C4.113.847 4.927.7 5.82.7c.573 0 1.113.06 1.62.18.52.12 1 .293 1.44.52.253.133.487.287.7.46.227.16.44.34.64.54V.56h2.1V6h-2.08v-.32c0-.453-.2-.913-.6-1.38-.4-.48-.94-.873-1.62-1.18a5.056 5.056 0 0 0-2.18-.48c-.787 0-1.42.167-1.9.5-.467.32-.7.773-.7 1.36 0 .467.167.853.5 1.16.333.307.753.553 1.26.74.52.187 1.273.413 2.26.68l.12.04c.04 0 .08.007.12.02l.16.04c1.067.293 1.933.58 2.6.86a4.306 4.306 0 0 1 1.7 1.22c.48.533.72 1.233.72 2.1 0 .827-.227 1.54-.68 2.14-.44.587-1.04 1.033-1.8 1.34-.76.307-1.613.46-2.56.46a8.375 8.375 0 0 1-1.86-.2 6.73 6.73 0 0 1-1.56-.56 6.417 6.417 0 0 1-.78-.48 4.6 4.6 0 0 1-.64-.6v1.74H.7V9.64Zm11.62 3.26h1.78l4.08-9.76-.02-.04h-2.18V1h5.74l4.72 11.9h1.84V15h-6.5v-2.1h2.28l-.94-2.4h-5.88l-.98 2.4h2.42V15h-6.36v-2.1Zm10.02-4.4-2-5.12h-.18l-2.1 5.12h4.28Zm7.985 4.4h2.72V9.78l-4.98-6.68h-1.74V1h6.64v2.1h-2.34l3.6 4.96 3.58-4.96h-2.34V1h6.58v2.1h-1.74l-4.96 6.66v3.14h2.72V15h-7.74v-2.1Zm18.669 2.4c-1.387 0-2.64-.313-3.76-.94a6.766 6.766 0 0 1-2.6-2.6c-.627-1.12-.94-2.373-.94-3.76 0-1.387.313-2.633.94-3.74a6.727 6.727 0 0 1 2.6-2.62c1.12-.627 2.373-.94 3.76-.94 1.386 0 2.633.313 3.74.94a6.69 6.69 0 0 1 2.62 2.62c.626 1.107.94 2.353.94 3.74s-.314 2.64-.94 3.76a6.728 6.728 0 0 1-2.62 2.6c-1.107.627-2.354.94-3.74.94Zm0-2.1c.986 0 1.86-.22 2.62-.66a4.597 4.597 0 0 0 1.8-1.84c.426-.787.64-1.687.64-2.7 0-1.013-.214-1.913-.64-2.7a4.597 4.597 0 0 0-1.8-1.84c-.76-.44-1.634-.66-2.62-.66-.987 0-1.867.22-2.64.66a4.635 4.635 0 0 0-1.78 1.84c-.427.787-.64 1.687-.64 2.7 0 1.013.213 1.913.64 2.7.426.787 1.02 1.4 1.78 1.84.773.44 1.653.66 2.64.66Zm8.46-.3h2V3.1h-2V1h6.92c1.614 0 2.887.36 3.82 1.08.934.72 1.4 1.707 1.4 2.96 0 .96-.273 1.773-.82 2.44-.546.653-1.313 1.107-2.3 1.36l3.46 4.06h1.62V15h-6.8v-2.1h2.3l-2.86-3.4h-2.54v3.4h1.46V15h-5.66v-2.1Zm6.94-5.34c.907 0 1.62-.2 2.14-.6.534-.413.8-.967.8-1.66 0-.707-.266-1.267-.8-1.68-.52-.413-1.233-.62-2.14-.62h-2.74v4.56h2.74Zm5.231 5.34h1.78l4.08-9.76-.02-.04h-2.18V1h5.74l4.72 11.9h1.84V15h-6.5v-2.1h2.28l-.94-2.4h-5.88l-.98 2.4h2.42V15h-6.36v-2.1Zm10.02-4.4-2-5.12h-.18l-2.1 5.12h4.28Zm5.505 4.4h1.96V3.1h-1.96V1h5.48l3.96 11.1L98.53 1h5.42v2.1h-1.94v9.8h1.94V15h-6.02v-2.1h1.92V3.52h-.08L95.61 15h-2.14L89.31 3.52h-.06v9.38h1.92V15h-6.02v-2.1Zm18.362 0h1.78l4.08-9.76-.02-.04h-2.18V1h5.74l4.72 11.9h1.84V15h-6.5v-2.1h2.28l-.94-2.4h-5.88l-.98 2.4h2.42V15h-6.36v-2.1Zm10.02-4.4-2-5.12h-.18l-2.1 5.12h4.28Z"/><defs><linearGradient id="a" x1="59.5" x2="59.5" y1="15" y2="1" gradientUnits="userSpaceOnUse"><stop stop-color="#0287DF"/><stop offset="1" stop-color="#014979"/></linearGradient></defs></svg>