<svg xmlns="http://www.w3.org/2000/svg" width="371" height="423" fill="none"><path fill="url(#a)" d="M163.339 36.48a2.667 2.667 0 1 0-4.063 3.454 2.667 2.667 0 0 0 4.063-3.455ZM20.914 103.961l-.489-.107.489.107Zm138.618 125.237a2.667 2.667 0 1 0-4.064 3.454 2.667 2.667 0 0 0 4.064-3.454Zm1.776-190.993-.037-.498h-.005c-.004 0-.01 0-.018.002a61.956 61.956 0 0 0-.347.026c-.244.019-.605.048-1.077.088-.943.08-2.327.206-4.093.386-3.531.36-8.587.937-14.693 1.807-12.21 1.74-28.623 4.65-45.428 9.335C78.81 54.036 61.594 60.5 47.793 69.36c-13.797 8.857-24.239 20.146-27.368 34.495l.489.107.488.106c3.05-13.985 13.246-25.082 26.931-33.867C62.015 61.42 79.125 54.986 95.88 50.315c16.749-4.67 33.117-7.573 45.3-9.308a372.87 372.87 0 0 1 14.654-1.802 252.077 252.077 0 0 1 5.146-.472l.273-.021.069-.005.017-.001h.004l-.034-.5ZM20.914 103.963l-.489-.107c-3.67 16.836 3.153 33.237 15.324 48.314 12.173 15.079 29.75 28.905 47.747 40.631 18.004 11.73 36.457 21.377 50.407 28.09a489.53 489.53 0 0 0 16.934 7.767c2.055.892 3.673 1.575 4.778 2.035a150.698 150.698 0 0 0 1.589.653l.082.034.021.008.006.002c.001.001.002.001.187-.463.186-.464.186-.464.185-.465a.017.017 0 0 1-.005-.002l-.021-.008a4.013 4.013 0 0 1-.081-.033l-.322-.13a332.65 332.65 0 0 1-6.02-2.549 487.474 487.474 0 0 1-16.899-7.75c-13.927-6.702-32.339-16.328-50.295-28.026-17.96-11.702-35.437-25.461-47.515-40.422-12.08-14.964-18.704-31.059-15.125-47.473l-.488-.106Z"/><path fill="url(#b)" d="M214.469 403.654a2.667 2.667 0 1 0 4.063-3.455 2.667 2.667 0 0 0-4.063 3.455Zm136.595-110.163h.5-.5Zm-136.595-54.838a2.667 2.667 0 1 0 4.064-3.454 2.667 2.667 0 0 0-4.064 3.454Zm2.031 163.273c.14.481.14.48.141.48l.005-.001.019-.006.074-.022.29-.086a247.59 247.59 0 0 0 5.409-1.701 374.057 374.057 0 0 0 15.264-5.374c12.629-4.747 29.473-11.801 46.32-21.031 16.844-9.227 33.715-20.642 46.381-34.116 12.666-13.475 21.161-29.048 21.161-46.578h-1c0 17.187-8.326 32.527-20.89 45.893-12.565 13.367-29.335 24.722-46.132 33.924-16.793 9.2-33.591 16.236-46.192 20.971a373.357 373.357 0 0 1-15.223 5.361 242.203 242.203 0 0 1-5.383 1.693l-.287.085a2.85 2.85 0 0 0-.072.021l-.018.005-.004.002c-.001 0-.002 0 .137.48Zm134.564-108.435h.5c0-12.971-8.588-22.996-21.265-30.72-12.683-7.728-29.565-13.224-46.404-17.121-16.847-3.898-33.69-6.204-46.317-7.535a434.88 434.88 0 0 0-15.261-1.343c-1.842-.128-3.29-.214-4.278-.269-.494-.027-.873-.046-1.128-.058l-.29-.014a1.355 1.355 0 0 0-.074-.003l-.019-.001h-.005c-.001 0-.002 0-.023.499l-.02.5h.005l.018.001.072.003.287.013c.254.013.63.032 1.122.059.983.054 2.427.14 4.264.267 3.674.256 8.925.677 15.225 1.341 12.604 1.328 29.403 3.629 46.196 7.515 16.802 3.887 33.561 9.354 46.109 17 12.553 7.649 20.786 17.408 20.786 29.866h.5Z"/><defs><linearGradient id="a" x1="156.724" x2="27.826" y1="34.101" y2="143.69" gradientUnits="userSpaceOnUse"><stop stop-color="#5A92EB"/><stop offset="1" stop-color="#FE37A3"/></linearGradient><linearGradient id="b" x1="212.235" x2="349.115" y1="395.545" y2="279.169" gradientUnits="userSpaceOnUse"><stop stop-color="#5A92EB"/><stop offset="1" stop-color="#FE37A3"/></linearGradient></defs></svg>