<svg xmlns="http://www.w3.org/2000/svg" width="48" height="45" fill="none"><path stroke="url(#a)" stroke-width="2" d="M24.507 1.984c2.59 0 5.263 1.243 7.868 3.39 2.597 2.14 5.043 5.114 7.153 8.4 2.108 3.28 3.858 6.838 5.08 10.118 1.228 3.298 1.892 6.238 1.892 8.303 0 3.05-.675 5.234-1.777 6.825-1.102 1.589-2.695 2.68-4.703 3.428-4.087 1.522-9.628 1.536-15.513 1.536-5.879 0-11.688-.012-16.038-1.542-2.145-.754-3.865-1.856-5.054-3.45C2.23 37.401 1.5 35.226 1.5 32.194c0-2.05.72-4.981 2.042-8.28 1.314-3.278 3.189-6.836 5.422-10.12 2.236-3.286 4.807-6.264 7.502-8.41 2.705-2.155 5.446-3.4 8.04-3.4Z"/><path fill="#000B1C" d="M23.192 33.984V19.068l-3.252 1.968v-2.388l3.252-1.944h2.172v17.28h-2.172Z"/><defs><linearGradient id="a" x1=".732" x2="47.78" y1="35.022" y2="35.022" gradientUnits="userSpaceOnUse"><stop stop-color="#5A92EB"/><stop offset="1" stop-color="#FE37A3"/></linearGradient></defs></svg>