<svg xmlns="http://www.w3.org/2000/svg" width="48" height="45" fill="none"><path stroke="url(#a)" stroke-width="2" d="M24.507 1.984c2.59 0 5.263 1.243 7.868 3.39 2.597 2.14 5.043 5.114 7.153 8.4 2.108 3.28 3.858 6.838 5.08 10.118 1.228 3.298 1.892 6.238 1.892 8.303 0 3.05-.675 5.234-1.777 6.825-1.102 1.589-2.695 2.68-4.703 3.428-4.087 1.522-9.628 1.536-15.513 1.536-5.879 0-11.688-.012-16.038-1.542-2.145-.754-3.865-1.856-5.054-3.45C2.23 37.401 1.5 35.226 1.5 32.194c0-2.05.72-4.981 2.042-8.28 1.314-3.278 3.189-6.836 5.422-10.12 2.236-3.286 4.807-6.264 7.502-8.41 2.705-2.155 5.446-3.4 8.04-3.4Z"/><path fill="#000B1C" d="M23.92 34.32a6.055 6.055 0 0 1-2.388-.468 5.656 5.656 0 0 1-1.908-1.344 5.461 5.461 0 0 1-1.164-2.076l2.052-.588c.264.8.704 1.408 1.32 1.824.616.416 1.308.62 2.076.612.704-.016 1.312-.176 1.824-.48.52-.312.92-.736 1.2-1.272.288-.536.432-1.156.432-1.86 0-1.072-.32-1.94-.96-2.604-.64-.672-1.48-1.008-2.52-1.008a3.974 3.974 0 0 0-1.788.456l-1.032-1.692 6.408-5.796.276.72h-8.604v-2.04h10.188v2.052l-5.46 5.232-.024-.756c1.144-.08 2.144.108 3 .564a4.837 4.837 0 0 1 1.992 1.956c.48.848.72 1.82.72 2.916 0 1.104-.248 2.08-.744 2.928A5.444 5.444 0 0 1 26.8 33.6c-.848.48-1.808.72-2.88.72Z"/><defs><linearGradient id="a" x1=".732" x2="47.78" y1="35.022" y2="35.022" gradientUnits="userSpaceOnUse"><stop stop-color="#5A92EB"/><stop offset="1" stop-color="#FE37A3"/></linearGradient></defs></svg>