<svg xmlns="http://www.w3.org/2000/svg" width="48" height="45" fill="none"><path stroke="url(#a)" stroke-width="2" d="M24.507 1.984c2.59 0 5.263 1.243 7.868 3.39 2.597 2.14 5.043 5.114 7.153 8.4 2.108 3.28 3.858 6.838 5.08 10.118 1.228 3.298 1.892 6.238 1.892 8.303 0 3.05-.675 5.234-1.777 6.825-1.102 1.589-2.695 2.68-4.703 3.428-4.087 1.522-9.628 1.536-15.513 1.536-5.879 0-11.688-.012-16.038-1.542-2.145-.754-3.865-1.856-5.054-3.45C2.23 37.401 1.5 35.226 1.5 32.194c0-2.05.72-4.981 2.042-8.28 1.314-3.278 3.189-6.836 5.422-10.12 2.236-3.286 4.807-6.264 7.502-8.41 2.705-2.155 5.446-3.4 8.04-3.4Z"/><path fill="#000B1C" d="m18.7 33.972.012-1.92 7.668-6.9c.64-.576 1.068-1.12 1.284-1.632.224-.52.336-1.052.336-1.596 0-.664-.152-1.264-.456-1.8a3.4 3.4 0 0 0-1.248-1.272c-.52-.312-1.112-.468-1.776-.468-.688 0-1.3.164-1.836.492-.536.32-.96.748-1.272 1.284a3.4 3.4 0 0 0-.444 1.752h-2.184c0-1.088.252-2.048.756-2.88a5.33 5.33 0 0 1 2.052-1.968c.872-.48 1.86-.72 2.964-.72 1.072 0 2.032.248 2.88.744a5.354 5.354 0 0 1 2.004 2.004c.496.84.744 1.792.744 2.856 0 .752-.096 1.404-.288 1.956a4.735 4.735 0 0 1-.864 1.536c-.392.464-.884.96-1.476 1.488l-6.372 5.724-.276-.72h9.276v2.04H18.7Z"/><defs><linearGradient id="a" x1=".732" x2="47.78" y1="35.022" y2="35.022" gradientUnits="userSpaceOnUse"><stop stop-color="#5A92EB"/><stop offset="1" stop-color="#FE37A3"/></linearGradient></defs></svg>