<svg xmlns="http://www.w3.org/2000/svg" width="40" height="38" fill="none"><path fill="url(#a)" d="M18.689 10.565 0 15.52V.984l18.689 9.58Z"/><path stroke="#A4DAFF" stroke-opacity=".4" stroke-width=".2" d="M.1 15.39V1.148l18.311 9.387L.1 15.391Z"/><path fill="url(#b)" d="M19.672 10.895 40 19.485l-40-.688v-1.625l19.672-6.277Z"/><path stroke="#A4DAFF" stroke-opacity=".4" stroke-width=".2" d="M39.484 19.375.1 18.698v-1.453L19.667 11l19.817 8.374Z"/><path fill="url(#c)" d="M18.689 28.404 0 23.449v14.535l18.689-9.58Z"/><path stroke="#A4DAFF" stroke-opacity=".4" stroke-width=".2" d="M.1 23.578v14.243l18.311-9.386L.1 23.578Z"/><path fill="url(#d)" d="M19.672 28.074 40 19.484l-40 .688v1.625l19.672 6.277Z"/><path stroke="#A4DAFF" stroke-opacity=".4" stroke-width=".2" d="M39.484 19.594.1 20.271v1.453l19.567 6.243 19.817-8.373Z"/><defs><linearGradient id="a" x1="0" x2="18.5" y1="7.984" y2="10.484" gradientUnits="userSpaceOnUse"><stop stop-color="#5A92EB"/><stop offset="1" stop-color="#FE37A3"/></linearGradient><linearGradient id="b" x1=".197" x2="40.238" y1="17.54" y2="17.54" gradientUnits="userSpaceOnUse"><stop stop-color="#5A92EB"/><stop offset="1" stop-color="#FE37A3"/></linearGradient><linearGradient id="c" x1="0" x2="19" y1="29.984" y2="28.484" gradientUnits="userSpaceOnUse"><stop stop-color="#0287DF"/><stop offset="1" stop-color="#FE37A3"/></linearGradient><linearGradient id="d" x1=".197" x2="40.238" y1="21.429" y2="21.429" gradientUnits="userSpaceOnUse"><stop stop-color="#5A92EB"/><stop offset="1" stop-color="#FE37A3"/></linearGradient></defs></svg>