<svg xmlns="http://www.w3.org/2000/svg" width="606" height="320" fill="none"><path fill="url(#a)" d="M272.296 55.536a5.333 5.333 0 1 0-8.127 6.909 5.333 5.333 0 0 0 8.127-6.91ZM102.733 101.49l.64.768-.64-.768ZM69.296 261.536a5.334 5.334 0 1 0-8.127 6.911 5.334 5.334 0 0 0 8.127-6.911ZM268.233 58.99l-.003-1h-.085a131.398 131.398 0 0 0-1.227.013c-.857.012-2.119.035-3.742.079-3.246.088-7.937.261-13.724.601-11.573.68-27.534 2.03-45.088 4.704-35.048 5.34-76.668 15.992-102.271 37.336l.64.768.64.768c25.148-20.963 66.278-31.56 101.292-36.895 17.478-2.662 33.376-4.006 44.904-4.684a437.09 437.09 0 0 1 13.661-.6 280.984 280.984 0 0 1 4.68-.088l.244-.001h.08l-.001-1Zm-165.5 42.501-.64-.768c-13.237 11.034-22.186 26.876-28.183 44.344-5.998 17.474-9.065 36.641-10.495 54.408-1.43 17.773-1.224 34.176-.66 46.134.281 5.98.652 10.851.953 14.23a226.05 226.05 0 0 0 .491 4.92l.03.262.009.068.002.017v.004c0 .002 0 .002.993-.119l.993-.123v-.003a.594.594 0 0 0-.003-.016l-.007-.063a107.365 107.365 0 0 1-.14-1.259c-.095-.885-.227-2.189-.376-3.866a342.433 342.433 0 0 1-.948-14.146c-.56-11.9-.765-28.215.657-45.879 1.421-17.669 4.467-36.658 10.393-53.919 5.927-17.267 14.713-32.739 27.571-43.458l-.64-.768Z"/><path fill="url(#b)" d="M333.703 54.536a5.334 5.334 0 1 1 8.127 6.91 5.334 5.334 0 0 1-8.127-6.91Zm169.564 45.955-.641.768.641-.768Zm33.436 160.045a5.334 5.334 0 1 1 8.127 6.912 5.334 5.334 0 0 1-8.127-6.912ZM337.767 57.99c.001-1 .002-1 .003-1h.085a131.398 131.398 0 0 1 1.227.013c.857.012 2.118.035 3.742.079 3.246.088 7.937.261 13.724.601 11.573.68 27.534 2.03 45.088 4.704 35.048 5.34 76.668 15.992 102.271 37.336l-.64.768-.641.768c-25.147-20.963-66.277-31.56-101.291-36.895-17.478-2.662-33.376-4.006-44.904-4.684a437 437 0 0 0-13.662-.6 280.554 280.554 0 0 0-4.679-.088l-.245-.001h-.079l.001-1Zm165.5 42.501.64-.768c13.237 11.034 22.186 26.876 28.183 44.344 5.998 17.474 9.065 36.641 10.495 54.408 1.43 17.773 1.223 34.176.66 46.134a343.45 343.45 0 0 1-.953 14.23 216.873 216.873 0 0 1-.491 4.92l-.031.262-.008.068-.002.017-.001.004c0 .002 0 .002-.992-.119l-.993-.123.001-.003.001-.016.008-.063.03-.255a214.27 214.27 0 0 0 .486-4.87c.299-3.354.667-8.197.948-14.146.56-11.9.764-28.215-.657-45.879-1.421-17.669-4.467-36.658-10.393-53.919-5.927-17.267-14.713-32.739-27.572-43.458l.641-.768Z"/><path fill="url(#c)" d="M130.946 292.984a5.334 5.334 0 1 0 10.668 0 5.334 5.334 0 0 0-10.668 0Zm333 0a5.334 5.334 0 1 0 10.668 0 5.334 5.334 0 0 0-10.668 0Zm-327.666 0-.249.969.004.001.014.004.056.014.219.056.861.218c.757.191 1.875.471 3.321.827 2.892.711 7.095 1.728 12.341 2.948a1202.698 1202.698 0 0 0 41.858 8.945c33.383 6.502 74.962 13.018 107.575 13.018v-2c-32.41 0-73.831-6.483-107.193-12.981a1200.397 1200.397 0 0 1-41.787-8.93 999.964 999.964 0 0 1-12.316-2.942 621.764 621.764 0 0 1-4.383-1.096l-.054-.014-.014-.004-.003-.001-.25.968Zm166 26v1c32.612 0 74.441-6.516 108.073-13.018a1229.493 1229.493 0 0 0 42.201-8.945c5.293-1.219 9.534-2.236 12.454-2.948a804.809 804.809 0 0 0 4.222-1.044l.221-.056a2.17 2.17 0 0 1 .056-.015l.015-.003.003-.001c.001-.001.002-.001-.245-.97a42.675 42.675 0 0 0-.249-.968h-.003l-.014.004-.054.014-.22.055-.864.217c-.761.19-1.886.469-3.342.824-2.912.71-7.145 1.725-12.429 2.942a1228.477 1228.477 0 0 1-42.132 8.931c-33.612 6.498-75.284 12.981-107.693 12.981v1Z"/><defs><linearGradient id="a" x1="233.392" x2="13.678" y1="20.201" y2="207.002" gradientUnits="userSpaceOnUse"><stop stop-color="#5A92EB"/><stop offset="1" stop-color="#FE37A3"/></linearGradient><linearGradient id="b" x1="372.608" x2="592.322" y1="19.201" y2="206.002" gradientUnits="userSpaceOnUse"><stop stop-color="#5A92EB"/><stop offset="1" stop-color="#FE37A3"/></linearGradient><linearGradient id="c" x1="137.92" x2="471.264" y1="313.098" y2="313.098" gradientUnits="userSpaceOnUse"><stop stop-color="#5A92EB"/><stop offset="1" stop-color="#FE37A3"/></linearGradient></defs></svg>