<svg xmlns="http://www.w3.org/2000/svg" width="148" height="134" fill="none"><path stroke="url(#a)" stroke-width="2" d="M125.578 115.228C180.307 115.228 116.929 1 82.505 1s-101.856 114.228-43.58 114.228"/><rect width="52.702" height="52.702" y="23" fill="#fff" rx="20"/><path fill="#5F6A76" d="M26.294 36.647a1.647 1.647 0 1 1-3.295 0 1.647 1.647 0 0 1 3.295 0Zm9.442 1.647a1.649 1.649 0 0 0 1.522-2.277 1.648 1.648 0 1 0-1.522 2.277Z"/><path fill="url(#b)" fill-rule="evenodd" d="M21.858 24.11a1.013 1.013 0 0 1 1.375.466l1.878 3.812a12.177 12.177 0 0 1 2.337-.225h4.1c.798 0 1.577.075 2.337.225l1.878-3.812a1.03 1.03 0 0 1 .99-.573 1.015 1.015 0 0 1 .702.356 1.047 1.047 0 0 1 .248.756c-.01.137-.045.27-.106.393l-1.701 3.457c2.11.807 3.96 2.188 5.348 3.992a12.586 12.586 0 0 1 2.524 6.236 4.056 4.056 0 0 1 4.137-.068 4.139 4.139 0 0 1 1.53 1.525c.368.637.563 1.362.565 2.1v10.416a4.224 4.224 0 0 1-.553 2.08 4.14 4.14 0 0 1-1.5 1.522 4.057 4.057 0 0 1-4.097.005v2.646c0 3.458-2.747 6.249-6.15 6.249v4.166a4.2 4.2 0 0 1-1.2 2.946A4.067 4.067 0 0 1 33.6 74a4.067 4.067 0 0 1-2.9-1.22 4.2 4.2 0 0 1-1.2-2.946c0 2.291-1.835 4.166-4.1 4.166-2.255 0-4.1-1.864-4.1-4.166v-4.166c-3.403 0-6.15-2.791-6.15-6.249v-2.645a4.055 4.055 0 0 1-4.097-.006 4.14 4.14 0 0 1-1.5-1.522A4.224 4.224 0 0 1 9 53.166V42.75a4.224 4.224 0 0 1 .565-2.1 4.138 4.138 0 0 1 1.53-1.526 4.056 4.056 0 0 1 4.137.068 12.607 12.607 0 0 1 2.526-6.234 12.315 12.315 0 0 1 5.346-3.994l-1.701-3.457a1.054 1.054 0 0 1 .459-1.398h-.004Zm-6.724 18.643v10.415a2.1 2.1 0 0 1-.6 1.473c-.385.39-.907.61-1.45.61-.544 0-1.066-.22-1.45-.61a2.1 2.1 0 0 1-.6-1.473V42.753a2.1 2.1 0 0 1 .6-1.473c.384-.39.906-.61 1.45-.61.543 0 1.065.22 1.45.61.384.39.6.92.6 1.473Zm6.15 20.83h1.025c.271 0 .532.11.724.305.193.195.3.46.3.736v5.208a2.1 2.1 0 0 0 .601 1.473c.384.39.906.61 1.45.61.543 0 1.065-.22 1.45-.61.384-.39.6-.92.6-1.473v-5.208c0-.276.108-.54.3-.736.192-.195.453-.305.725-.305h2.05c.271 0 .532.11.724.305.193.195.3.46.3.736v5.208a2.1 2.1 0 0 0 .601 1.473c.385.39.906.61 1.45.61.543 0 1.065-.22 1.45-.61.384-.39.6-.92.6-1.473v-5.208c0-.276.108-.54.3-.736.192-.195.453-.305.725-.305h1.025c2.255 0 4.1-1.864 4.1-4.166v-13.54a1.05 1.05 0 0 0-.3-.736 1.017 1.017 0 0 0-.725-.305h-22.55c-.272 0-.533.11-.725.305-.192.195-.3.46-.3.736v13.54c0 2.291 1.834 4.166 4.1 4.166Zm-4.1-22.913c0-5.75 4.592-10.415 10.25-10.415h4.1c5.658 0 10.25 4.666 10.25 10.415v1.041c0 .277-.108.541-.3.737a1.017 1.017 0 0 1-.725.305h-22.55c-.272 0-.533-.11-.725-.305a1.05 1.05 0 0 1-.3-.737V40.67Zm26.65 2.083a2.1 2.1 0 0 1 .6-1.473c.385-.39.906-.61 1.45-.61.543 0 1.065.22 1.45.61.384.39.6.92.6 1.473v10.415a2.1 2.1 0 0 1-.6 1.473c-.385.39-.907.61-1.45.61-.544 0-1.066-.22-1.45-.61a2.1 2.1 0 0 1-.6-1.473V42.753Z" clip-rule="evenodd"/><path fill="url(#c)" d="M82.595 30.452c11.688.286 21.214 8.991 22.347 22.828.037 0 .075.003.114.011 1.234.252 2.845 4.828 1.981 9.086l-.088.396c-.958 4.056-3.738 7.006-4.933 6.763l-.111-.033c-.198-.082-.329-.268-.405-.544-1.822 3.292-4.182 6.227-6.675 8.648.01.05.018.1.024.15l.867 8.328c2.492-1.153 5.378-.873 8.177.225 3.602 1.413 7.357 4.266 10.734 7.796 3.392 3.545 6.488 7.862 8.742 12.318 2.246 4.439 3.709 9.12 3.709 13.373 0 2.739-1.892 4.871-4.42 6.473-2.564 1.624-6.125 2.937-10.253 3.977-8.279 2.086-19.24 3.171-30.145 3.235-10.903.063-21.87-.892-30.157-2.948-4.131-1.024-7.702-2.348-10.274-4.025-2.556-1.667-4.404-3.881-4.404-6.712 0-8.922 5.731-19.115 12.464-25.99 3.384-3.455 7.142-6.201 10.746-7.542 2.828-1.053 5.733-1.285 8.23-.115l1.213-7.918c-2.86-2.599-5.601-5.853-7.647-9.544-.06.453-.218.732-.52.785-1.24.215-4.404-3.459-5.146-7.74l-.063-.4c-.581-4.128.937-7.89 2.139-8.1l.114-.01c.035.001.07.005.103.013 1.17-14.046 10.995-22.79 22.941-22.79l.596.006Zm-22.49 59.313c-2.111 1.045-4.338 2.635-6.517 4.638.444.775 1.08 1.585 1.888 2.562 1.05 1.27 2.348 2.773 3.522 4.63 2.357 3.726 4.18 8.802 3.507 16.835 1.634 2.62 4.239 3.945 6.969 5.61 1.363.831 2.788 1.78 3.858 3.064a7.541 7.541 0 0 1 1.61 3.26c2.41.091 4.853.132 7.3.118 2.46-.015 4.918-.085 7.341-.205a7.546 7.546 0 0 1 1.59-3.173c1.07-1.284 2.496-2.233 3.86-3.064 2.729-1.664 5.333-2.99 6.967-5.61-.675-8.019 1.056-13.087 3.322-16.813 1.131-1.859 2.384-3.361 3.406-4.635.802-1 1.434-1.829 1.876-2.627-2.108-1.951-4.253-3.514-6.288-4.559a59.41 59.41 0 0 1-6.244 5.938c-4 3.27-9.4 6.691-14.863 7.015v17.81l-.005.102a1.001 1.001 0 0 1-1.99 0l-.005-.102v-17.833c-5.355-.444-10.732-3.838-14.749-7.063a62.706 62.706 0 0 1-6.355-5.898Zm-8.702 6.8c-6.146 6.542-10.978 15.658-10.978 23.232 0 1.357.861 2.777 3.043 4.199 2.166 1.413 5.366 2.636 9.357 3.626.481.12.973.235 1.474.347-.215-3.348-.278-6.459-.866-9.293-.653-3.147-1.925-5.742-4.675-7.579a1.001 1.001 0 0 1 1.112-1.663c3.33 2.224 4.802 5.372 5.52 8.836.651 3.135.71 6.71.944 10.122 4.61.896 9.886 1.502 15.428 1.822a4.683 4.683 0 0 0-.735-1.19c-.727-.873-1.775-1.605-3.116-2.422-2.549-1.555-6.16-3.358-8.25-7.087l-.23-.408.046-.467c.729-7.671-.972-12.212-3.015-15.442-1.049-1.658-2.2-2.993-3.298-4.32-.613-.742-1.23-1.506-1.76-2.313Zm61.387-.033c-.521.811-1.124 1.581-1.723 2.328-1.063 1.325-2.174 2.66-3.181 4.316-1.964 3.229-3.587 7.778-2.857 15.464l.044.467-.229.408c-2.09 3.729-5.701 5.532-8.25 7.087-1.34.817-2.389 1.549-3.115 2.422-.27.323-.5.673-.68 1.064 5.628-.39 10.981-1.065 15.639-2.017.222-3.349.292-6.843.929-9.916.719-3.463 2.192-6.611 5.522-8.835a1 1 0 0 1 1.111 1.664c-2.75 1.837-4.021 4.431-4.674 7.578-.575 2.77-.651 5.804-.854 9.065.406-.094.807-.19 1.2-.289 3.996-1.007 7.205-2.225 9.38-3.603 2.211-1.4 3.026-2.743 3.026-3.938 0-3.616-1.261-7.82-3.386-12.019-2.042-4.037-4.837-7.973-7.902-11.246Zm-10.413-7.585c-2.84-1.012-5.081-.75-6.695.733-4.665 4.284-8.95 6.618-13.443 6.582-4.477-.037-8.751-2.427-13.4-6.567-1.632-1.453-3.907-1.724-6.76-.756.165.172.344.359.536.553a60.726 60.726 0 0 0 5.097 4.612c4.23 3.395 9.585 6.623 14.55 6.671l.473-.005c4.896-.149 10.02-3.273 14.072-6.584a57.35 57.35 0 0 0 5.022-4.655c.197-.205.379-.402.548-.584Zm-17.57-4.675c-.967.323-1.845.496-2.598.496l-.316-.01c-.653-.038-1.392-.194-2.195-.453v8.601c.875.232 1.727.349 2.566.356.831.007 1.675-.095 2.543-.312v-8.678Zm7.262-4.233c-1.483 1.184-2.962 2.175-4.358 2.937.06.162.096.338.096.522v8.278c1.585-.831 3.27-2.03 5.105-3.643l-.843-8.094ZM71.6 88.12c1.833 1.564 3.516 2.75 5.1 3.585v-8.207c0-.16.025-.316.072-.46a30.49 30.49 0 0 1-4-2.574L71.6 88.12Zm21.402-41.039c-5.439-2.512-12.07-4.04-17.842-1.016l-.556.307c-5.002 2.907-8.462 4.04-10.724 4.428-.58.1-1.083.148-1.513.167a30.014 30.014 0 0 0-.424 5.116c0 6.8 3.642 13.266 8.328 18.154 2.32 2.42 4.808 4.356 7.044 5.67 2.336 1.371 4.052 1.86 4.895 1.86.836 0 2.521-.483 4.811-1.85 2.193-1.308 4.627-3.24 6.895-5.657 4.579-4.879 8.142-11.352 8.142-18.177 0-1.23-.071-2.417-.203-3.56a44.027 44.027 0 0 0-1.96-1.449c-1.709-1.194-4.112-2.708-6.893-3.993Zm-7.492 25.814a1 1 0 0 1 .582 1.914l-3.338 1.014-.275.084-.277-.075-3.757-1.014-.097-.033a1 1 0 0 1 .52-1.92l.099.02 3.48.942 3.063-.932Zm19.676-14.56c-.189 1.044-.389 2.21-.657 3.531-.26 1.284-.509 2.434-.706 3.437a11.325 11.325 0 0 0 1.255-3.325c.247-1.22.252-2.493.108-3.644Zm-46.49-.5a11.33 11.33 0 0 0 .04 3.555c.213 1.226.671 2.413 1.224 3.432-.204-1.041-.442-2.2-.672-3.528-.224-1.291-.41-2.453-.592-3.459Zm10.933-5.293a1.134 1.134 0 0 1 .398.093c.115.049.235.12.31.167.184.113.447.288.75.494.614.418 1.453 1.009 2.294 1.607.842.6 1.693 1.212 2.333 1.673l.775.56.03.022h11.948l.741-.542c.64-.465 1.49-1.083 2.333-1.688.841-.604 1.68-1.201 2.294-1.623.303-.209.567-.386.751-.5.076-.046.193-.117.306-.166a1.219 1.219 0 0 1 .392-.096c.084-.005.27-.008.485.076.258.102.491.306.6.591.091.239.06.44.038.531-.04.175-.128.297-.145.322-.75 1.078-.836 2.017-.763 2.664.037.33.117.594.185.767a2.135 2.135 0 0 0 .1.221l.046.089a.903.903 0 0 1-.362 1.162.996.996 0 0 1-.59.192h-24.83a.995.995 0 0 1-.589-.192.902.902 0 0 1-.314-1.252l.016-.033c.019-.037.049-.1.082-.187a3.13 3.13 0 0 0 .185-.767c.073-.646-.014-1.586-.764-2.664-.018-.027-.104-.148-.144-.322a.907.907 0 0 1 .036-.526c.105-.28.332-.486.588-.59.213-.088.4-.087.485-.083Zm1.889 3.497c.014.294.003.572-.026.828a5.02 5.02 0 0 1-.044.291h1.637c-.326-.233-.663-.477-1-.717l-.567-.402Zm21.327.423-.963.696h1.597a5.07 5.07 0 0 1-.044-.29 5.144 5.144 0 0 1-.026-.81l-.564.404ZM81.999 33.445c-8.922 0-16.676 5.636-19.196 15.485.222-.023.468-.056.738-.102 1.964-.337 5.198-1.361 10.058-4.185l.317-.181c6.691-3.694 14.227-1.828 19.924.804 2.918 1.348 5.425 2.928 7.2 4.169l.333.236c-2.314-10.306-10.23-16.225-19.374-16.226Z"/><path fill="url(#d)" fill-rule="evenodd" d="M115.71 53.799c2.12 0 3.88 1.534 4.239 3.554h16.284a.507.507 0 0 1 0 1.015H120.01a4.311 4.311 0 0 1-4.3 4.061 4.31 4.31 0 0 1-4.307-4.315 4.31 4.31 0 0 1 4.307-4.315Zm0 1.015a3.297 3.297 0 0 0-3.294 3.3c0 1.823 1.475 3.3 3.294 3.3a3.297 3.297 0 0 0 3.294-3.3c0-1.822-1.475-3.3-3.294-3.3Z" clip-rule="evenodd"/><path stroke="url(#e)" stroke-linecap="round" stroke-width="2" d="M85.75 15.861h8.615"/><path stroke="url(#f)" stroke-linecap="round" stroke-width="2" d="M113.75 38.59h2.534"/><path stroke="url(#g)" stroke-linecap="round" stroke-width="2" d="M107.336 75.629h1.013"/><path stroke="url(#h)" stroke-linecap="round" stroke-width="2" d="M57.675 22.83h3.04"/><path stroke="url(#i)" stroke-linecap="round" stroke-width="2" d="M28.875 97.159h4.56"/><path stroke="url(#j)" stroke-linecap="round" stroke-width="2" d="M131.659 99.49h3.041"/><path fill="#fff" stroke="url(#k)" d="M58.435 10.13a2.797 2.797 0 0 1 2.794 2.8c0 1.548-1.252 2.8-2.794 2.8a2.797 2.797 0 0 1-2.794-2.8c0-1.547 1.252-2.8 2.794-2.8Z"/><defs><linearGradient id="a" x1="81.527" x2="81.527" y1="1" y2="115.228" gradientUnits="userSpaceOnUse"><stop stop-color="#5A92EB"/><stop offset=".245" stop-color="#5892EE"/><stop offset=".505" stop-color="#DE7AF6"/><stop offset=".745" stop-color="#FF5DB5"/><stop offset="1" stop-color="#FF008A"/></linearGradient><linearGradient id="b" x1="9.202" x2="50.244" y1="62.679" y2="62.679" gradientUnits="userSpaceOnUse"><stop stop-color="#5A92EB"/><stop offset="1" stop-color="#FE37A3"/></linearGradient><linearGradient id="c" x1="56.544" x2="107.861" y1="72.667" y2="72.667" gradientUnits="userSpaceOnUse"><stop stop-color="#0287DF"/><stop offset="1" stop-color="#FE37A3"/></linearGradient><linearGradient id="d" x1="111.528" x2="136.891" y1="60.475" y2="60.475" gradientUnits="userSpaceOnUse"><stop stop-color="#5A92EB"/><stop offset="1" stop-color="#FE37A3"/></linearGradient><linearGradient id="e" x1="85.792" x2="94.416" y1="16.634" y2="16.634" gradientUnits="userSpaceOnUse"><stop stop-color="#5A92EB"/><stop offset="1" stop-color="#FE37A3"/></linearGradient><linearGradient id="f" x1="113.762" x2="116.299" y1="39.363" y2="39.363" gradientUnits="userSpaceOnUse"><stop stop-color="#5A92EB"/><stop offset="1" stop-color="#FE37A3"/></linearGradient><linearGradient id="g" x1="107.341" x2="108.355" y1="76.403" y2="76.403" gradientUnits="userSpaceOnUse"><stop stop-color="#5A92EB"/><stop offset="1" stop-color="#FE37A3"/></linearGradient><linearGradient id="h" x1="57.69" x2="60.733" y1="23.604" y2="23.604" gradientUnits="userSpaceOnUse"><stop stop-color="#5A92EB"/><stop offset="1" stop-color="#FE37A3"/></linearGradient><linearGradient id="i" x1="28.898" x2="33.463" y1="97.933" y2="97.933" gradientUnits="userSpaceOnUse"><stop stop-color="#5A92EB"/><stop offset="1" stop-color="#FE37A3"/></linearGradient><linearGradient id="j" x1="131.674" x2="134.718" y1="100.264" y2="100.264" gradientUnits="userSpaceOnUse"><stop stop-color="#5A92EB"/><stop offset="1" stop-color="#FE37A3"/></linearGradient><linearGradient id="k" x1="55.173" x2="61.768" y1="14.736" y2="14.736" gradientUnits="userSpaceOnUse"><stop stop-color="#5A92EB"/><stop offset="1" stop-color="#FE37A3"/></linearGradient></defs></svg>