<svg xmlns="http://www.w3.org/2000/svg" width="48" height="45" fill="none"><path fill="url(#a)" d="M47.5 13.773C47.5.984 36.15.984 24.506.984 12.863.984.5.984.5 13.774c0 8.95 12.363 31.21 24.006 31.21 11.644 0 22.994-22.26 22.994-31.21Z"/><path fill="#FBFBFB" d="M25 11a1 1 0 1 0-2 0h2Zm-1.707 23.707a1 1 0 0 0 1.414 0l6.364-6.364a1 1 0 0 0-1.414-1.414L24 32.586l-5.657-5.657a1 1 0 0 0-1.414 1.414l6.364 6.364ZM24 11h-1v23h2V11h-1Z"/><defs><linearGradient id="a" x1=".732" x2="47.78" y1="10.947" y2="10.947" gradientUnits="userSpaceOnUse"><stop stop-color="#5A92EB"/><stop offset="1" stop-color="#FE37A3"/></linearGradient></defs></svg>