<svg xmlns="http://www.w3.org/2000/svg" width="144" height="134" fill="none"><path stroke="url(#a)" stroke-width="2" d="M121.578 115.228C176.307 115.228 112.929 1 78.505 1s-101.856 114.228-43.58 114.228"/><path fill="url(#b)" d="M78.594 30.452c11.688.286 21.215 8.99 22.349 22.828.036 0 .074.003.112.011 1.234.251 2.846 4.827 1.983 9.086l-.088.396c-.958 4.056-3.738 7.006-4.934 6.763l-.11-.033c-.198-.082-.33-.268-.406-.544-1.822 3.292-4.182 6.227-6.675 8.65.01.048.018.098.023.149l.867 8.326c2.493-1.153 5.38-.872 8.178.226 3.602 1.413 7.357 4.266 10.734 7.796 3.393 3.545 6.488 7.862 8.743 12.318 2.246 4.439 3.709 9.12 3.709 13.373 0 2.739-1.893 4.871-4.42 6.473-2.564 1.624-6.125 2.937-10.253 3.977-8.279 2.086-19.24 3.171-30.146 3.235-10.903.063-21.869-.892-30.156-2.948-4.132-1.025-7.702-2.348-10.274-4.025-2.557-1.667-4.405-3.881-4.405-6.712 0-8.922 5.732-19.115 12.464-25.99 3.384-3.455 7.143-6.201 10.746-7.542 2.829-1.053 5.733-1.286 8.23-.115l1.213-7.918c-2.86-2.599-5.6-5.853-7.647-9.544-.059.453-.218.732-.52.785-1.242.215-4.404-3.46-5.146-7.74l-.062-.4c-.582-4.128.936-7.89 2.138-8.1l.115-.01c.034.001.069.005.102.013 1.17-14.046 10.995-22.79 22.94-22.79l.596.006Zm-22.49 59.313c-2.11 1.044-4.337 2.635-6.516 4.636.444.776 1.078 1.586 1.887 2.564 1.05 1.27 2.348 2.773 3.523 4.63 2.356 3.726 4.18 8.801 3.506 16.835 1.634 2.62 4.24 3.945 6.97 5.61 1.362.831 2.788 1.78 3.858 3.064a7.54 7.54 0 0 1 1.61 3.26c2.41.091 4.853.132 7.3.118a169.58 169.58 0 0 0 7.341-.205 7.55 7.55 0 0 1 1.591-3.173c1.07-1.284 2.496-2.233 3.859-3.064 2.73-1.664 5.334-2.99 6.968-5.61-.675-8.019 1.056-13.087 3.322-16.813 1.131-1.859 2.383-3.361 3.405-4.635.803-1 1.435-1.83 1.877-2.628-2.108-1.951-4.254-3.514-6.289-4.559a59.444 59.444 0 0 1-6.244 5.939c-4.001 3.269-9.4 6.69-14.864 7.014v17.811l-.004.102a1.001 1.001 0 0 1-1.99 0l-.005-.102v-17.834c-5.355-.444-10.733-3.838-14.75-7.063a62.692 62.692 0 0 1-6.355-5.897Zm-8.701 6.799c-6.146 6.542-10.977 15.658-10.978 23.233 0 1.357.861 2.777 3.043 4.199 2.167 1.413 5.366 2.636 9.358 3.626.481.12.972.235 1.473.347-.214-3.348-.279-6.459-.867-9.293-.653-3.147-1.923-5.742-4.674-7.579a1 1 0 0 1 1.112-1.663c3.329 2.224 4.802 5.371 5.521 8.835.65 3.136.709 6.711.943 10.123 4.61.896 9.885 1.502 15.427 1.822a4.68 4.68 0 0 0-.734-1.19c-.727-.873-1.776-1.605-3.116-2.422-2.55-1.555-6.16-3.358-8.25-7.087l-.23-.408.045-.467c.73-7.671-.972-12.212-3.015-15.442-1.048-1.658-2.199-2.993-3.297-4.32-.613-.742-1.23-1.507-1.761-2.314Zm61.388-.032c-.522.811-1.124 1.581-1.723 2.328-1.064 1.325-2.174 2.66-3.182 4.316-1.964 3.229-3.587 7.778-2.856 15.464l.044.467-.23.408c-2.09 3.729-5.7 5.532-8.25 7.087-1.34.817-2.388 1.549-3.115 2.422-.27.323-.5.672-.68 1.063 5.628-.39 10.98-1.064 15.639-2.016.222-3.349.292-6.843.93-9.916.718-3.463 2.191-6.612 5.52-8.836a1.001 1.001 0 0 1 1.112 1.664c-2.75 1.837-4.021 4.432-4.674 7.579-.575 2.77-.65 5.803-.854 9.065.407-.094.807-.19 1.2-.289 3.996-1.007 7.205-2.225 9.38-3.603 2.211-1.4 3.027-2.743 3.027-3.938 0-3.616-1.262-7.82-3.386-12.019-2.043-4.037-4.837-7.973-7.902-11.246Zm-10.415-7.585c-2.839-1.011-5.08-.75-6.694.733-4.665 4.284-8.95 6.618-13.442 6.582-4.478-.036-8.751-2.426-13.4-6.567-1.633-1.453-3.908-1.725-6.761-.757.166.172.343.359.536.553a60.745 60.745 0 0 0 5.096 4.612c4.23 3.396 9.585 6.623 14.551 6.671l.473-.005c4.895-.149 10.019-3.273 14.071-6.584a57.439 57.439 0 0 0 5.023-4.655c.197-.205.378-.401.547-.583Zm-17.57-4.675c-.966.323-1.845.496-2.597.496l-.317-.01c-.652-.038-1.39-.194-2.193-.453v8.601c.875.232 1.726.35 2.565.356.831.007 1.675-.095 2.542-.312v-8.678Zm7.264-4.234c-1.484 1.185-2.963 2.175-4.36 2.938.061.163.096.338.096.522v8.278c1.586-.831 3.27-2.031 5.107-3.644l-.843-8.094ZM67.6 88.12c1.832 1.565 3.515 2.749 5.099 3.584v-8.206c0-.16.025-.316.072-.46a30.49 30.49 0 0 1-4-2.574l-1.172 7.656ZM89 47.081c-5.438-2.512-12.069-4.04-17.841-1.016l-.556.307c-5.002 2.907-8.462 4.04-10.725 4.428-.58.1-1.082.148-1.511.167a30.013 30.013 0 0 0-.425 5.116c0 6.8 3.641 13.266 8.328 18.154 2.32 2.42 4.808 4.356 7.043 5.67 2.336 1.371 4.052 1.86 4.895 1.86.837 0 2.521-.483 4.812-1.85 2.192-1.308 4.627-3.24 6.895-5.657 4.579-4.879 8.141-11.351 8.141-18.177 0-1.23-.07-2.417-.203-3.56a43.743 43.743 0 0 0-1.959-1.449c-1.71-1.194-4.112-2.708-6.894-3.993Zm-7.49 25.814a1 1 0 0 1 .581 1.914l-3.338 1.014-.274.084-.277-.075-3.757-1.014-.098-.033a1 1 0 0 1 .52-1.92l.1.02 3.479.942 3.063-.932Zm19.674-14.56c-.188 1.044-.388 2.21-.656 3.531-.261 1.284-.508 2.434-.705 3.437a11.32 11.32 0 0 0 1.255-3.325c.247-1.22.251-2.493.106-3.644Zm-46.488-.5a11.324 11.324 0 0 0 .039 3.555c.212 1.226.67 2.413 1.224 3.432-.204-1.041-.441-2.2-.671-3.528-.224-1.291-.411-2.453-.592-3.459Zm10.93-5.294a1.126 1.126 0 0 1 .399.093c.114.048.234.12.31.167.184.112.447.288.75.494.614.418 1.453 1.009 2.294 1.608a457.062 457.062 0 0 1 3.108 2.233l.031.022h11.945l.744-.543c.64-.465 1.49-1.082 2.333-1.687.84-.604 1.68-1.202 2.293-1.624.304-.209.568-.385.752-.498.075-.047.193-.118.305-.167a1.21 1.21 0 0 1 .393-.096c.083-.005.27-.008.484.076.258.102.492.306.6.591.092.239.06.44.039.531-.041.176-.129.297-.146.322-.75 1.078-.836 2.017-.763 2.664.037.33.118.593.185.767a2.115 2.115 0 0 0 .1.221c.265.446.12.99-.323 1.255a.994.994 0 0 1-.583.188h-24.83a.995.995 0 0 1-.59-.194.902.902 0 0 1-.313-1.251 1.556 1.556 0 0 0 .098-.219c.067-.174.147-.437.184-.767.073-.646-.012-1.586-.762-2.664-.018-.026-.104-.148-.145-.323a.905.905 0 0 1 .035-.526c.106-.28.333-.485.588-.59.213-.087.4-.087.485-.083Zm1.89 3.498c.014.295.003.572-.026.828a5.02 5.02 0 0 1-.044.291h1.638l-1-.717-.569-.402Zm21.327.422c-.324.233-.648.47-.963.697h1.597a5.005 5.005 0 0 1-.044-.29 5.127 5.127 0 0 1-.026-.81l-.564.403ZM78 33.445c-8.923 0-16.676 5.636-19.196 15.485.223-.023.468-.056.738-.102 1.964-.337 5.197-1.361 10.057-4.185l.317-.181c6.691-3.694 14.227-1.828 19.924.804 2.92 1.348 5.426 2.928 7.2 4.169.115.08.225.16.334.236-2.314-10.306-10.23-16.226-19.374-16.226Z"/><path fill="url(#c)" fill-rule="evenodd" d="M130.52 104.567c.256.737 1.016 1.158 1.781 1.032l1.965 5.658a.19.19 0 0 0 .243.113.19.19 0 0 0 .12-.239l-1.958-5.637c.793-.327 1.208-1.201.931-1.998-.287-.826-1.21-1.256-2.061-.961-.851.296-1.308 1.206-1.021 2.032Zm.363-.126c-.22-.632.129-1.327.78-1.553.651-.227 1.357.102 1.576.734.22.632-.13 1.328-.78 1.554-.651.226-1.357-.103-1.576-.735Z" clip-rule="evenodd"/><path fill="url(#d)" fill-rule="evenodd" d="M63.7 25.893c-.918-1.098-2.497-1.327-3.728-.614l-7.05-8.435a.347.347 0 0 0-.49-.037.347.347 0 0 0-.05.489l7.024 8.404c-1.15 1.075-1.294 2.846-.301 4.034 1.03 1.232 2.893 1.371 4.162.31 1.269-1.06 1.463-2.918.433-4.15Zm-.54.452c.787.943.639 2.364-.332 3.175-.97.81-2.395.704-3.183-.238-.787-.942-.64-2.364.331-3.175.97-.81 2.395-.704 3.183.238Z" clip-rule="evenodd"/><path stroke="url(#e)" stroke-linecap="round" stroke-width="2" d="M26 102h5"/><path stroke="url(#f)" stroke-linecap="round" stroke-width="2" d="M43 78h2.534"/><path stroke="url(#g)" stroke-linecap="round" stroke-width="2" d="M105 35h1.013"/><path stroke="url(#h)" stroke-linecap="round" stroke-width="2" d="M84 17h3.04"/><path stroke="url(#i)" stroke-linecap="round" stroke-width="2" d="M120 87h8"/><path stroke="url(#j)" stroke-linecap="round" stroke-width="2" d="M106 74h2"/><path stroke="url(#k)" stroke-linecap="round" stroke-width="2" d="M120 55h3.04"/><circle cx="116" cy="29" r="2.5" fill="#fff" stroke="url(#l)"/><circle cx="25.5" cy="72.5" r="1.2" fill="#fff" stroke="url(#m)" stroke-width=".6"/><rect width="52" height="52" y="24" fill="#fff" rx="10"/><rect width="7" height="15" x="8" y="55" stroke="url(#n)" stroke-width="2" rx="1.167"/><rect width="8" height="22" x="21" y="48" stroke="url(#o)" stroke-width="2" rx="1.167"/><rect width="7" height="27" x="36" y="43" stroke="url(#p)" stroke-width="2" rx="1.167"/><path stroke="url(#q)" stroke-linecap="round" stroke-linejoin="round" stroke-width="2" d="M7 48.846 18.908 36.94l7.938 7.938L42.723 29"/><path stroke="url(#r)" stroke-linecap="round" stroke-linejoin="round" stroke-width="2" d="M34.784 29h7.939v7.938"/><defs><linearGradient id="a" x1="77.527" x2="77.527" y1="1" y2="115.228" gradientUnits="userSpaceOnUse"><stop stop-color="#5A92EB"/><stop offset=".245" stop-color="#5892EE"/><stop offset=".505" stop-color="#DE7AF6"/><stop offset=".745" stop-color="#FF5DB5"/><stop offset="1" stop-color="#FF008A"/></linearGradient><linearGradient id="b" x1="52.545" x2="103.861" y1="72.667" y2="72.667" gradientUnits="userSpaceOnUse"><stop stop-color="#0287DF"/><stop offset="1" stop-color="#FE37A3"/></linearGradient><linearGradient id="c" x1="132.399" x2="135.461" y1="102.286" y2="111.098" gradientUnits="userSpaceOnUse"><stop stop-color="#5A92EB"/><stop offset="1" stop-color="#FE37A3"/></linearGradient><linearGradient id="d" x1="61.956" x2="50.975" y1="31.031" y2="17.893" gradientUnits="userSpaceOnUse"><stop stop-color="#5A92EB"/><stop offset="1" stop-color="#FE37A3"/></linearGradient><linearGradient id="e" x1="26.025" x2="31.03" y1="102.774" y2="102.774" gradientUnits="userSpaceOnUse"><stop stop-color="#5A92EB"/><stop offset="1" stop-color="#FE37A3"/></linearGradient><linearGradient id="f" x1="43.013" x2="45.549" y1="78.774" y2="78.774" gradientUnits="userSpaceOnUse"><stop stop-color="#5A92EB"/><stop offset="1" stop-color="#FE37A3"/></linearGradient><linearGradient id="g" x1="105.005" x2="106.02" y1="35.774" y2="35.774" gradientUnits="userSpaceOnUse"><stop stop-color="#5A92EB"/><stop offset="1" stop-color="#FE37A3"/></linearGradient><linearGradient id="h" x1="84.015" x2="87.059" y1="17.774" y2="17.774" gradientUnits="userSpaceOnUse"><stop stop-color="#5A92EB"/><stop offset="1" stop-color="#FE37A3"/></linearGradient><linearGradient id="i" x1="120.039" x2="128.048" y1="87.774" y2="87.774" gradientUnits="userSpaceOnUse"><stop stop-color="#5A92EB"/><stop offset="1" stop-color="#FE37A3"/></linearGradient><linearGradient id="j" x1="106.01" x2="108.012" y1="74.774" y2="74.774" gradientUnits="userSpaceOnUse"><stop stop-color="#5A92EB"/><stop offset="1" stop-color="#FE37A3"/></linearGradient><linearGradient id="k" x1="120.015" x2="123.059" y1="55.774" y2="55.774" gradientUnits="userSpaceOnUse"><stop stop-color="#5A92EB"/><stop offset="1" stop-color="#FE37A3"/></linearGradient><linearGradient id="l" x1="113.03" x2="119.036" y1="30.642" y2="30.642" gradientUnits="userSpaceOnUse"><stop stop-color="#5A92EB"/><stop offset="1" stop-color="#FE37A3"/></linearGradient><linearGradient id="m" x1="24.015" x2="27.018" y1="73.321" y2="73.321" gradientUnits="userSpaceOnUse"><stop stop-color="#5A92EB"/><stop offset="1" stop-color="#FE37A3"/></linearGradient><linearGradient id="n" x1="7.044" x2="16.054" y1="67.151" y2="67.151" gradientUnits="userSpaceOnUse"><stop stop-color="#5A92EB"/><stop offset="1" stop-color="#FE37A3"/></linearGradient><linearGradient id="o" x1="20.049" x2="30.06" y1="65.566" y2="65.566" gradientUnits="userSpaceOnUse"><stop stop-color="#5A92EB"/><stop offset="1" stop-color="#FE37A3"/></linearGradient><linearGradient id="p" x1="35.044" x2="44.054" y1="64.434" y2="64.434" gradientUnits="userSpaceOnUse"><stop stop-color="#5A92EB"/><stop offset="1" stop-color="#FE37A3"/></linearGradient><linearGradient id="q" x1="7.176" x2="42.936" y1="44.353" y2="44.353" gradientUnits="userSpaceOnUse"><stop stop-color="#5A92EB"/><stop offset="1" stop-color="#FE37A3"/></linearGradient><linearGradient id="r" x1="34.823" x2="42.77" y1="35.141" y2="35.141" gradientUnits="userSpaceOnUse"><stop stop-color="#5A92EB"/><stop offset="1" stop-color="#FE37A3"/></linearGradient></defs></svg>