<svg xmlns="http://www.w3.org/2000/svg" width="1118" height="683" fill="none"><path fill="url(#a)" d="M511.418 0c7.456 0 13.5 6.044 13.5 13.5s-6.044 13.5-13.5 13.5a13.44 13.44 0 0 1-7.752-2.446L486.881 64h568.039c3.31 0 6 2.686 6 6v59.856l33.16-8.186.48 1.941-33.64 8.306v471.687l24.19-6.482 1.03 3.864-25.22 6.758V642c0 3.314-2.69 6-6 6H708.457l-10.712 33.082h.001l-.615 1.902-25.892-8.382c-1.993 5.776-8.146 8.951-13.856 7.102-5.599-1.813-8.715-7.791-7.164-13.536l.164-.555c1.854-5.725 7.766-8.978 13.388-7.474l.542.16c5.217 1.689 8.277 6.995 7.416 12.359l24.114 7.808L706.354 648H264.918l-.309-.008a6 6 0 0 1-5.691-5.992v-11.92l-21.861-7.887a6.875 6.875 0 0 1-4.115 1.958l-.354.029a6.908 6.908 0 0 1-7.283-6.509l-.012-.356a6.907 6.907 0 0 1 6.52-6.927l.357-.011a6.906 6.906 0 0 1 6.926 6.519l.011.356a6.862 6.862 0 0 1-.804 3.265l20.615 7.437V145h-62v46.01h-.182c20.372 31.752 33.764 68.346 33.764 89.49l-.011 1.43c-.856 60.044-55.883 60.044-112.324 60.044-56.44 0-116.339-.001-117.271-60.044l-.011-1.43c0-43.026 60.398-150.026 117.283-150.026 27.219 0 54.108 24.498 74.752 54.763V141h66V70a6 6 0 0 1 6-6H483.62l17.684-41.559a13.448 13.448 0 0 1-3.386-8.941c0-7.456 6.044-13.5 13.5-13.5Zm152.279 662.202c-4.688-1.517-9.824 1.128-11.411 6.027-1.586 4.901 1.025 10.055 5.713 11.573 4.688 1.517 9.824-1.128 11.411-6.028 1.587-4.9-1.025-10.054-5.713-11.572ZM264.918 642h790.002V70H264.918v572Zm-32.992-29.615a4.907 4.907 0 1 0 .549 9.799 4.907 4.907 0 0 0-.549-9.799Zm845.744-50.197a8.873 8.873 0 0 1 6.56 16.196l5.78 21.566-3.87 1.035-5.7-21.299c-4.26.446-8.34-2.256-9.48-6.527l-.11-.444c-.98-4.588 1.79-9.191 6.38-10.419l.44-.108Zm6.56 7.416a4.878 4.878 0 0 0-5.97-3.445 4.87 4.87 0 1 0 5.97 3.445Zm-966.065-435.13c-12.977 0-26.563 6.125-39.856 16.54-13.254 10.383-25.874 24.769-36.827 40.613-10.942 15.829-20.13 32.982-26.569 48.789-6.476 15.897-10.03 30.089-10.03 40.084 0 14.691 3.597 25.315 9.514 33.123 5.937 7.835 14.501 13.218 25.103 16.886 21.438 7.417 49.998 7.465 78.665 7.465 28.691 0 55.962-.054 76.123-7.441 9.94-3.642 17.888-8.986 23.388-16.797s8.824-18.474 8.824-33.236c0-10.054-3.278-24.285-9.294-40.178-5.986-15.813-14.564-32.964-24.892-48.784-10.338-15.837-22.339-30.203-35.118-40.566-12.809-10.389-26.072-16.498-39.031-16.498Zm984.375 13.133c6.45-1.545 12.83 1.932 14.28 7.802 1.41 5.714-2.37 11.597-8.49 13.413l-.6.163c-6.38 1.575-12.71-1.777-14.3-7.507l-.07-.276c-1.31-5.323 1.88-10.792 7.27-12.983l-6.55-26.551 1.94-.48 6.52 26.419Zm12.34 8.282c-1.15-4.657-6.36-7.697-11.95-6.32-5.58 1.379-8.78 6.496-7.63 11.154 1.15 4.657 6.37 7.698 11.95 6.32 5.58-1.379 8.78-6.497 7.63-11.154ZM511.418 3c-5.799 0-10.5 4.701-10.5 10.5s4.701 10.5 10.5 10.5 10.5-4.701 10.5-10.5S517.217 3 511.418 3Z"/><defs><linearGradient id="a" x1="6.381" x2="1123.77" y1="528.347" y2="528.347" gradientUnits="userSpaceOnUse"><stop stop-color="#5A92EB"/><stop offset="1" stop-color="#FE37A3"/></linearGradient></defs></svg>