<svg xmlns="http://www.w3.org/2000/svg" width="1117" height="683" fill="none"><path fill="url(#a)" d="M510.535 0c7.456 0 13.5 6.044 13.5 13.5s-6.044 13.5-13.5 13.5a13.44 13.44 0 0 1-7.752-2.446L485.998 64h568.042c3.31 0 6 2.686 6 6v59.856l33.16-8.186.48 1.941-33.64 8.306v471.687l24.19-6.482 1.03 3.864-25.22 6.758V642l-.01.309a5.998 5.998 0 0 1-5.99 5.691H707.574l-10.712 33.082h.001l-.615 1.902-25.892-8.382c-1.992 5.776-8.146 8.951-13.856 7.102-5.599-1.813-8.715-7.791-7.164-13.536l.164-.555c1.854-5.725 7.766-8.978 13.388-7.474l.543.16c5.216 1.689 8.276 6.995 7.415 12.359l24.114 7.808L705.472 648H264.035l-.308-.008a6 6 0 0 1-5.692-5.992v-11.92l-21.861-7.887a6.872 6.872 0 0 1-4.114 1.958l-.355.029a6.908 6.908 0 0 1-7.283-6.509l-.012-.356a6.908 6.908 0 0 1 6.521-6.927l.356-.011a6.906 6.906 0 0 1 6.926 6.519l.012.356a6.875 6.875 0 0 1-.805 3.265l20.615 7.437V145h-62v46.01h-.181c20.371 31.752 33.763 68.346 33.763 89.49l-.011 1.43c-.856 60.044-55.883 60.044-112.324 60.044-56.44 0-116.339-.001-117.271-60.044L0 280.5c0-43.026 60.398-150.026 117.283-150.026 27.219 0 54.108 24.498 74.752 54.763V141h66V70a6 6 0 0 1 5.692-5.992l.308-.008h218.702l17.684-41.559a13.448 13.448 0 0 1-3.386-8.941c0-7.456 6.044-13.5 13.5-13.5Zm152.279 662.202c-4.688-1.517-9.824 1.128-11.411 6.027-1.586 4.901 1.025 10.055 5.713 11.573 4.688 1.517 9.824-1.128 11.411-6.028 1.587-4.9-1.024-10.054-5.713-11.572ZM264.035 642h790.005V70H264.035v572Zm-32.992-29.615a4.908 4.908 0 1 0 .55 9.8 4.908 4.908 0 0 0-.55-9.8Zm845.747-50.197a8.873 8.873 0 0 1 6.56 16.196l5.78 21.566-3.87 1.035-5.71-21.299a8.876 8.876 0 0 1-9.48-6.527l-.1-.444a8.862 8.862 0 0 1 6.37-10.419l.45-.108Zm6.55 7.416a4.863 4.863 0 0 0-5.96-3.445 4.864 4.864 0 0 0-3.44 5.965 4.862 4.862 0 0 0 5.96 3.442 4.861 4.861 0 0 0 3.44-5.962Zm-966.058-435.13c-12.977 0-26.563 6.125-39.856 16.54-13.254 10.383-25.874 24.769-36.826 40.613-10.943 15.829-20.13 32.982-26.57 48.789C7.554 256.313 4 270.505 4 280.5c0 14.691 3.597 25.315 9.514 33.123 5.937 7.835 14.502 13.218 25.103 16.886 21.439 7.417 49.998 7.465 78.665 7.465 28.691 0 55.962-.054 76.123-7.441 9.94-3.642 17.888-8.986 23.388-16.797 5.501-7.811 8.824-18.474 8.824-33.236 0-10.054-3.278-24.285-9.294-40.178-5.985-15.813-14.564-32.964-24.891-48.784-10.339-15.837-22.34-30.203-35.119-40.566-12.809-10.389-26.072-16.498-39.031-16.498Zm984.378 13.133c6.45-1.545 12.83 1.932 14.28 7.802 1.41 5.714-2.37 11.597-8.5 13.413l-.59.163c-6.38 1.575-12.72-1.777-14.3-7.507l-.07-.276c-1.32-5.323 1.87-10.792 7.27-12.983l-6.55-26.551 1.94-.48 6.52 26.419Zm12.34 8.282c-1.15-4.657-6.37-7.697-11.95-6.32-5.58 1.379-8.78 6.496-7.63 11.154 1.15 4.657 6.36 7.698 11.95 6.32 5.58-1.379 8.78-6.497 7.63-11.154ZM510.535 3c-5.799 0-10.5 4.701-10.5 10.5s4.701 10.5 10.5 10.5 10.5-4.701 10.5-10.5S516.334 3 510.535 3Z"/><defs><linearGradient id="a" x1="5.498" x2="1122.89" y1="528.347" y2="528.347" gradientUnits="userSpaceOnUse"><stop stop-color="#5A92EB"/><stop offset="1" stop-color="#FE37A3"/></linearGradient></defs></svg>