<svg xmlns="http://www.w3.org/2000/svg" width="64" height="64" fill="none"><g clip-path="url(#a)"><path fill="url(#b)" d="M44.612.35c-1 .512-1.412 1.175-1.462 2.312-.05 1.15.275 1.85 1.125 2.4l.587.375v2.85l.013 2.838-.65-.325a52.209 52.209 0 0 1-1.913-1.05C40.325 8.6 39.3 8.125 37.75 7.625c-2-.663-3.563-.9-5.75-.9-3.75 0-6.438.787-10.375 3.062-2.85 1.638-5.75 2.875-8.55 3.638-2.362.65-2.325.562-2.325 4.837v2.613h-5.2l-.425-.65c-.625-.938-1.287-1.263-2.462-1.2-1.138.05-1.8.462-2.313 1.462-.462.888-.462 1.638 0 2.525.513 1 1.175 1.413 2.313 1.463 1.15.05 1.85-.275 2.4-1.125l.375-.588H8.1l2.65-.012v5.375H9.6l-1.162-.013-.338-.55c-.5-.825-1.2-1.237-2.225-1.287-.662-.038-.937 0-1.325.2-.737.375-1.287 1-1.487 1.7-.238.775-.238.875 0 1.65.337 1.162 1.4 1.925 2.662 1.925.95 0 1.688-.375 2.275-1.163L8.438 30H10.7l.15 2.837c.088 1.9.225 3.263.4 4.1.525 2.525 1.588 5.138 2.85 7.075.787 1.213 1.238 1.413 1.838.8.437-.425.387-.75-.276-1.812-1.325-2.138-2.262-4.563-2.675-7-.225-1.35-.237-2-.212-10.988l.037-9.537 1.413-.413c2.688-.775 6.2-2.35 8.85-3.95 4.775-2.875 10.35-3.325 15.4-1.25.488.2 1.837.913 3.012 1.563 3.075 1.75 6.763 3.312 9.263 3.925l.438.1.062 4.375c.05 3.212.1 4.437.225 4.637.188.35.7.488 1.137.338.6-.213.65-.663.613-5.55-.038-3.863-.063-4.488-.25-4.813-.262-.487-.475-.587-2.188-1.05-.762-.212-1.962-.587-2.65-.85l-1.262-.462.013-3.313V5.437l.587-.375c.85-.55 1.175-1.25 1.125-2.4-.05-1.15-.475-1.812-1.462-2.325-.913-.45-1.638-.45-2.526.013Zm1.863 1.775c.587.55.188 1.625-.6 1.625-.475 0-.875-.425-.875-.938 0-.512.4-.937.875-.937.175 0 .45.112.6.25ZM3.5 21.15c.538.587.125 1.475-.687 1.475-.513 0-.938-.4-.938-.875 0-.788 1.075-1.188 1.625-.6Zm2.875 7.225c.563.562.138 1.5-.675 1.5-.462 0-.95-.45-.95-.875 0-.125.113-.363.263-.55.325-.413.987-.45 1.362-.075Z"/><path fill="url(#c)" d="M29.875 10.588c-2.163.35-4.825 1.362-5.85 2.225-.625.524-.512 1.287.225 1.537.337.125.488.088 1.212-.3 2.313-1.2 4.15-1.675 6.538-1.675 2.8 0 4.362.475 7.688 2.363 2.312 1.3 4.524 2.35 6.537 3.087l1.275.475v8.025c0 7.387-.025 8.137-.237 9.275-.675 3.462-1.975 5.762-4.938 8.712-2.575 2.563-5.063 4.376-8.4 6.088l-1.912.988-1.513-.763a34.025 34.025 0 0 1-7.65-5.175c-2.975-2.638-4.688-5.038-5.588-7.8-.737-2.25-.762-2.563-.762-11.337v-8l.975-.363c.525-.188 1.737-.688 2.688-1.113 1.375-.6 1.762-.825 1.912-1.112.35-.688-.175-1.45-.912-1.313-.2.025-1.026.363-1.85.738-.825.387-2.05.875-2.738 1.112-1.4.488-1.875.85-1.987 1.575-.138.763-.1 13.788.037 15.738.188 2.737.738 4.887 1.813 6.975 1.45 2.838 4.537 6.113 8.312 8.825 2.4 1.725 6.438 3.875 7.275 3.875.5 0 3.638-1.538 5.475-2.688 3.025-1.887 6.888-5.325 8.587-7.637 2.013-2.737 3.038-5.625 3.288-9.275.138-2 .175-15.037.038-15.813-.1-.612-.6-1.112-1.3-1.325-1.75-.524-4.913-1.962-7.526-3.425-2.837-1.6-3.937-2.05-5.962-2.4-.975-.175-3.938-.237-4.75-.1Z"/><path fill="url(#d)" d="M30.538 22.175a4.707 4.707 0 0 0-.95.438c-.626.387-1.576 1.437-1.85 2.062-.263.6-.476 1.912-.488 2.912v.663h-.488c-.562 0-1.2.387-1.6.975-.374.575-.437 1.412-.387 5.587.038 3.138.063 3.675.25 4.013.263.487.888 1.025 1.325 1.15.438.112 10.862.112 11.3 0 .438-.125 1.063-.663 1.325-1.15.188-.338.212-.875.25-4.013.05-4.174-.013-5.012-.388-5.587-.4-.588-1.037-.975-1.6-.975h-.487v-.663c-.013-1-.225-2.312-.5-2.912-.337-.775-1.413-1.863-2.225-2.262-.575-.276-.9-.35-1.825-.375-.713-.026-1.338.024-1.663.137Zm2.687 1.938c.25.137.612.4.788.6.612.65.737 1.062.737 2.35v1.187h-5.5v-1.188c0-.937.05-1.3.238-1.662a3.268 3.268 0 0 1 1.325-1.313c.537-.287 1.825-.274 2.412.026Zm4.025 10c0 3.525-.025 4-.2 4.062-.25.1-9.85.1-10.1 0-.175-.063-.2-.537-.2-4.063v-3.987h10.5v3.987Z"/><path fill="url(#e)" d="M30.738 30.725c-1 .512-1.413 1.175-1.463 2.313-.05 1.15.275 1.85 1.125 2.4.513.325.588.437.588.812.024 1.025.387 1.612 1.012 1.612s.987-.587 1.013-1.612c0-.375.075-.487.587-.813.85-.55 1.175-1.25 1.125-2.4-.05-1.15-.475-1.812-1.462-2.325-.913-.45-1.638-.45-2.525.013ZM32.6 32.5c.587.55.188 1.625-.6 1.625-.475 0-.875-.425-.875-.938 0-.512.4-.937.875-.937.175 0 .45.112.6.25Z"/><path fill="url(#f)" d="m51.663 27.3-.35.3-.076 3.925c-.062 3.7-.087 4-.412 5.413a19.208 19.208 0 0 1-3.05 6.874C46.938 45 43.513 48.475 42 49.675c-2.4 1.913-6.188 4.15-9.025 5.338l-.975.4-.962-.4c-1.763-.738-4.75-2.338-6.375-3.425-2.026-1.363-3.35-2.425-5.125-4.126-1.326-1.275-1.438-1.35-1.875-1.312-.576.05-.988.538-.863 1.038.1.374 2.05 2.325 3.412 3.412l.9.712v7.25l-.587.376c-.85.55-1.175 1.25-1.125 2.4.05 1.137.463 1.8 1.463 2.312.887.462 1.612.462 2.524 0 .988-.5 1.413-1.163 1.463-2.313.05-1.15-.275-1.85-1.125-2.4l-.588-.374V55.7l-.012-2.85.35.225c3.012 1.987 7.487 4.175 8.525 4.175.9 0 4.75-1.813 7.538-3.55 3.712-2.3 7.712-5.95 9.875-8.975 1.012-1.425 2.1-3.587 2.612-5.188l.413-1.274L54 38.25h1.563l.437.587c1.087 1.463 3.063 1.588 4.35.275.375-.375.775-1.35.775-1.862 0-.513-.4-1.487-.775-1.862-.675-.688-1.263-.925-2.225-.863-1.025.05-1.725.462-2.225 1.288l-.337.55-1.363.012h-1.35l.075-.413c.075-.387.313-3.712.325-4.562V31l2.663.012h2.65l.374.588c.55.85 1.25 1.175 2.4 1.125.75-.038.975-.1 1.425-.413.7-.5 1.238-1.5 1.238-2.312 0-.813-.538-1.813-1.237-2.313-.45-.312-.675-.375-1.425-.412-1.175-.063-1.838.262-2.463 1.2l-.425.65h-5.163l-.075-.775c-.062-.638-.125-.838-.4-1.063-.412-.362-.712-.362-1.15.013Zm10.212 2.1c.538.587.125 1.475-.688 1.475-.512 0-.937-.4-.937-.875 0-.788 1.075-1.188 1.625-.6Zm-2.888 7.3c.15.188.263.425.263.55 0 .125-.112.362-.263.55-.512.65-1.612.288-1.612-.55 0-.837 1.1-1.2 1.612-.55ZM22.725 60.5a.952.952 0 0 1 .275.688c0 .812-.887 1.224-1.475.687-.587-.55-.188-1.625.6-1.625.175 0 .45.112.6.25Z"/></g><defs><linearGradient id="b" x1="26.619" x2="26.619" y1=".001" y2="45.149" gradientUnits="userSpaceOnUse"><stop stop-color="#5D97EC"/><stop offset=".591" stop-color="#0287DF"/><stop offset="1" stop-color="#045E99"/></linearGradient><linearGradient id="c" x1="32" x2="32" y1="10.513" y2="53.25" gradientUnits="userSpaceOnUse"><stop stop-color="#5D97EC"/><stop offset=".591" stop-color="#0287DF"/><stop offset="1" stop-color="#045E99"/></linearGradient><linearGradient id="d" x1="32" x2="32" y1="22.031" y2="40.059" gradientUnits="userSpaceOnUse"><stop stop-color="#5D97EC"/><stop offset=".591" stop-color="#0287DF"/><stop offset="1" stop-color="#045E99"/></linearGradient><linearGradient id="e" x1="32" x2="32" y1="30.377" y2="37.862" gradientUnits="userSpaceOnUse"><stop stop-color="#5D97EC"/><stop offset=".591" stop-color="#0287DF"/><stop offset="1" stop-color="#045E99"/></linearGradient><linearGradient id="f" x1="40.389" x2="40.389" y1="27.017" y2="63.997" gradientUnits="userSpaceOnUse"><stop stop-color="#5D97EC"/><stop offset=".591" stop-color="#0287DF"/><stop offset="1" stop-color="#045E99"/></linearGradient><clipPath id="a"><path fill="#fff" d="M0 0h64v64H0z"/></clipPath></defs></svg>