<svg xmlns="http://www.w3.org/2000/svg" width="144" height="134" fill="none"><path stroke="url(#a)" stroke-width="2" d="M121.578 115.228C176.307 115.228 112.929 1 78.505 1s-101.856 114.228-43.58 114.228"/><path fill="url(#b)" d="M78.594 30.452c11.688.286 21.215 8.99 22.349 22.828.036 0 .074.003.112.011 1.234.251 2.846 4.827 1.983 9.086l-.088.396c-.958 4.056-3.738 7.006-4.934 6.763l-.11-.033c-.198-.082-.33-.268-.406-.544-1.822 3.292-4.182 6.227-6.675 8.65.01.048.018.098.023.149l.867 8.327c2.493-1.153 5.38-.873 8.178.225 3.602 1.413 7.357 4.266 10.734 7.796 3.393 3.545 6.488 7.862 8.743 12.318 2.246 4.439 3.708 9.12 3.709 13.373 0 2.739-1.893 4.871-4.42 6.473-2.564 1.624-6.126 2.937-10.253 3.977-8.279 2.086-19.24 3.171-30.146 3.235-10.903.063-21.869-.892-30.156-2.948-4.132-1.025-7.702-2.348-10.274-4.025-2.557-1.667-4.405-3.881-4.405-6.712 0-8.922 5.732-19.115 12.464-25.99 3.384-3.455 7.143-6.201 10.746-7.542 2.829-1.053 5.733-1.286 8.23-.115l1.213-7.918c-2.86-2.599-5.6-5.853-7.647-9.544-.059.453-.218.732-.52.785-1.242.215-4.404-3.46-5.146-7.74l-.062-.4c-.582-4.128.936-7.89 2.138-8.1l.115-.01c.034.001.069.005.102.013 1.17-14.046 10.995-22.79 22.94-22.79l.596.006Zm-22.49 59.313c-2.11 1.044-4.337 2.635-6.516 4.636.444.776 1.079 1.587 1.887 2.564 1.05 1.27 2.348 2.773 3.523 4.63 2.356 3.726 4.18 8.801 3.506 16.835 1.634 2.62 4.24 3.945 6.97 5.61 1.362.831 2.788 1.78 3.858 3.064a7.541 7.541 0 0 1 1.61 3.26c2.41.091 4.853.132 7.3.118a169.58 169.58 0 0 0 7.341-.205 7.546 7.546 0 0 1 1.591-3.173c1.07-1.284 2.496-2.233 3.859-3.064 2.73-1.664 5.334-2.99 6.968-5.61-.675-8.019 1.056-13.087 3.322-16.813 1.13-1.859 2.383-3.361 3.405-4.635.803-1 1.435-1.829 1.877-2.627-2.108-1.952-4.254-3.515-6.289-4.56a59.428 59.428 0 0 1-6.244 5.94c-4.001 3.269-9.4 6.69-14.864 7.014v17.811l-.004.102a1.002 1.002 0 0 1-1.99 0l-.005-.102v-17.834c-5.355-.444-10.733-3.838-14.75-7.063a62.724 62.724 0 0 1-6.355-5.898Zm-8.701 6.799c-6.146 6.542-10.977 15.658-10.978 23.233 0 1.357.861 2.777 3.043 4.199 2.167 1.413 5.366 2.636 9.358 3.626.481.12.972.235 1.473.347-.214-3.348-.279-6.459-.867-9.293-.653-3.147-1.923-5.742-4.674-7.579a1 1 0 0 1 1.112-1.663c3.329 2.224 4.802 5.372 5.521 8.836.65 3.135.709 6.71.943 10.122 4.61.896 9.885 1.502 15.427 1.822a4.683 4.683 0 0 0-.734-1.19c-.727-.873-1.776-1.605-3.116-2.422-2.55-1.555-6.16-3.358-8.25-7.087l-.23-.408.045-.467c.73-7.671-.972-12.212-3.015-15.442-1.048-1.658-2.199-2.993-3.297-4.32-.613-.742-1.23-1.507-1.761-2.314Zm61.388-.032c-.522.811-1.124 1.581-1.723 2.328-1.064 1.325-2.174 2.66-3.182 4.316-1.964 3.229-3.587 7.778-2.856 15.464l.044.467-.23.408c-2.09 3.729-5.7 5.532-8.25 7.087-1.34.817-2.388 1.549-3.115 2.422-.27.323-.5.672-.68 1.063 5.627-.39 10.98-1.064 15.639-2.016.222-3.349.292-6.843.93-9.916.718-3.463 2.191-6.612 5.52-8.836a1.001 1.001 0 0 1 1.112 1.664c-2.75 1.837-4.021 4.432-4.674 7.579-.575 2.77-.65 5.804-.854 9.065.407-.094.807-.19 1.2-.289 3.996-1.007 7.205-2.225 9.38-3.603 2.211-1.4 3.027-2.743 3.027-3.938-.001-3.616-1.262-7.82-3.386-12.019-2.043-4.037-4.837-7.973-7.902-11.246Zm-10.415-7.585c-2.839-1.011-5.08-.749-6.694.733-4.665 4.284-8.95 6.618-13.442 6.582-4.478-.036-8.751-2.427-13.4-6.567-1.633-1.453-3.908-1.725-6.762-.757.166.172.344.36.537.554a60.743 60.743 0 0 0 5.096 4.612c4.23 3.395 9.586 6.623 14.551 6.671l.473-.005c4.895-.149 10.019-3.273 14.071-6.584a57.423 57.423 0 0 0 5.023-4.655c.197-.205.377-.402.547-.584Zm-17.57-4.675c-.966.323-1.845.496-2.597.496l-.317-.01c-.652-.038-1.39-.194-2.193-.453v8.602c.874.232 1.726.348 2.565.355.831.007 1.675-.094 2.542-.31v-8.68Zm7.264-4.234c-1.484 1.185-2.963 2.175-4.36 2.938.061.162.096.338.096.522v8.28c1.586-.832 3.27-2.032 5.107-3.645l-.843-8.095ZM67.6 88.12c1.832 1.565 3.515 2.749 5.099 3.584v-8.206c0-.16.025-.316.072-.46a30.49 30.49 0 0 1-4-2.574l-1.172 7.656ZM89 47.081c-5.438-2.512-12.069-4.04-17.841-1.016l-.556.307c-5.002 2.907-8.462 4.04-10.725 4.428-.58.1-1.082.148-1.511.167a30.013 30.013 0 0 0-.425 5.116c0 6.8 3.641 13.266 8.328 18.154 2.32 2.42 4.808 4.356 7.043 5.67 2.336 1.371 4.052 1.86 4.895 1.86.837 0 2.521-.483 4.812-1.85 2.192-1.308 4.627-3.24 6.895-5.657 4.579-4.879 8.141-11.351 8.141-18.177 0-1.23-.07-2.417-.203-3.56a43.743 43.743 0 0 0-1.959-1.449c-1.71-1.194-4.112-2.708-6.894-3.993Zm-7.49 25.814a1 1 0 0 1 .581 1.914l-3.338 1.014-.274.084-.277-.075-3.757-1.014-.098-.033a1 1 0 0 1 .52-1.92l.1.02 3.479.942 3.063-.932Zm19.674-14.56c-.188 1.044-.388 2.21-.656 3.531-.261 1.284-.508 2.434-.705 3.437a11.32 11.32 0 0 0 1.255-3.325c.247-1.22.251-2.493.106-3.644Zm-46.488-.5a11.324 11.324 0 0 0 .039 3.555c.212 1.226.67 2.413 1.224 3.432-.204-1.041-.441-2.2-.671-3.528-.224-1.291-.411-2.453-.592-3.459Zm10.93-5.293a1.25 1.25 0 0 1 .398.093c.115.049.235.12.31.167.185.112.448.287.751.493.614.418 1.453 1.01 2.294 1.608.843.6 1.694 1.212 2.333 1.673l.775.56.03.022h11.947l.743-.542c.64-.465 1.49-1.083 2.333-1.688.84-.604 1.68-1.201 2.293-1.623.303-.209.567-.385.75-.5.076-.046.195-.117.307-.166a1.216 1.216 0 0 1 .393-.096c.083-.005.27-.008.484.076.258.102.492.306.6.591.092.239.06.44.038.531-.041.175-.127.297-.145.322-.75 1.078-.836 2.017-.763 2.664.037.33.117.593.184.767.034.087.065.15.083.187l.017.034a.903.903 0 0 1-.318 1.252.995.995 0 0 1-.587.191h-24.83a.995.995 0 0 1-.59-.194.902.902 0 0 1-.314-1.25l.018-.033a3.127 3.127 0 0 0 .266-.954c.072-.646-.013-1.586-.763-2.664-.018-.026-.104-.147-.145-.322a.908.908 0 0 1 .035-.527c.106-.28.333-.485.588-.59.213-.087.4-.086.485-.082Zm1.89 3.497c.014.294.003.572-.026.828-.012.1-.028.198-.044.291h1.636c-.325-.233-.662-.477-.998-.717l-.569-.402Zm21.327.423c-.324.233-.648.47-.963.696h1.597a4.981 4.981 0 0 1-.044-.29 5.14 5.14 0 0 1-.026-.81l-.564.404ZM78 33.445c-8.923 0-16.676 5.636-19.196 15.485.223-.023.468-.056.738-.102 1.964-.337 5.197-1.361 10.057-4.185l.317-.181c6.691-3.694 14.227-1.828 19.924.804 2.92 1.348 5.426 2.928 7.2 4.169.115.08.225.16.334.236-2.314-10.306-10.23-16.226-19.374-16.226Z"/><path fill="url(#c)" fill-rule="evenodd" d="M76.397 15.34c-1.012-1.041-2.627-1.155-3.82-.34l-7.77-8.008a.352.352 0 0 0-.498 0 .352.352 0 0 0-.015.498l7.742 7.978c-1.082 1.175-1.096 2.978-.001 4.106 1.135 1.17 3.032 1.17 4.236.001 1.205-1.169 1.26-3.064.126-4.234Zm-.513.499c.868.894.825 2.344-.096 3.238-.921.894-2.372.893-3.24-.001-.868-.895-.825-2.345.096-3.238.921-.894 2.372-.894 3.24 0Z" clip-rule="evenodd"/><path stroke="url(#d)" stroke-linecap="round" stroke-width="2" d="M55 31h5"/><path stroke="url(#e)" stroke-linecap="round" stroke-width="2" d="M27 104h2.534"/><path stroke="url(#f)" stroke-linecap="round" stroke-width="2" d="M102 26h1.013"/><path stroke="url(#g)" stroke-linecap="round" stroke-width="2" d="M36 74h3.04"/><path stroke="url(#h)" stroke-linecap="round" stroke-width="2" d="M107 77h2"/><path stroke="url(#i)" stroke-linecap="round" stroke-width="2" d="M125 89h3.04"/><circle cx="116" cy="54" r="1.75" fill="#fff" stroke="url(#j)" stroke-width=".5"/><rect width="45.555" height="41.031" y="26" fill="#fff" rx="8.062"/><path fill="url(#k)" d="M42.02 30.036a3.63 3.63 0 0 1 3.443 3.625v6.237a.995.995 0 0 1 0 .834V59.37l-.005.186a3.63 3.63 0 0 1-3.438 3.439l-.187.005H3.723l-.188-.005A3.63 3.63 0 0 1 .093 59.37V40.732a.995.995 0 0 1 0-.835v-6.236a3.63 3.63 0 0 1 3.442-3.625l.188-.005h38.11l.187.005ZM2.093 59.37c0 .9.73 1.63 1.63 1.63h38.11c.9 0 1.63-.73 1.63-1.63V41.315H2.093V59.37ZM24.868 44c.238-.007.687.238.85.47.326.455.36.313-1.598 6.698-.992 3.248-1.863 6-1.925 6.119-.17.299-.652.524-1.026.49-.524-.054-.959-.524-.959-1.027.003-.295 3.482-11.785 3.692-12.186.116-.224.368-.421.654-.503.095-.034.238-.061.312-.061Zm3.876 2.271c.15.034.721.558 2.067 1.89 1.02 1.02 1.945 1.972 2.054 2.115.157.21.197.34.197.599 0 .183-.04.414-.095.516-.055.102-1 1.076-2.095 2.17-2.142 2.135-2.155 2.142-2.74 2.033-.313-.06-.68-.421-.782-.775-.177-.564-.095-.687 1.605-2.394l1.523-1.53-1.502-1.496c-1.455-1.448-1.694-1.74-1.694-2.1 0-.483.374-.953.843-1.062.116-.027.26-.04.314-.034.054.014.197.041.305.068Zm-11.35 0c.259-.095.627-.074.844.034.218.116.49.476.544.721.13.564.048.68-1.604 2.339l-1.524 1.53 1.469 1.462c.802.802 1.515 1.55 1.57 1.666.157.286.143.775-.02 1.06-.252.43-.83.64-1.299.47-.235-.092-4.154-3.976-4.25-4.215-.095-.252-.081-.707.041-.925.054-.109.966-1.061 2.026-2.122 1.462-1.455 2-1.945 2.204-2.02ZM3.724 32.031c-.9 0-1.63.73-1.63 1.63v5.654h41.37v-5.654c0-.9-.73-1.63-1.63-1.63H3.723Zm2.419 3.747H4.629v-1.512h1.513v1.512Zm3.025 0H7.654v-1.512h1.513v1.512Zm3.024 0H10.68v-1.512h1.512v1.512Z"/><path fill="url(#l)" fill-rule="evenodd" d="M126.893 107.148c.44.644 1.284.852 1.989.53l3.377 4.946a.19.19 0 0 0 .264.046.19.19 0 0 0 .053-.262l-3.365-4.928c.68-.523.853-1.475.377-2.172-.494-.722-1.497-.896-2.241-.388s-.947 1.505-.454 2.228Zm.317-.216c-.377-.553-.222-1.316.347-1.704.569-.389 1.337-.256 1.714.297.377.552.222 1.315-.347 1.704-.569.388-1.336.255-1.714-.297Z" clip-rule="evenodd"/><defs><linearGradient id="a" x1="77.527" x2="77.527" y1="1" y2="115.228" gradientUnits="userSpaceOnUse"><stop stop-color="#5A92EB"/><stop offset=".245" stop-color="#5892EE"/><stop offset=".505" stop-color="#DE7AF6"/><stop offset=".745" stop-color="#FF5DB5"/><stop offset="1" stop-color="#FF008A"/></linearGradient><linearGradient id="b" x1="52.545" x2="103.861" y1="72.667" y2="72.667" gradientUnits="userSpaceOnUse"><stop stop-color="#0287DF"/><stop offset="1" stop-color="#FE37A3"/></linearGradient><linearGradient id="c" x1="75.018" x2="62.915" y1="20.672" y2="8.2" gradientUnits="userSpaceOnUse"><stop stop-color="#5A92EB"/><stop offset="1" stop-color="#FE37A3"/></linearGradient><linearGradient id="d" x1="55.025" x2="60.03" y1="31.774" y2="31.774" gradientUnits="userSpaceOnUse"><stop stop-color="#5A92EB"/><stop offset="1" stop-color="#FE37A3"/></linearGradient><linearGradient id="e" x1="27.012" x2="29.549" y1="104.774" y2="104.774" gradientUnits="userSpaceOnUse"><stop stop-color="#5A92EB"/><stop offset="1" stop-color="#FE37A3"/></linearGradient><linearGradient id="f" x1="102.005" x2="103.02" y1="26.774" y2="26.774" gradientUnits="userSpaceOnUse"><stop stop-color="#5A92EB"/><stop offset="1" stop-color="#FE37A3"/></linearGradient><linearGradient id="g" x1="36.015" x2="39.059" y1="74.774" y2="74.774" gradientUnits="userSpaceOnUse"><stop stop-color="#5A92EB"/><stop offset="1" stop-color="#FE37A3"/></linearGradient><linearGradient id="h" x1="107.01" x2="109.012" y1="77.774" y2="77.774" gradientUnits="userSpaceOnUse"><stop stop-color="#5A92EB"/><stop offset="1" stop-color="#FE37A3"/></linearGradient><linearGradient id="i" x1="125.015" x2="128.059" y1="89.774" y2="89.774" gradientUnits="userSpaceOnUse"><stop stop-color="#5A92EB"/><stop offset="1" stop-color="#FE37A3"/></linearGradient><linearGradient id="j" x1="114.02" x2="118.024" y1="55.094" y2="55.094" gradientUnits="userSpaceOnUse"><stop stop-color="#5A92EB"/><stop offset="1" stop-color="#FE37A3"/></linearGradient><linearGradient id="k" x1=".224" x2="45.826" y1="55.535" y2="55.535" gradientUnits="userSpaceOnUse"><stop stop-color="#5A92EB"/><stop offset="1" stop-color="#FE37A3"/></linearGradient><linearGradient id="l" x1="128.11" x2="133.37" y1="104.454" y2="112.159" gradientUnits="userSpaceOnUse"><stop stop-color="#5A92EB"/><stop offset="1" stop-color="#FE37A3"/></linearGradient></defs></svg>