<svg xmlns="http://www.w3.org/2000/svg" width="32" height="33" fill="none"><path fill="#EE513B" d="M1.627 18.498a2.141 2.141 0 0 1 0-3.028L14.486 2.612a2.141 2.141 0 0 1 3.028 0L30.373 15.47a2.141 2.141 0 0 1 0 3.028l-12.859 12.86a2.141 2.141 0 0 1-3.028 0L1.627 18.497Z"/><path fill="#fff" d="M11.392 4.984 10 6.325l3.595 3.464c-.146.3-.227.636-.227.99 0 1.003.655 1.86 1.575 2.194v8.472c-.92.335-1.575 1.191-1.575 2.195 0 1.295 1.09 2.344 2.434 2.344s2.434-1.05 2.434-2.344c0-.91-.538-1.7-1.325-2.088v-8.568l3.437 3.31a2.263 2.263 0 0 0-.215.967c0 1.294 1.09 2.344 2.433 2.344 1.344 0 2.434-1.05 2.434-2.344 0-1.295-1.09-2.345-2.434-2.345-.26 0-.513.04-.748.113l-3.691-3.556c.07-.22.109-.453.109-.695 0-1.295-1.09-2.345-2.434-2.345-.251 0-.493.037-.721.105l-3.69-3.554Z"/></svg>