<svg xmlns="http://www.w3.org/2000/svg" width="147" height="134" fill="none"><path stroke="url(#a)" stroke-width="2" d="M124.578 115.228C179.307 115.228 115.929 1 81.505 1s-101.856 114.228-43.58 114.228"/><rect width="52.702" height="52.702" y="17" fill="#fff" rx="20"/><path stroke="url(#b)" stroke-linecap="round" stroke-linejoin="round" stroke-width="2" d="M35.751 25.83c-2.301 2.33-6.672 1.688-6.672 1.688s-.634-4.42 1.67-6.751c2.301-2.328 6.672-1.686 6.672-1.686s.634 4.419-1.67 6.75ZM12 44.93c0 7.054 4.666 15.157 9.39 16.871 1.637.593 3.33-.226 4.737-1.247 1.067-.774 2.359-1.511 3.404-1.511 1.042 0 2.338.737 3.402 1.511 1.407 1.021 3.1 1.84 4.74 1.247 3.355-1.217 6.682-5.661 8.327-10.664-3.188-.925-5.512-3.84-5.512-7.295 0-3.165 1.953-5.878 4.73-7.02-1.79-3.216-4.713-4.921-8.018-4.921-1.708 0-3.28.696-4.547 1.533-2.027 1.333-4.218 1.333-6.243 0-1.269-.837-2.84-1.533-4.548-1.533C16.414 31.9 12 36.533 12 44.929Z"/><path fill="url(#c)" d="M80.999 30.445c11.958 0 21.79 8.764 22.943 22.835.037 0 .075.003.113.011 1.234.251 2.846 4.827 1.983 9.086l-.088.396c-.958 4.056-3.738 7.006-4.934 6.763l-.11-.033c-.198-.082-.33-.268-.406-.544-1.822 3.292-4.182 6.227-6.675 8.65.01.048.018.098.023.149l.867 8.326c2.492-1.153 5.38-.872 8.178.226 3.602 1.413 7.357 4.266 10.734 7.796 3.393 3.545 6.488 7.862 8.743 12.318 2.246 4.439 3.708 9.12 3.709 13.373 0 2.739-1.893 4.871-4.42 6.473-2.564 1.624-6.125 2.937-10.253 3.977-8.279 2.086-19.24 3.171-30.146 3.235-10.903.063-21.869-.892-30.156-2.948-4.132-1.025-7.702-2.348-10.274-4.025-2.557-1.667-4.405-3.881-4.405-6.712 0-8.922 5.732-19.115 12.464-25.99 3.384-3.455 7.143-6.201 10.746-7.542 2.829-1.053 5.733-1.286 8.23-.115l1.214-7.918c-2.86-2.6-5.602-5.854-7.648-9.546-.058.454-.218.734-.52.787-1.241.215-4.403-3.46-5.146-7.74l-.062-.4c-.582-4.128.936-7.89 2.138-8.1l.115-.01a.54.54 0 0 1 .102.013c1.17-14.046 10.995-22.79 22.94-22.79ZM59.105 89.764c-2.111 1.044-4.338 2.635-6.517 4.638.444.775 1.079 1.585 1.887 2.563 1.05 1.27 2.348 2.773 3.523 4.63 2.356 3.726 4.18 8.801 3.506 16.835 1.634 2.62 4.24 3.945 6.97 5.61 1.362.831 2.788 1.78 3.858 3.064a7.54 7.54 0 0 1 1.61 3.26c2.41.091 4.853.132 7.3.118a169.58 169.58 0 0 0 7.341-.205 7.55 7.55 0 0 1 1.591-3.173c1.07-1.284 2.496-2.233 3.859-3.064 2.73-1.664 5.334-2.99 6.967-5.61-.674-8.019 1.057-13.087 3.323-16.813 1.131-1.859 2.383-3.361 3.405-4.635.803-1 1.435-1.83 1.877-2.628-2.108-1.951-4.255-3.514-6.289-4.559a59.444 59.444 0 0 1-6.244 5.939c-4.001 3.269-9.4 6.69-14.864 7.014v17.811l-.004.102a1.001 1.001 0 0 1-1.99 0l-.005-.102v-17.834c-5.355-.444-10.733-3.838-14.75-7.063a62.692 62.692 0 0 1-6.354-5.898Zm-8.702 6.8c-6.146 6.542-10.977 15.658-10.978 23.233 0 1.357.861 2.777 3.043 4.199 2.167 1.413 5.366 2.636 9.358 3.626.481.12.972.235 1.473.347-.214-3.348-.279-6.459-.867-9.293-.653-3.146-1.923-5.742-4.674-7.579a1.001 1.001 0 0 1 1.112-1.663c3.329 2.224 4.802 5.371 5.521 8.835.65 3.136.709 6.711.943 10.123 4.61.896 9.885 1.502 15.427 1.822a4.68 4.68 0 0 0-.734-1.19c-.727-.873-1.776-1.605-3.116-2.422-2.55-1.555-6.16-3.358-8.25-7.087l-.23-.408.045-.467c.73-7.671-.972-12.212-3.015-15.442-1.048-1.658-2.199-2.993-3.297-4.32-.613-.742-1.23-1.507-1.761-2.314Zm61.388-.032c-.522.811-1.124 1.581-1.723 2.328-1.064 1.325-2.174 2.66-3.182 4.316-1.964 3.229-3.587 7.778-2.856 15.464l.044.467-.23.408c-2.09 3.729-5.7 5.532-8.25 7.087-1.34.817-2.388 1.549-3.115 2.422-.27.323-.5.673-.68 1.064 5.628-.39 10.981-1.065 15.639-2.017.222-3.349.292-6.844.93-9.917.718-3.463 2.191-6.611 5.52-8.835a1.001 1.001 0 0 1 1.112 1.664c-2.75 1.837-4.021 4.432-4.674 7.579-.575 2.77-.65 5.803-.854 9.065.407-.094.807-.19 1.2-.289 3.996-1.007 7.205-2.225 9.38-3.603 2.211-1.4 3.027-2.743 3.027-3.938-.001-3.616-1.262-7.82-3.386-12.019-2.043-4.037-4.837-7.973-7.902-11.246Zm-10.416-7.585c-2.838-1.011-5.08-.75-6.693.733-4.665 4.284-8.95 6.618-13.442 6.582-4.478-.036-8.751-2.427-13.4-6.567-1.633-1.453-3.908-1.725-6.761-.757.166.172.343.359.536.553a60.745 60.745 0 0 0 5.096 4.612c4.23 3.396 9.585 6.623 14.551 6.671l.473-.005c4.895-.149 10.019-3.273 14.071-6.584a57.51 57.51 0 0 0 5.023-4.655c.197-.205.378-.401.546-.583Zm-17.569-4.675c-.966.323-1.845.496-2.597.496l-.317-.01c-.652-.038-1.39-.194-2.193-.453v8.601a10.29 10.29 0 0 0 2.565.356c.831.007 1.675-.095 2.542-.312v-8.678Zm7.264-4.234c-1.484 1.185-2.963 2.175-4.36 2.938.061.163.096.338.096.522v8.278c1.586-.831 3.27-2.031 5.107-3.644l-.843-8.094ZM70.6 88.12c1.832 1.565 3.515 2.75 5.099 3.585v-8.206c0-.16.025-.316.072-.46a30.481 30.481 0 0 1-4-2.575l-1.172 7.656ZM92 47.081c-5.614-2.593-12.498-4.137-18.397-.709-5.002 2.907-8.462 4.04-10.725 4.428-.58.1-1.082.148-1.511.167a30.013 30.013 0 0 0-.425 5.116c0 6.8 3.641 13.266 8.328 18.154 2.32 2.42 4.807 4.356 7.043 5.67 2.336 1.372 4.052 1.86 4.895 1.86.837 0 2.521-.483 4.812-1.85 2.192-1.308 4.627-3.24 6.895-5.657 4.579-4.879 8.141-11.351 8.141-18.177 0-1.23-.071-2.417-.203-3.56a43.763 43.763 0 0 0-1.959-1.449c-1.71-1.194-4.112-2.708-6.894-3.993Zm-7.49 25.814a1 1 0 0 1 .581 1.914l-3.338 1.014-.274.084-.277-.075-3.757-1.014-.098-.033a1 1 0 0 1 .52-1.92l.1.02 3.479.942 3.063-.932Zm19.674-14.56c-.188 1.044-.388 2.21-.656 3.531-.261 1.284-.508 2.434-.705 3.437a11.326 11.326 0 0 0 1.255-3.325c.247-1.22.251-2.493.106-3.644Zm-46.488-.5a11.324 11.324 0 0 0 .039 3.555c.212 1.226.67 2.413 1.224 3.432-.204-1.041-.441-2.2-.671-3.528-.224-1.291-.411-2.452-.592-3.459Zm36.587-5.292a1.14 1.14 0 0 1 .484.076c.258.102.492.306.6.591.092.239.06.44.039.531-.041.176-.129.297-.146.322-.75 1.078-.835 2.017-.762 2.664.037.33.117.593.184.767a2.132 2.132 0 0 0 .1.221c.265.446.12.99-.323 1.255a.994.994 0 0 1-.583.188h-24.83a.994.994 0 0 1-.588-.192.902.902 0 0 1-.315-1.252l.017-.033a3.116 3.116 0 0 0 .267-.954c.072-.646-.014-1.586-.764-2.664-.018-.026-.104-.148-.145-.323a.907.907 0 0 1 .036-.526c.106-.28.332-.485.587-.59a1.138 1.138 0 0 1 .885.01c.114.048.233.12.309.167.184.112.447.287.75.494.614.418 1.453 1.009 2.294 1.608a457.062 457.062 0 0 1 3.108 2.233l.031.022h11.945l.744-.543c.64-.465 1.49-1.082 2.333-1.687.84-.604 1.68-1.202 2.293-1.624.304-.209.568-.385.752-.498.075-.047.193-.118.305-.167a1.21 1.21 0 0 1 .393-.096ZM70.515 56.04c.015.295.004.572-.025.828-.012.101-.028.198-.044.291h1.638l-1-.717-.569-.402Zm21.328.422c-.324.233-.648.47-.963.697h1.597a5.018 5.018 0 0 1-.044-.29 5.127 5.127 0 0 1-.026-.81l-.564.403ZM81 33.445c-8.923 0-16.676 5.636-19.196 15.485.223-.023.468-.056.738-.102 1.964-.337 5.197-1.361 10.057-4.185 6.77-3.934 14.454-2.05 20.241.623 2.92 1.348 5.426 2.928 7.201 4.169.114.08.224.16.333.236-2.314-10.306-10.23-16.226-19.374-16.226Z"/><path fill="url(#d)" fill-rule="evenodd" d="M31.892 88.829c-1.59 0-2.91 1.244-3.18 2.882h-12.21c-.21 0-.38.185-.38.412 0 .227.17.412.38.412h12.166c.098 1.837 1.504 3.294 3.224 3.294 1.784 0 3.23-1.567 3.23-3.5s-1.447-3.5-3.23-3.5Zm0 .823c1.364 0 2.47 1.199 2.47 2.677s-1.106 2.676-2.47 2.676c-1.365 0-2.47-1.198-2.47-2.676 0-1.478 1.105-2.677 2.47-2.677Z" clip-rule="evenodd"/><path stroke="url(#e)" stroke-linecap="round" stroke-width="2" d="M83.875 14.113h8.615"/><path stroke="url(#f)" stroke-linecap="round" stroke-width="2" d="M114.5 38.59h2.534"/><path stroke="url(#g)" stroke-linecap="round" stroke-width="2" d="M106.336 75.629h1.013"/><path stroke="url(#h)" stroke-linecap="round" stroke-width="2" d="M56.675 22.83h3.04"/><path stroke="url(#i)" stroke-linecap="round" stroke-width="2" d="M123.058 64.968h4.561"/><path stroke="url(#j)" stroke-linecap="round" stroke-width="2" d="M130.659 99.49h3.041"/><path fill="#fff" stroke="url(#k)" d="M70.103 1.5a2.797 2.797 0 0 1 2.794 2.8c0 1.547-1.251 2.8-2.794 2.8a2.797 2.797 0 0 1-2.793-2.8c0-1.547 1.251-2.8 2.793-2.8Z"/><circle cx="136.983" cy="111.983" r="2.483" fill="#fff" stroke="url(#l)"/><defs><linearGradient id="a" x1="80.527" x2="80.527" y1="1" y2="115.228" gradientUnits="userSpaceOnUse"><stop stop-color="#5A92EB"/><stop offset=".245" stop-color="#5892EE"/><stop offset=".505" stop-color="#DE7AF6"/><stop offset=".745" stop-color="#FF5DB5"/><stop offset="1" stop-color="#FF008A"/></linearGradient><linearGradient id="b" x1="12.168" x2="46.203" y1="52.264" y2="52.264" gradientUnits="userSpaceOnUse"><stop stop-color="#5A92EB"/><stop offset="1" stop-color="#FE37A3"/></linearGradient><linearGradient id="c" x1="55.545" x2="106.861" y1="72.667" y2="72.667" gradientUnits="userSpaceOnUse"><stop stop-color="#0287DF"/><stop offset="1" stop-color="#FE37A3"/></linearGradient><linearGradient id="d" x1="35.028" x2="16.008" y1="94.244" y2="94.244" gradientUnits="userSpaceOnUse"><stop stop-color="#5A92EB"/><stop offset="1" stop-color="#FE37A3"/></linearGradient><linearGradient id="e" x1="83.917" x2="92.541" y1="14.886" y2="14.886" gradientUnits="userSpaceOnUse"><stop stop-color="#5A92EB"/><stop offset="1" stop-color="#FE37A3"/></linearGradient><linearGradient id="f" x1="114.512" x2="117.049" y1="39.363" y2="39.363" gradientUnits="userSpaceOnUse"><stop stop-color="#5A92EB"/><stop offset="1" stop-color="#FE37A3"/></linearGradient><linearGradient id="g" x1="106.341" x2="107.355" y1="76.403" y2="76.403" gradientUnits="userSpaceOnUse"><stop stop-color="#5A92EB"/><stop offset="1" stop-color="#FE37A3"/></linearGradient><linearGradient id="h" x1="56.69" x2="59.733" y1="23.604" y2="23.604" gradientUnits="userSpaceOnUse"><stop stop-color="#5A92EB"/><stop offset="1" stop-color="#FE37A3"/></linearGradient><linearGradient id="i" x1="123.081" x2="127.646" y1="65.741" y2="65.741" gradientUnits="userSpaceOnUse"><stop stop-color="#5A92EB"/><stop offset="1" stop-color="#FE37A3"/></linearGradient><linearGradient id="j" x1="130.674" x2="133.718" y1="100.264" y2="100.264" gradientUnits="userSpaceOnUse"><stop stop-color="#5A92EB"/><stop offset="1" stop-color="#FE37A3"/></linearGradient><linearGradient id="k" x1="66.842" x2="73.436" y1="6.106" y2="6.106" gradientUnits="userSpaceOnUse"><stop stop-color="#5A92EB"/><stop offset="1" stop-color="#FE37A3"/></linearGradient><linearGradient id="l" x1="134.029" x2="140.001" y1="113.615" y2="113.615" gradientUnits="userSpaceOnUse"><stop stop-color="#5A92EB"/><stop offset="1" stop-color="#FE37A3"/></linearGradient></defs></svg>