<svg xmlns="http://www.w3.org/2000/svg" width="289" height="118" fill="none"><path fill="#FBFBFB" d="M137.599 117.933V50.701h11.452v24.336c3.159-4.349 7.996-7.808 15.203-7.808 13.228 0 20.336 8.698 20.336 22.041v27.94h-11.452V89.764c0-6.325-3.455-12.948-11.945-12.948-7.7 0-11.945 7.216-12.142 13.146v27.971h-11.452ZM188.457 95.935V67.328h11.44V95.64c0 5.722 2.268 12.726 10.947 12.726 9.468 0 12.919-8.484 13.117-14.008V67.328h11.44l.046 49.882h-8.667l-2.03-7.76c-3.156 4.833-8.285 8.483-16.372 8.483-13.018 0-19.921-8.089-19.921-21.998ZM250.827 92.154c0 9.312 4.07 16.271 12.209 16.271 7.741 0 12.605-6.665 12.605-16.27 0-9.705-4.665-16.272-12.605-16.272-8.139 0-12.209 8.136-12.209 16.271Zm-11.513 25.056V50.7h11.513v23.32c3.176-4.606 7.941-7.645 14.491-7.645 13.797 0 22.432 10.684 22.432 25.78 0 15.094-9.131 25.778-22.432 25.778-7.047 0-12.109-3.43-15.285-8.625l-1.998 7.902h-8.721Z"/><path stroke="#FBFBFB" stroke-linecap="round" stroke-linejoin="round" stroke-width="3.867" d="m129.534 116-9.208-29.23c16.461-24.056 10.1-55.096-14.876-72.608-24.976-17.505-60.846-16.07-83.902 3.36-23.057 19.436-26.173 50.855-7.29 73.497 18.885 22.642 53.94 29.501 81.984 16.048L129.534 116Z"/><path fill="#FBFBFB" d="M14.434 77.746c-2.146 0-4.167-.282-6.06-.845-1.895-.563-3.441-1.439-4.64-2.628-1.2-1.188-1.8-2.69-1.8-4.504 0-1.377.41-2.722 1.23-4.036.885-1.314 2.116-1.971 3.694-1.971.695 0 1.326.157 1.894.47.568.312.947.719 1.137 1.22-.064.062-.221.28-.474.656-.252.313-.41.532-.473.657-.569 1.126-.853 2.159-.853 3.097 0 1.314.474 2.378 1.42 3.191 1.01.814 2.305 1.22 3.883 1.22 2.084-.062 3.883-.782 5.398-2.158 1.579-1.44 2.368-3.129 2.368-5.068 0-1.126-.253-2.19-.758-3.191a13.212 13.212 0 0 0-3.314-4.317 221.672 221.672 0 0 1-3.883-3.754c-1.2-1.252-2.083-2.753-2.651-4.505-.253-.813-.38-1.815-.38-3.003 0-1.19.159-2.347.474-3.473.316-1.189.79-2.19 1.42-3.003.885-1.189 2.21-2.284 3.978-3.285 2.21-1.189 4.798-1.783 7.765-1.783 1.958 0 3.694.25 5.209.75a6.951 6.951 0 0 1 2.936 1.878c.883.813 1.325 1.908 1.325 3.285 0 1.564-.505 3.065-1.515 4.504-.947 1.377-2.336 2.221-4.166 2.534-1.137.126-2.147-.062-3.03-.563-.885-.563-1.2-1.595-.948-3.097 1.705-.375 2.936-1.063 3.693-2.065.38-.563.569-1.126.569-1.689 0-1.064-.442-1.783-1.326-2.158-.821-.438-1.61-.657-2.368-.657-.947 0-1.862.125-2.746.375a6.225 6.225 0 0 0-2.273 1.032c-1.389 1.19-2.083 2.566-2.083 4.13 0 .25.031.532.095.845.126.312.22.625.284.938.315.813.789 1.564 1.42 2.252a16.509 16.509 0 0 0 1.894 1.784 109.838 109.838 0 0 1 4.83 3.66c1.704 1.314 2.967 2.91 3.788 4.786.631 1.314.947 2.66.947 4.036 0 1.877-.474 3.597-1.42 5.162-.948 1.501-2.021 2.69-3.22 3.566 2.083-.876 4.103-2.409 6.06-4.599 2.02-2.252 3.757-4.473 5.209-6.663.947-1.44 1.799-2.784 2.557-4.036a66.327 66.327 0 0 0 2.462-4.317c.252-.438.473-.657.663-.657.378 0 .568.532.568 1.596 0 .438-.095.97-.284 1.595a7.422 7.422 0 0 1-.663 1.877 546.459 546.459 0 0 1-3.22 5.256c-1.01 1.564-2.241 3.285-3.693 5.161-2.904 3.817-5.998 6.539-9.28 8.166-3.284 1.564-7.166 2.346-11.649 2.346Z"/><path fill="#FBFBFB" d="M67.46 76.432c-1.958 0-3.315-.75-4.073-2.252-.694-1.502-1.041-3.348-1.041-5.538 0-2.002.189-3.973.568-5.912l.568-2.628c.252-.939.537-1.908.852-2.91a83.642 83.642 0 0 1-3.409 5.632c-1.136 1.814-2.304 3.41-3.504 4.786-2.02 2.44-4.167 4.474-6.44 6.1-2.209 1.627-4.419 2.44-6.628 2.44-1.768 0-3.283-.625-4.546-1.877-1.2-1.314-1.8-3.566-1.8-6.757 0-3.253.569-6.6 1.705-10.042a37.678 37.678 0 0 1 4.735-9.573c2.084-3.003 4.514-5.412 7.292-7.226 2.841-1.815 5.935-2.722 9.28-2.722 1.074 0 2.242.156 3.505.47 1.262.312 2.43.907 3.504 1.782 1.073.814 1.799 1.971 2.178 3.473a1.09 1.09 0 0 1 .19-.282 1.1 1.1 0 0 0 .283-.187c.884-1.377 1.894-2.534 3.03-3.473 1.137-.938 2.4-1.408 3.789-1.408.694 0 1.673.032 2.935.094 1.263.063 2.178.063 2.746 0-.315.25-.757.751-1.325 1.502-.505.75-.979 1.533-1.42 2.346-.443.75-.79 1.345-1.042 1.783a148.824 148.824 0 0 0-4.64 9.667c-1.39 3.19-2.463 6.257-3.22 9.197-.19.626-.316 1.22-.38 1.784-.063.5-.094 1-.094 1.501 0 1.627.537 2.44 1.61 2.44 1.01 0 2.273-.625 3.788-1.877 2.21-1.752 4.135-3.941 5.777-6.57 1.704-2.627 3.188-5.161 4.45-7.601.253-.438.474-.657.663-.657.38 0 .569.532.569 1.595 0 .5-.095 1.064-.285 1.69a6.088 6.088 0 0 1-.662 1.783c-.884 1.501-2.052 3.347-3.504 5.537a62.649 62.649 0 0 1-4.735 6.476c-1.768 2.064-3.63 3.816-5.588 5.255-1.894 1.44-3.788 2.159-5.682 2.159Zm-18.846-8.165c.19.063.474.094.852.094 1.2 0 2.494-.5 3.883-1.502 1.39-1.001 2.778-2.284 4.167-3.848a49.634 49.634 0 0 0 3.693-4.88c2.778-4.38 4.83-7.664 6.156-9.854l2.273-3.754c-.316-1.064-.884-1.846-1.705-2.347-.758-.5-1.673-.75-2.746-.75-1.39 0-2.873.375-4.451 1.126-1.515.75-2.81 1.658-3.883 2.721-1.641 1.627-3.22 3.723-4.735 6.288-1.452 2.566-2.652 5.1-3.599 7.602-.883 2.503-1.325 4.599-1.325 6.288 0 1.565.473 2.503 1.42 2.816Z"/><path fill="#FBFBFB" d="M86.462 94.733c-1.579 0-3.252-.25-5.02-.75-1.704-.439-3.125-1.221-4.261-2.347-1.2-1.126-1.8-2.628-1.8-4.505 0-1.314.411-2.534 1.232-3.66.82-1.126 1.957-1.69 3.409-1.69.884 0 1.704.22 2.462.657.758.501 1.263 1.095 1.515 1.784-.126.062-.315.25-.568.563-.252.313-.41.532-.473.657a5.971 5.971 0 0 0-.663 2.721c0 1.19.41 2.128 1.23 2.816.885.75 1.99 1.126 3.315 1.126 1.705 0 3.473-.626 5.303-1.877 2.02-1.439 3.6-3.316 4.736-5.631 1.199-2.252 2.146-4.286 2.84-6.1l5.398-14.266a185.445 185.445 0 0 1-3.598 4.224c-1.2 1.376-1.957 2.22-2.273 2.534-2.4 2.377-4.546 3.879-6.44 4.504-1.894.626-3.567.939-5.019.939-1.515 0-2.81-.657-3.882-1.97-1.01-1.315-1.516-3.223-1.516-5.726 0-1.251.19-2.847.569-4.786.378-1.94.915-4.005 1.61-6.194a73.714 73.714 0 0 1 2.367-6.57c.947-2.19 1.957-4.13 3.03-5.819 1.642-2.565 3.473-4.223 5.493-4.974 2.02-.75 4.577-1.126 7.671-1.126.252 0 .378.125.378.375s-.189.563-.568.939c-.884.75-1.957 2.064-3.22 3.942a70.324 70.324 0 0 0-3.693 6.194c-1.136 2.252-2.083 4.41-2.84 6.476-.506 1.439-1.011 3.128-1.516 5.067-.442 1.94-.663 3.63-.663 5.068 0 1.001.126 1.815.379 2.44.316.564.789.845 1.42.845 1.01 0 2.4-.75 4.167-2.252 2.652-2.19 5.051-4.88 7.197-8.072a63.968 63.968 0 0 0 5.493-9.948c.884-2.002 1.61-3.691 2.178-5.068.568-1.439 1.2-2.596 1.894-3.472.694-.876 1.673-1.502 2.936-1.877 1.262-.438 2.967-.657 5.113-.657h3.883c-1.199.75-2.399 2.158-3.598 4.223-1.2 2.002-2.336 4.38-3.41 7.133a216.062 216.062 0 0 0-2.557 6.57 508.417 508.417 0 0 1-2.556 7.226c-.758 2.252-1.579 4.724-2.463 7.414a81.118 81.118 0 0 1-3.03 7.696c-1.136 2.565-2.462 4.786-3.977 6.663-2.147 2.628-4.767 4.693-7.86 6.195-3.094 1.564-6.345 2.346-9.754 2.346Z"/></svg>