<svg xmlns="http://www.w3.org/2000/svg" width="64" height="64" fill="none"><g clip-path="url(#a)"><path fill="url(#b)" d="M30.625.2c-1.863.5-3.512 2.262-3.813 4.063-.075.437-.125.5-.6.612-2.787.688-5.024 1.487-5.362 1.888-.325.387-.288 1.062.087 1.425.4.4.726.387 1.888-.063C23.9 7.687 26.288 7 26.675 7c.2 0 .375.213.675.8.525 1.013 1.412 1.85 2.5 2.362.787.375.925.4 2.212.4 1.313 0 1.425-.024 2.238-.425 1.063-.524 2.025-1.475 2.5-2.475l.363-.762.762.175c.413.1 1.625.475 2.675.825 1.8.625 1.925.65 2.25.475.8-.463.825-1.3.063-1.825-.45-.3-3.45-1.325-4.6-1.563-.938-.187-1.013-.25-1.113-.837-.125-.788-.788-1.95-1.488-2.625C34.288.188 32.462-.288 30.625.2Zm2.825 2.275c2.287 1.175 2.3 4.55.012 5.738-.612.312-1.85.362-2.537.1-2.262-.863-2.788-3.963-.913-5.45.963-.763 2.388-.925 3.438-.388Z"/><path fill="url(#c)" d="M14.363 10.637a25.543 25.543 0 0 0-3.5 3.475c-.813.963-.988 1.25-.988 1.6 0 .575.463 1.038 1.05 1.038.462 0 .375.075 2.162-1.938.55-.625 1.5-1.55 2.1-2.062 1.588-1.35 1.563-1.313 1.563-1.85 0-.625-.4-1.025-1.025-1.025-.35 0-.612.15-1.362.762Z"/><path fill="url(#d)" d="M47.563 10.188c-.2.2-.313.437-.313.712 0 .338.125.512.725 1.037.9.788 3.4 3.3 4.15 4.163.487.55.638.65 1.013.65.575 0 1.037-.462 1.037-1.05 0-.325-.162-.612-.7-1.275-.85-1.038-3.45-3.6-4.212-4.15-.688-.5-1.263-.525-1.7-.088Z"/><path fill="url(#e)" d="M18.6 19.375c-2.65 1.337-4.513 2.35-4.6 2.488-.075.162-.125 1.875-.125 4.8 0 4.287.012 4.575.238 4.85.137.174 1.937 1.15 4.25 2.3l4 1.987.037 4.15c.038 3.95.05 4.162.288 4.425.237.263 9.037 4.75 9.325 4.75.262 0 9.187-4.525 9.4-4.775.187-.225.212-.625.212-4.363v-4.112l4.125-2.063c2.375-1.187 4.163-2.162 4.237-2.3.088-.15.138-1.962.138-4.887.013-4.313 0-4.675-.212-4.9-.35-.388-8.863-4.6-9.3-4.6-.225 0-1.913.775-4.363 2-2.2 1.1-4.087 2-4.188 2-.1 0-1.987-.9-4.187-2-2.8-1.4-4.125-2-4.4-1.988-.275 0-1.925.763-4.875 2.238Zm7.962 1.462c1.613.813 2.938 1.5 2.938 1.538 0 .038-1.35.738-3 1.563l-3 1.5-3-1.5c-1.65-.825-3-1.525-3-1.563 0-.087 5.775-2.988 5.962-2.988.088-.012 1.488.65 3.1 1.45Zm17.088.05 3.038 1.513-2.938 1.488c-1.612.812-3.05 1.474-3.188 1.474-.137 0-1.575-.662-3.187-1.474L34.437 22.4l3-1.5c1.65-.837 3.038-1.512 3.1-1.512.05-.013 1.45.674 3.113 1.5Zm-21.275 9.45c0 1.676-.025 3.038-.063 3.038-.037 0-1.475-.7-3.187-1.563L16 30.25v-6.125l3.188 1.587 3.187 1.6v3.025ZM31 27.25v3l-3.125 1.563c-1.712.862-3.15 1.562-3.188 1.562-.037 0-.062-1.362-.062-3.038v-3.024l3.038-1.525c1.662-.838 3.1-1.526 3.187-1.526.112-.012.15.663.15 2.988Zm5.375-1.438 3.125 1.563v3c0 1.65-.025 3-.063 3-.037 0-1.474-.7-3.187-1.563l-3.125-1.562v-3c0-1.65.025-3 .063-3 .037 0 1.474.7 3.187 1.563ZM48 27.288v3.024l-3.063 1.538c-1.687.837-3.124 1.525-3.187 1.525-.075 0-.125-1.1-.125-3v-3l3.1-1.55c1.7-.863 3.125-1.563 3.188-1.563.05-.012.087 1.35.087 3.026Zm-12.938 9.424L32 38.25l-3.025-1.513-3.038-1.525L29 33.688l3.063-1.537 3.024 1.525 3.038 1.513-3.063 1.524ZM31 43.137c0 1.626-.038 2.975-.075 3.026-.05.037-1.475-.625-3.188-1.488l-3.112-1.55V37l3.188 1.587 3.187 1.6v2.95Zm8.5-3.1v3.026l-3.188 1.6-3.187 1.587v-6.125l3.1-1.55c1.7-.863 3.125-1.563 3.188-1.563.05-.012.087 1.35.087 3.026Z"/><path fill="url(#f)" d="M7.012 20.7c-.275.113-.462.325-.625.7-.362.875-1 2.85-1.3 4.1L4.8 26.663l-.65.162c-1.538.4-2.825 1.4-3.513 2.762-1.55 3.088.125 6.713 3.513 7.588l.65.163.287 1.162c.313 1.288.95 3.263 1.313 4.1.4.887 1.325 1.1 1.85.425.337-.425.325-.65-.2-2.087C7.587 39.638 7 37.575 7 37.25c0-.112.3-.313.687-.487 1.425-.613 2.663-2.3 2.925-3.975.35-2.213-.95-4.7-2.9-5.538-.412-.188-.712-.387-.712-.5 0-.325.587-2.387 1.05-3.688.525-1.437.537-1.662.2-2.087-.3-.4-.738-.488-1.238-.275Zm-.437 8.375c.65.225 1.387.925 1.687 1.6.313.688.313 1.963 0 2.637-.85 1.876-3.262 2.425-4.95 1.138-.212-.163-.55-.6-.75-.963-.525-.974-.512-2.037.013-3 .825-1.45 2.362-1.987 4-1.412Z"/><path fill="url(#g)" d="M56.162 20.688a1.074 1.074 0 0 0-.525.55c-.15.35-.125.5.338 1.724.275.75.625 1.826.775 2.413.137.587.287 1.163.325 1.275.05.163-.113.288-.625.538-3.425 1.612-4.113 6.212-1.325 8.725.35.325.95.725 1.325.9.512.25.675.374.625.537-.038.112-.188.688-.325 1.275-.15.587-.5 1.663-.775 2.413-.463 1.225-.488 1.375-.338 1.725.288.7 1.213.875 1.713.312.337-.363 1.087-2.425 1.562-4.275l.388-1.525.525-.087c1.425-.213 2.975-1.488 3.712-3.026.375-.787.4-.95.4-2.162s-.025-1.375-.4-2.163c-.737-1.537-2.287-2.812-3.712-3.024l-.525-.088-.388-1.525c-.475-1.85-1.225-3.912-1.562-4.275-.313-.35-.725-.425-1.188-.238Zm3.788 8.375c.612.25 1.312.95 1.625 1.625.75 1.6-.038 3.587-1.688 4.287-.55.225-1.85.225-2.412-.013-1.025-.425-1.825-1.512-1.938-2.612-.25-2.425 2.138-4.2 4.413-3.288Z"/><path fill="url(#h)" d="M10.187 47.563c-.537.524-.425 1 .45 2.075a25.543 25.543 0 0 0 3.475 3.5c1 .837 1.25.987 1.638.987.462 0 .875-.313 1.037-.775.125-.337-.137-.913-.537-1.212-.875-.638-2.425-2.1-3.263-3.05-1.612-1.85-1.6-1.838-2.062-1.838-.3 0-.538.1-.738.313Z"/><path fill="url(#i)" d="M52.063 47.962c-.813.938-3.163 3.288-4.088 4.1-.6.526-.725.7-.725 1.038 0 .563.475 1.025 1.05 1.025.563 0 1.75-.938 3.588-2.825 2.187-2.262 2.55-2.825 2.224-3.45-.224-.425-.5-.587-.987-.6-.362 0-.513.1-1.063.712Z"/><path fill="url(#j)" d="M30.438 53.587c-1.45.525-2.65 1.563-3.2 2.788-.213.475-.35.625-.55.625-.4 0-2.775-.688-3.863-1.125-1.162-.45-1.488-.462-1.887-.063-.375.363-.413 1.038-.088 1.425.287.35 2.188 1.063 4.188 1.575l1.637.413.2.737c.3 1.05.688 1.75 1.425 2.475 1.587 1.588 4.113 2 6.1.988 1.337-.675 2.6-2.287 2.8-3.575.1-.587.175-.65 1.112-.837 1.15-.238 4.15-1.263 4.6-1.563.763-.525.738-1.363-.062-1.825-.325-.175-.45-.15-2.25.475-1.05.35-2.263.725-2.675.825l-.762.175-.363-.763c-.475-1-1.438-1.95-2.5-2.475-.75-.375-.975-.425-2.037-.45-.913-.037-1.35.013-1.825.175Zm3.012 2.2c1.837.95 2.313 3.476.962 4.976-1.974 2.175-5.55.837-5.537-2.063.012-1.325.637-2.338 1.813-2.913.524-.25.762-.287 1.5-.25.487.026 1.05.138 1.262.25Z"/></g><defs><linearGradient id="b" x1="32.048" x2="32.048" y1=".013" y2="10.563" gradientUnits="userSpaceOnUse"><stop stop-color="#5D97EC"/><stop offset=".591" stop-color="#0287DF"/><stop offset="1" stop-color="#045E99"/></linearGradient><linearGradient id="c" x1="13.313" x2="13.313" y1="9.875" y2="16.75" gradientUnits="userSpaceOnUse"><stop stop-color="#5D97EC"/><stop offset=".591" stop-color="#0287DF"/><stop offset="1" stop-color="#045E99"/></linearGradient><linearGradient id="d" x1="50.712" x2="50.712" y1="9.878" y2="16.75" gradientUnits="userSpaceOnUse"><stop stop-color="#5D97EC"/><stop offset=".591" stop-color="#0287DF"/><stop offset="1" stop-color="#045E99"/></linearGradient><linearGradient id="e" x1="32.002" x2="32.002" y1="17.125" y2="49.125" gradientUnits="userSpaceOnUse"><stop stop-color="#5D97EC"/><stop offset=".591" stop-color="#0287DF"/><stop offset="1" stop-color="#045E99"/></linearGradient><linearGradient id="f" x1="5.362" x2="5.362" y1="20.588" y2="43.423" gradientUnits="userSpaceOnUse"><stop stop-color="#5D97EC"/><stop offset=".591" stop-color="#0287DF"/><stop offset="1" stop-color="#045E99"/></linearGradient><linearGradient id="g" x1="58.667" x2="58.667" y1="20.588" y2="43.41" gradientUnits="userSpaceOnUse"><stop stop-color="#5D97EC"/><stop offset=".591" stop-color="#0287DF"/><stop offset="1" stop-color="#045E99"/></linearGradient><linearGradient id="h" x1="13.34" x2="13.34" y1="47.25" y2="54.125" gradientUnits="userSpaceOnUse"><stop stop-color="#5D97EC"/><stop offset=".591" stop-color="#0287DF"/><stop offset="1" stop-color="#045E99"/></linearGradient><linearGradient id="i" x1="50.733" x2="50.733" y1="47.25" y2="54.125" gradientUnits="userSpaceOnUse"><stop stop-color="#5D97EC"/><stop offset=".591" stop-color="#0287DF"/><stop offset="1" stop-color="#045E99"/></linearGradient><linearGradient id="j" x1="32.048" x2="32.048" y1="53.401" y2="63.976" gradientUnits="userSpaceOnUse"><stop stop-color="#5D97EC"/><stop offset=".591" stop-color="#0287DF"/><stop offset="1" stop-color="#045E99"/></linearGradient><clipPath id="a"><path fill="#fff" d="M0 0h64v64H0z"/></clipPath></defs></svg>