<svg xmlns="http://www.w3.org/2000/svg" width="64" height="64" fill="none"><g clip-path="url(#a)"><path fill="url(#b)" d="M4.25.137C2.762.425 1.187 1.675.55 3.062c-1.363 2.95.075 6.25 3.187 7.338.538.187.95.237 1.8.2l1.113-.038 1.425 2.988C8.862 15.2 9.5 16.587 9.5 16.637c0 .063-.338.325-.738.613A12.615 12.615 0 0 0 3.25 27.625c0 4.15 1.637 7.487 5.087 10.375l.525.437L7.9 40.15c-.713 1.287-1.013 1.7-1.15 1.65-.1-.05-.588-.113-1.063-.138-2.75-.2-5.125 1.713-5.587 4.5-.35 2.138.837 4.475 2.775 5.463 2.962 1.5 6.462.062 7.5-3.075.225-.675.275-1.025.225-1.913-.063-1.262-.413-2.137-1.238-3.087-.262-.313-.487-.613-.487-.688 0-.2 1.862-3.425 1.962-3.4.05.013.513.175 1.013.338 2.25.787 5.05.912 7.275.337 1.15-.3 3.025-1.137 3.912-1.75.3-.2.6-.387.663-.412.137-.05 4.175 4.325 4.175 4.512 0 .075-.163.313-.363.538-1.962 2.262-3.187 6.037-2.937 9.1l.087.975-.487.137c-.775.2-4.25 1.013-4.338 1.013-.037 0-.275-.313-.537-.688-.925-1.412-2.325-2.2-4.025-2.287-1.975-.1-3.463.587-4.613 2.15-2.35 3.187-.462 7.687 3.5 8.35 2.825.462 5.538-1.55 6-4.475.138-.913.15-.938.588-1.05 1.037-.275 4.162-1 4.312-1 .088 0 .238.212.313.475.087.25.375.887.65 1.4 3.125 5.875 10.012 8.387 16.15 5.887 3.762-1.537 6.6-4.837 7.612-8.887.2-.825.263-1.45.263-2.813 0-2.212-.35-3.9-1.138-5.487-.175-.338-.262-.65-.2-.7.125-.125 5.6-3.7 5.925-3.888.188-.1.35-.037.813.313.85.65 1.812.987 3.012 1.05 1.588.075 2.863-.438 4.013-1.6 2.987-3.038 1.237-8.2-3.025-8.9-2.563-.425-5.025 1.15-5.888 3.75-.212.65-.212.987-.037 3.125.037.4 0 .425-3.025 2.4l-3.063 1.987-.625-.7c-.775-.875-2.187-2.012-3.25-2.6-.45-.25-.812-.512-.812-.587 0-.163 5.012-14.138 5.125-14.25.037-.05.262-.038.5.025.237.075 1 .187 1.687.262 3.75.388 7.675-1.075 10.338-3.862 4.737-4.975 4.787-12.588.1-17.575C55.65-1.1 47.675-1.35 42.45 3.5c-.738.675-1.888 2.175-2.45 3.162-.3.525-.463.7-.613.65-.112-.037-.85-.3-1.637-.6l-1.438-.537-.025-.55c-.062-1.025-.312-2.05-.662-2.75-1-1.95-3.363-3.15-5.5-2.775-2.138.387-3.8 1.875-4.325 3.9-.663 2.55.712 5.275 3.175 6.275.587.237.95.287 2.025.287 1.237 0 1.375-.025 2.137-.4.8-.4 1.738-1.175 2.138-1.762l.187-.275 1.675.625c.913.35 1.675.65 1.7.675.025.025-.05.425-.175.9-.325 1.312-.287 3.912.075 5.337.163.613.263 1.125.238 1.15-.088.075-11.638 4.95-11.663 4.913-.012-.025-.287-.45-.612-.938-2.388-3.65-6.35-5.8-10.7-5.8-1.425 0-2.838.213-3.9.588-.288.1-.563.137-.613.087-.112-.112-2.862-5.875-2.862-5.987 0-.05.262-.363.587-.725.888-.988 1.325-2.025 1.388-3.338.037-.812 0-1.25-.163-1.75C9.537 1.137 7-.4 4.25.137Zm2.462 2.35C7.8 3.037 8.387 3.95 8.475 5.2c.087 1.3-.575 2.4-1.788 3-1.537.737-3.4.087-4.2-1.475C1.4 4.6 3.137 2 5.512 2.175c.375.025.925.162 1.2.312Zm25.613-.012c1.95 1 2.375 3.562.837 5.1-.7.7-1.112.862-2.225.862-.862 0-1.075-.05-1.575-.337-2.45-1.438-2-4.963.763-5.863.5-.162 1.662-.037 2.2.238Zm21.525.012c3.125.825 5.65 2.95 7.012 5.913.738 1.6.95 2.625.938 4.537-.013 1.388-.063 1.788-.35 2.75-.375 1.25-1.113 2.738-1.75 3.538l-.438.537-.375-.725c-.675-1.35-2-2.662-3.35-3.325l-.525-.25.35-.45c2.95-3.75-.262-9.25-4.95-8.512-2.762.437-4.75 2.962-4.5 5.687.1.988.363 1.688.95 2.55l.488.713-.663.35c-1.25.65-2.487 1.9-3.162 3.162-.188.363-.388.65-.463.625-.237-.075-1.3-1.762-1.687-2.687-.55-1.313-.775-2.5-.775-4.088-.013-1.625.225-2.825.8-4.162 1.475-3.413 4.425-5.725 8.187-6.4.913-.175 3.225-.038 4.263.237ZM52.5 8.825c1.925.812 2.475 3.55 1.025 5.1-1.225 1.312-3.638 1.237-4.775-.15-1.238-1.5-.913-3.488.787-4.775.65-.488 2.013-.563 2.963-.175Zm-34.325 8.487c3.775.775 6.8 3.538 8.025 7.313.312.962.35 1.237.35 3 .012 1.662-.025 2.075-.275 2.925-.338 1.175-1.238 2.975-1.825 3.65l-.413.487-.412-.812c-.513-1.038-2.15-2.688-3.088-3.113-.362-.175-.662-.35-.662-.4 0-.05.137-.262.312-.462.175-.213.475-.713.663-1.113.3-.65.337-.862.337-2.1 0-1.35-.012-1.412-.462-2.325-1.375-2.775-4.713-3.812-7.363-2.312-1.875 1.075-2.975 3.35-2.612 5.437.175 1 .375 1.5.937 2.275.488.688.513.738.263.738-.338 0-2.075 1.262-2.65 1.937-.313.375-.75 1.025-.975 1.438l-.413.775-.4-.488c-.575-.7-1.462-2.475-1.787-3.612-.25-.85-.288-1.263-.275-2.925 0-1.763.037-2.038.35-3 1.212-3.738 4.225-6.5 7.95-7.3 1.087-.238 3.3-.25 4.425-.013Zm36.125.175c.525.213.975.538 1.575 1.125.85.838 1.237 1.438 1.475 2.3.125.463.125.463-.425.85-1.575 1.075-3.575 1.663-5.738 1.65-2.05 0-3.662-.425-5.337-1.425-1-.587-1.025-.687-.488-1.825.638-1.35 1.713-2.287 3.2-2.812.525-.188.988-.225 2.813-.188 1.962.025 2.262.063 2.925.325Zm-13.738 2.388c1.063 1.625 3.225 3.55 4.875 4.337.313.15.425.275.363.4-.038.113-1.163 3.213-2.488 6.888s-2.475 6.837-2.537 7.012l-.138.338-.787-.163c-3.225-.662-6.6-.037-9.325 1.725-.5.325-.938.588-.963.588-.025 0-.987-1.025-2.125-2.263l-2.062-2.275.312-.387c.663-.8 1.675-2.425 2.05-3.3.675-1.525.913-2.65.975-4.588.063-1.637-.062-2.737-.475-4.287-.037-.125 1.775-.95 5.763-2.65 3.2-1.35 5.85-2.438 5.887-2.388.038.038.35.5.675 1.013ZM17.25 23.762c.75.338 1.225.8 1.575 1.55.85 1.775-.163 3.95-2.038 4.425-.7.188-1 .175-1.775-.062-1.675-.488-2.6-2.388-2.025-4.1.55-1.625 2.688-2.525 4.263-1.813Zm1.037 8.425c1.063.275 1.675.638 2.488 1.45.737.725 1.3 1.725 1.375 2.413.037.325-.038.4-.988.95-1.837 1.05-3.575 1.462-5.787 1.337-1.563-.1-2.463-.312-3.85-.962-1.275-.6-1.775-.95-1.775-1.238 0-.125.2-.625.437-1.1.713-1.425 2.013-2.5 3.5-2.862.913-.225 3.725-.213 4.6.012ZM59.8 34.375c1.725.65 2.537 2.725 1.712 4.35-.55 1.075-1.462 1.662-2.712 1.75-1.288.087-2.388-.563-2.975-1.75-.863-1.725 0-3.75 1.887-4.425.675-.238 1.3-.213 2.088.075ZM40 40.887c3.087.788 5.625 2.925 6.987 5.888.738 1.587.95 2.625.938 4.537 0 1.863-.263 3.013-1 4.475-.388.763-1.388 2.338-1.5 2.338-.013 0-.225-.35-.438-.775-.55-1.038-2.175-2.663-3.15-3.138l-.712-.35.425-.562c.737-.963 1-1.813 1-3.175 0-1.425-.3-2.313-1.1-3.288-1.763-2.187-4.813-2.625-7.163-1.05-.775.525-1.562 1.513-1.925 2.425-.237.575-.287.963-.287 1.913 0 1.362.262 2.212 1 3.175l.425.562-.713.35c-.95.463-2.612 2.1-3.112 3.063-.2.4-.413.712-.488.687-.25-.075-1.312-1.762-1.687-2.662-1.063-2.55-1.063-5.613 0-8.188 1.05-2.537 3.35-4.812 5.862-5.8.763-.287 2.15-.637 3.013-.737.8-.088 2.675.075 3.625.312Zm-33.638 3.05c.738.25 1.35.763 1.738 1.425.287.5.337.713.337 1.575 0 1.113-.162 1.525-.862 2.225-1.538 1.538-4.075 1.125-5.113-.837-.375-.713-.375-2.063 0-2.763.763-1.462 2.425-2.15 3.9-1.625Zm32.475 3.425c1.075.55 1.6 1.45 1.6 2.763 0 1.1-.275 1.712-1.012 2.375-.65.562-1.238.775-2.113.775-.9 0-1.487-.225-2.162-.825-1.613-1.463-1.238-4.15.7-5.138.912-.45 2.037-.437 2.987.05ZM16.35 53.7c2.537 1.262 2.225 5.05-.488 5.85-.825.25-1.025.25-1.85 0-1.237-.363-2.262-1.688-2.262-2.938 0-2.412 2.462-3.975 4.6-2.912Zm24.15 2.25c1.45.687 2.587 2 2.975 3.437l.125.463-.9.5c-2.013 1.15-3.163 1.462-5.45 1.45-1.463-.013-1.838-.063-2.788-.35-1.787-.538-3.337-1.413-3.337-1.875 0-.45.712-1.788 1.262-2.388.6-.65 1.363-1.137 2.3-1.462.525-.188.975-.225 2.813-.2 2.162.037 2.2.037 3 .425Z"/></g><defs><linearGradient id="b" x1="32.01" x2="32.01" y1=".022" y2="63.975" gradientUnits="userSpaceOnUse"><stop stop-color="#5D97EC"/><stop offset=".591" stop-color="#0287DF"/><stop offset="1" stop-color="#045E99"/></linearGradient><clipPath id="a"><path fill="#fff" d="M0 0h64v64H0z"/></clipPath></defs></svg>