<svg xmlns="http://www.w3.org/2000/svg" width="32" height="33" fill="none"><path fill="url(#a)" fill-rule="evenodd" d="M13.016 2.984c-2.197 0-3.978 1.725-3.978 3.852v2.667h6.886v.74H5.978C3.781 10.244 2 11.969 2 14.096v5.778c0 2.128 1.781 3.852 3.978 3.852h2.295v-3.26c0-2.126 1.781-3.851 3.978-3.851h7.345c1.859 0 3.366-1.46 3.366-3.26V6.837c0-2.127-1.781-3.852-3.978-3.852h-5.968Zm-.918 4.741c.76 0 1.377-.597 1.377-1.333 0-.737-.616-1.334-1.377-1.334-.76 0-1.377.597-1.377 1.334 0 .736.617 1.333 1.377 1.333Z" clip-rule="evenodd"/><path fill="url(#b)" fill-rule="evenodd" d="M18.983 30.984c2.197 0 3.979-1.724 3.979-3.851v-2.667h-6.886v-.74h9.946C28.219 23.725 30 22 30 19.872v-5.778c0-2.127-1.781-3.851-3.978-3.851h-2.295v3.259c0 2.127-1.782 3.852-3.979 3.852h-7.344c-1.859 0-3.366 1.459-3.366 3.259v6.519c0 2.127 1.781 3.851 3.978 3.851h5.967Zm.918-4.74c-.76 0-1.377.597-1.377 1.333s.617 1.333 1.377 1.333c.761 0 1.378-.597 1.378-1.333s-.617-1.333-1.378-1.333Z" clip-rule="evenodd"/><defs><linearGradient id="a" x1="12.481" x2="12.481" y1="2.984" y2="23.725" gradientUnits="userSpaceOnUse"><stop stop-color="#327EBD"/><stop offset="1" stop-color="#1565A7"/></linearGradient><linearGradient id="b" x1="19.519" x2="19.519" y1="10.244" y2="30.984" gradientUnits="userSpaceOnUse"><stop stop-color="#FFDA4B"/><stop offset="1" stop-color="#F9C600"/></linearGradient></defs></svg>