<svg xmlns="http://www.w3.org/2000/svg" width="144" height="134" fill="none"><path stroke="url(#a)" stroke-width="2" d="M121.578 115.228C176.307 115.228 112.929 1 78.505 1s-101.856 114.228-43.58 114.228"/><path fill="url(#b)" d="M78.594 30.452c11.688.286 21.215 8.99 22.349 22.828.037 0 .074.003.112.011 1.234.251 2.846 4.827 1.983 9.086l-.088.396c-.958 4.056-3.738 7.006-4.934 6.763l-.11-.033c-.198-.082-.33-.268-.406-.544-1.822 3.292-4.182 6.227-6.675 8.65.01.048.018.098.023.149l.867 8.327c2.493-1.154 5.38-.873 8.178.225 3.602 1.413 7.357 4.266 10.734 7.796 3.393 3.545 6.488 7.862 8.743 12.318 2.246 4.439 3.708 9.12 3.709 13.373 0 2.739-1.893 4.871-4.42 6.473-2.564 1.624-6.125 2.937-10.253 3.977-8.279 2.086-19.24 3.171-30.146 3.235-10.903.063-21.869-.892-30.156-2.948-4.132-1.025-7.702-2.348-10.274-4.025-2.557-1.667-4.405-3.881-4.405-6.712 0-8.922 5.732-19.115 12.464-25.99 3.384-3.455 7.143-6.201 10.746-7.542 2.829-1.053 5.733-1.286 8.23-.115l1.213-7.918c-2.86-2.599-5.6-5.853-7.647-9.544-.059.453-.218.732-.52.785-1.242.215-4.404-3.46-5.146-7.74l-.062-.4c-.582-4.128.936-7.89 2.138-8.1l.115-.01c.034.001.069.005.102.013 1.17-14.046 10.995-22.79 22.94-22.79l.596.006Zm-22.49 59.313c-2.11 1.044-4.337 2.635-6.516 4.636.444.776 1.079 1.586 1.887 2.564 1.05 1.27 2.348 2.773 3.523 4.63 2.356 3.726 4.18 8.801 3.506 16.835 1.634 2.62 4.24 3.945 6.97 5.61 1.362.831 2.788 1.78 3.858 3.064a7.54 7.54 0 0 1 1.61 3.26c2.41.091 4.853.132 7.3.118a169.58 169.58 0 0 0 7.341-.205 7.55 7.55 0 0 1 1.591-3.173c1.07-1.284 2.496-2.233 3.859-3.064 2.73-1.664 5.334-2.99 6.968-5.61-.675-8.019 1.056-13.087 3.322-16.813 1.131-1.859 2.383-3.361 3.405-4.635.803-1 1.435-1.83 1.877-2.628-2.108-1.951-4.255-3.514-6.289-4.559a59.428 59.428 0 0 1-6.244 5.94c-4.001 3.269-9.4 6.69-14.864 7.014v17.811l-.004.102a1.002 1.002 0 0 1-1.99 0l-.005-.102v-17.834c-5.355-.444-10.733-3.838-14.75-7.063a62.724 62.724 0 0 1-6.355-5.898Zm-8.701 6.799c-6.146 6.542-10.977 15.658-10.978 23.233 0 1.357.861 2.777 3.043 4.199 2.167 1.413 5.366 2.636 9.358 3.626.481.12.972.235 1.473.347-.214-3.348-.279-6.459-.867-9.293-.653-3.147-1.923-5.742-4.674-7.579a1 1 0 0 1 1.112-1.663c3.329 2.224 4.802 5.371 5.521 8.835.65 3.136.709 6.711.943 10.123 4.61.896 9.885 1.502 15.427 1.822a4.683 4.683 0 0 0-.734-1.19c-.727-.873-1.776-1.605-3.116-2.422-2.55-1.555-6.16-3.358-8.25-7.087l-.23-.408.045-.467c.73-7.671-.972-12.212-3.015-15.442-1.048-1.658-2.199-2.993-3.297-4.32-.613-.742-1.23-1.507-1.761-2.314Zm61.388-.032c-.522.811-1.124 1.581-1.723 2.328-1.064 1.325-2.174 2.66-3.182 4.316-1.964 3.229-3.587 7.778-2.856 15.464l.044.467-.23.408c-2.09 3.729-5.7 5.532-8.25 7.087-1.34.817-2.388 1.549-3.115 2.422-.27.323-.5.672-.68 1.063 5.628-.39 10.98-1.064 15.639-2.016.222-3.349.292-6.843.93-9.916.718-3.463 2.191-6.612 5.52-8.836a1.001 1.001 0 0 1 1.112 1.664c-2.75 1.837-4.021 4.432-4.674 7.579-.575 2.77-.65 5.803-.854 9.065.407-.094.807-.19 1.2-.289 3.996-1.007 7.205-2.225 9.38-3.603 2.211-1.4 3.027-2.743 3.027-3.938-.001-3.616-1.262-7.82-3.386-12.019-2.043-4.037-4.837-7.973-7.902-11.246Zm-10.415-7.585c-2.839-1.011-5.08-.75-6.694.733-4.665 4.284-8.95 6.618-13.442 6.582-4.478-.036-8.751-2.427-13.4-6.567-1.633-1.453-3.908-1.725-6.762-.757.166.172.344.36.537.554a60.743 60.743 0 0 0 5.096 4.612c4.23 3.395 9.586 6.623 14.551 6.671l.473-.005c4.895-.149 10.019-3.273 14.071-6.584a57.423 57.423 0 0 0 5.023-4.655c.197-.205.377-.402.547-.584Zm-17.57-4.675c-.966.323-1.845.496-2.597.496l-.317-.01c-.652-.038-1.39-.194-2.193-.453v8.602c.874.232 1.726.348 2.565.355.831.007 1.675-.095 2.542-.312v-8.678Zm7.264-4.234c-1.484 1.185-2.963 2.175-4.36 2.938.061.163.096.338.096.522v8.278c1.586-.831 3.27-2.03 5.107-3.643l-.843-8.095ZM67.6 88.12c1.832 1.565 3.515 2.749 5.099 3.584v-8.206c0-.16.025-.316.072-.46a30.49 30.49 0 0 1-4-2.574l-1.172 7.656ZM89 47.081c-5.438-2.512-12.069-4.04-17.841-1.016l-.556.307c-5.002 2.907-8.462 4.04-10.725 4.428-.58.1-1.082.148-1.511.167a30.013 30.013 0 0 0-.425 5.116c0 6.8 3.641 13.266 8.328 18.154 2.32 2.42 4.808 4.356 7.043 5.67 2.336 1.371 4.052 1.86 4.895 1.86.837 0 2.521-.483 4.812-1.85 2.192-1.308 4.627-3.24 6.895-5.657 4.579-4.879 8.141-11.351 8.141-18.177 0-1.23-.07-2.417-.203-3.56a43.743 43.743 0 0 0-1.959-1.449c-1.71-1.194-4.112-2.708-6.894-3.993Zm-7.49 25.814a1 1 0 0 1 .581 1.914l-3.338 1.014-.274.084-.277-.075-3.757-1.014-.098-.033a1 1 0 0 1 .52-1.92l.1.02 3.479.942 3.063-.932Zm19.674-14.56c-.188 1.044-.388 2.21-.656 3.531-.261 1.284-.508 2.434-.705 3.437a11.32 11.32 0 0 0 1.255-3.325c.247-1.22.251-2.493.106-3.644Zm-46.488-.5a11.324 11.324 0 0 0 .039 3.555c.212 1.226.67 2.413 1.224 3.432-.204-1.041-.441-2.2-.671-3.528-.224-1.291-.411-2.453-.592-3.459Zm36.587-5.292c.083-.005.27-.008.484.076.258.102.492.306.6.591.092.239.06.44.039.531-.041.175-.129.297-.146.322-.75 1.078-.836 2.017-.763 2.664.037.33.118.593.185.767a2.132 2.132 0 0 0 .1.221c.265.446.12.99-.323 1.255a.994.994 0 0 1-.583.188h-24.83a.995.995 0 0 1-.59-.194.902.902 0 0 1-.314-1.25l.018-.033a3.123 3.123 0 0 0 .266-.954c.072-.646-.013-1.586-.763-2.664-.018-.026-.104-.148-.145-.323a.905.905 0 0 1 .035-.526c.106-.28.333-.485.588-.59a1.138 1.138 0 0 1 .884.01c.114.048.234.12.31.167.184.112.447.288.75.494.614.418 1.453 1.01 2.294 1.608.843.6 1.694 1.212 2.333 1.673l.775.56.03.022h11.947c.186-.135.44-.323.743-.543.64-.465 1.49-1.082 2.333-1.687.84-.604 1.68-1.201 2.293-1.623.304-.209.568-.385.752-.5.075-.046.193-.117.305-.166a1.219 1.219 0 0 1 .393-.096ZM67.515 56.04c.015.295.004.572-.025.828-.012.101-.028.198-.044.291h1.638l-1-.717-.569-.402Zm21.328.423c-.324.233-.648.47-.963.696h1.597a4.981 4.981 0 0 1-.044-.29 5.14 5.14 0 0 1-.026-.81l-.564.404ZM78 33.445c-8.923 0-16.676 5.636-19.196 15.485.223-.023.468-.056.738-.102 1.964-.337 5.197-1.361 10.057-4.185l.317-.181c6.691-3.694 14.227-1.828 19.924.804 2.92 1.348 5.426 2.928 7.2 4.169.115.08.225.16.334.236-2.314-10.306-10.23-16.226-19.374-16.226Z"/><path fill="url(#c)" fill-rule="evenodd" d="M116.906 46.45c.692-.357 1.001-1.17.768-1.909l5.32-2.75a.19.19 0 0 0 .077-.257.19.19 0 0 0-.254-.085l-5.3 2.741c-.436-.738-1.361-1.025-2.11-.637-.777.402-1.072 1.376-.658 2.177.414.8 1.38 1.123 2.157.72Zm-.177-.34c-.594.307-1.332.06-1.649-.552-.316-.612-.091-1.357.503-1.664.595-.308 1.333-.06 1.65.551.316.612.091 1.358-.504 1.665Z" clip-rule="evenodd"/><path fill="url(#d)" fill-rule="evenodd" d="M57.072 26.266c-.42-.934-1.463-1.398-2.449-1.145L51.4 17.946a.249.249 0 0 0-.33-.12.249.249 0 0 0-.13.327l3.212 7.148c-1 .519-1.443 1.71-.989 2.721.472 1.048 1.728 1.505 2.808 1.02 1.079-.485 1.572-1.728 1.101-2.776Zm-.46.206c.36.802-.017 1.752-.842 2.123-.825.371-1.787.022-2.147-.78-.36-.801.017-1.752.843-2.122.825-.371 1.786-.022 2.146.78Z" clip-rule="evenodd"/><path stroke="url(#e)" stroke-linecap="round" stroke-width="2" d="M78 17h5"/><path stroke="url(#f)" stroke-linecap="round" stroke-width="2" d="M111 76h2.534"/><path stroke="url(#g)" stroke-linecap="round" stroke-width="2" d="M108 32h1.013"/><path stroke="url(#h)" stroke-linecap="round" stroke-width="2" d="M24 100h3.04"/><path stroke="url(#i)" stroke-linecap="round" stroke-width="2" d="M38 72h2"/><path stroke="url(#j)" stroke-linecap="round" stroke-width="2" d="M127 95h3.04"/><circle cx="135" cy="62" r="2.5" fill="#fff" stroke="url(#k)"/><circle cx="12" cy="93" r="1.7" fill="#fff" stroke="url(#l)" stroke-width=".6"/><rect width="52" height="52" y="27" fill="#fff" rx="20"/><path fill="url(#m)" d="M33.905 30.019c-2.66.314-4.897 1.132-6.767 2.471-.898.638-2.318 2.031-2.992 2.93-.548.728-1.474 2.255-1.474 2.426 0 .153-.153.144-.242-.009-.108-.18-.432-.323-.746-.323-.405 0-.81.422-.81.835 0 .396.909 2.445 1.214 2.76.341.332.728.278 2.067-.333 1.051-.477 1.186-.557 1.33-.863.144-.279.153-.377.063-.647-.135-.413-.396-.584-.88-.584-.468 0-.477.009.134-1.007 1.231-2.04 2.903-3.621 4.925-4.628 1.806-.907 3.226-1.23 5.436-1.23 1.807 0 2.822.17 4.314.727 1.726.638 2.939 1.447 4.377 2.93 2.264 2.327 3.298 4.942 3.298 8.33s-1.025 5.985-3.307 8.349c-1.753 1.806-3.784 2.938-6.147 3.424-3.253.656-6.65 0-9.337-1.807-.36-.242-1.088-.853-1.618-1.357-1.348-1.267-2.31-1.959-3.666-2.633-1.295-.647-2.13-.943-3.433-1.23-1.222-.27-4.26-.297-5.42-.037-1.635.35-3.558 1.088-3.935 1.501-.297.314-.27.88.053 1.186.342.333.737.315 1.564-.063a11.853 11.853 0 0 1 3.029-.907c1.23-.207 3.487-.144 4.556.126 2.3.575 3.918 1.455 5.733 3.127 1.501 1.375 2.418 2.049 3.604 2.633 3.469 1.716 7.225 1.977 10.9.755 3.326-1.097 6.201-3.604 7.792-6.776.512-1.016 1.042-2.597 1.267-3.774.252-1.304.234-3.847-.036-5.186-.61-3.073-2.13-5.733-4.421-7.737-2.49-2.184-5.401-3.307-8.762-3.388-.737-.018-1.492-.01-1.663.009Z"/><path fill="url(#n)" d="M32.908 34.953c-.306.161-.414.449-.522 1.437-.053.44-.134.818-.18.836-.044.018-.34.189-.664.377-.324.198-.63.36-.683.36-.054 0-.414-.144-.81-.315-.835-.368-1.275-.404-1.563-.116-.305.305-2.13 3.522-2.13 3.747 0 .368.252.692.935 1.168l.683.486v1.734l-.683.485c-.737.53-.98.872-.899 1.267.063.333 1.888 3.496 2.13 3.694.288.242.72.198 1.582-.18l.8-.35.431.296c.243.162.548.342.692.396.27.117.306.215.395 1.168.126 1.33.162 1.348 2.741 1.348 2.175 0 2.409-.045 2.589-.512.062-.135.143-.62.197-1.06.054-.45.126-.819.162-.837.036-.008.341-.18.683-.377.341-.198.656-.36.7-.36.046 0 .414.144.8.315.845.369 1.24.395 1.555.108.36-.333 2.121-3.478 2.121-3.801 0-.369-.206-.611-.98-1.16l-.637-.449v-.854l.009-.853.674-.495c.79-.575.934-.746.934-1.123 0-.315-1.761-3.469-2.12-3.801-.315-.279-.71-.252-1.555.117-.827.368-.845.368-1.16.143a6.374 6.374 0 0 0-.647-.368 6.38 6.38 0 0 1-.422-.216 11.624 11.624 0 0 1-.117-.818c-.117-.997-.224-1.276-.548-1.438-.36-.188-4.152-.188-4.493 0Zm3.28 1.95c.027.161.072.494.099.736.099.72.18.827 1.069 1.268.45.215 1.015.548 1.258.719.53.386.764.395 1.537.044.332-.152.647-.27.71-.27.063 0 .18.136.26.288.081.162.288.549.459.845l.323.548-.521.369c-.908.629-.863.539-.88 2.291-.01 1.115.026 1.6.107 1.735.063.108.378.386.701.62l.584.431-.314.548c-.171.306-.378.683-.459.836-.08.162-.197.297-.251.297-.063 0-.378-.117-.701-.27-.818-.368-1.043-.35-1.726.135-.305.225-.862.54-1.222.71-.368.17-.71.386-.773.476-.053.099-.125.413-.161.71-.027.288-.081.638-.1.773l-.053.252h-.98c-.719 0-.98-.027-.98-.117-.008-.387-.188-1.447-.269-1.6-.054-.099-.431-.332-.836-.521a7.98 7.98 0 0 1-1.222-.719c-.602-.45-.854-.467-1.671-.099-.333.153-.638.27-.674.27-.045 0-.225-.252-.414-.566l-.494-.836-.17-.279.476-.323c.943-.656.916-.566.925-2.39 0-1.034-.027-1.645-.09-1.735-.053-.072-.368-.324-.692-.575l-.593-.45.432-.755c.242-.422.485-.8.548-.835.072-.045.35.027.728.197.835.378 1.078.36 1.68-.098.27-.198.827-.522 1.231-.71.405-.19.782-.423.836-.522.081-.152.26-1.213.27-1.608 0-.081.26-.108.988-.108h.98l.045.288Z"/><path fill="url(#o)" d="M34.346 40.776c-.926.26-1.627.862-2.049 1.77-.332.72-.332 1.806.01 2.534.305.647.925 1.276 1.58 1.582.432.207.639.243 1.277.243.89 0 1.51-.234 2.148-.81 1.051-.952 1.285-2.767.503-3.99-.701-1.096-2.22-1.68-3.469-1.33Zm1.41 1.824c.423.198.684.602.729 1.105.054.567-.18.98-.692 1.24-.485.252-.737.252-1.24.027-.297-.134-.423-.26-.557-.557-.225-.494-.225-.736 0-1.195a1.315 1.315 0 0 1 1.76-.62Z"/><path fill="url(#p)" d="M7.107 52.333c-.243.215-.296.323-.296.638 0 .898 1.213 1.222 1.626.44.252-.494.126-.97-.323-1.204-.387-.198-.683-.162-1.007.126Z"/><path fill="url(#q)" d="M14.575 53.285c-.296.162-.413.458-.485 1.213-.09.989-.108 1.034-.521 1.24-.207.108-.53.28-.71.387l-.324.198-.764-.324c-.844-.368-1.294-.413-1.581-.18-.243.207-2.067 3.37-2.13 3.703-.08.386.126.665.89 1.249l.71.521v1.681l-.72.52c-.745.55-.979.89-.88 1.286.09.35 1.932 3.496 2.148 3.666.296.243.755.19 1.582-.188l.763-.342.62.387c.35.215.665.404.71.413.045.018.135.45.198.962.108.871.126.952.396 1.186l.287.26h2.031c2.22 0 2.435-.044 2.633-.512.09-.224.27-1.348.279-1.743 0-.072.152-.207.341-.297.18-.09.503-.278.701-.413l.378-.252.781.35c.908.405 1.285.441 1.609.154.341-.315 2.12-3.487 2.12-3.784 0-.395-.125-.557-.898-1.141l-.719-.548v-.827l.01-.827.673-.494c.791-.575.935-.746.935-1.123 0-.324-1.762-3.478-2.121-3.802-.314-.278-.674-.251-1.59.135-.782.324-.81.324-1.034.17-.135-.08-.45-.26-.701-.386-.512-.26-.458-.107-.63-1.6-.044-.413-.116-.592-.314-.781l-.242-.252h-2.103c-1.636.01-2.148.036-2.328.135Zm3.28 1.815c.018.09.063.44.1.773.071.72.296 1.025.925 1.267.216.081.62.297.89.486.278.18.61.404.736.485.333.225.62.198 1.313-.108.332-.153.647-.27.7-.27.063 0 .171.117.252.252.081.144.297.521.476.845l.324.584-.53.377c-.89.62-.863.558-.863 2.364.009 1.186.036 1.617.126 1.725.072.081.377.333.692.566l.566.414-.315.548c-.17.306-.377.683-.458.836-.08.162-.189.296-.234.296-.044 0-.35-.117-.692-.27-.844-.368-1.105-.35-1.707.109-.27.197-.818.52-1.213.7-.791.369-.89.495-.989 1.223a14.76 14.76 0 0 1-.099.728l-.044.296h-.98c-.728 0-.989-.027-.989-.117-.008-.386-.188-1.447-.278-1.6-.054-.098-.422-.34-.827-.53-.404-.188-.953-.503-1.222-.71-.602-.458-.845-.467-1.708-.08-.386.17-.674.251-.727.197a13.18 13.18 0 0 1-.522-.862l-.449-.782.35-.234a6.35 6.35 0 0 0 .701-.539l.342-.315-.018-1.59c-.009-.88-.045-1.663-.08-1.744-.037-.08-.324-.332-.648-.566-.315-.224-.575-.449-.575-.503 0-.135.899-1.617.98-1.617.044 0 .368.116.71.27.844.359 1.042.35 1.635-.109.27-.198.827-.521 1.231-.71.405-.188.782-.422.836-.52.08-.154.26-1.214.27-1.61 0-.08.26-.107.979-.107.863 0 .989.018 1.034.152Z"/><path fill="url(#r)" d="M15.96 59.117c-.935.306-1.582.881-1.996 1.762-.314.674-.314 1.68-.009 2.471.638 1.636 2.714 2.382 4.332 1.564 2.274-1.16 2.22-4.476-.09-5.617-.611-.296-1.627-.377-2.238-.18Zm1.662 1.915c.782.566.71 1.77-.126 2.246-.593.342-1.222.216-1.68-.323a1.316 1.316 0 0 1 .341-1.968c.431-.252 1.096-.234 1.465.045Z"/><path fill="url(#s)" d="M4.897 55.45c-.234.118-.369.315-.638.882C2.237 60.6 2.677 65.866 5.39 69.937c.638.962 2.166 2.553 3.163 3.298 3.352 2.517 7.756 3.352 11.872 2.247 3.738-1.006 6.92-3.505 8.618-6.776l.377-.737.27.234c.494.413 1.141.242 1.393-.368.143-.342.152-.306-.521-1.87-.477-1.087-.737-1.402-1.187-1.402-.27 0-2.597 1.07-2.768 1.267-.242.288-.206.818.081 1.16.216.26.279.278.665.251l.432-.027-.36.674c-.53.97-1.087 1.726-1.968 2.642-1.995 2.085-4.412 3.245-7.414 3.568-2.166.225-4.718-.233-6.65-1.195-2.229-1.114-4.448-3.406-5.464-5.644-.719-1.59-1.033-2.893-1.114-4.583-.081-1.968.216-3.577 1.015-5.455.369-.862.396-.97.306-1.249a.88.88 0 0 0-1.24-.521Z"/><defs><linearGradient id="a" x1="77.527" x2="77.527" y1="1" y2="115.228" gradientUnits="userSpaceOnUse"><stop stop-color="#5A92EB"/><stop offset=".245" stop-color="#5892EE"/><stop offset=".505" stop-color="#DE7AF6"/><stop offset=".745" stop-color="#FF5DB5"/><stop offset="1" stop-color="#FF008A"/></linearGradient><linearGradient id="b" x1="52.545" x2="103.861" y1="72.667" y2="72.667" gradientUnits="userSpaceOnUse"><stop stop-color="#0287DF"/><stop offset="1" stop-color="#FE37A3"/></linearGradient><linearGradient id="c" x1="114.38" x2="122.666" y1="44.916" y2="40.631" gradientUnits="userSpaceOnUse"><stop stop-color="#5A92EB"/><stop offset="1" stop-color="#FE37A3"/></linearGradient><linearGradient id="d" x1="54.877" x2="49.855" y1="29.467" y2="18.292" gradientUnits="userSpaceOnUse"><stop stop-color="#5A92EB"/><stop offset="1" stop-color="#FE37A3"/></linearGradient><linearGradient id="e" x1="78.025" x2="83.03" y1="17.774" y2="17.774" gradientUnits="userSpaceOnUse"><stop stop-color="#5A92EB"/><stop offset="1" stop-color="#FE37A3"/></linearGradient><linearGradient id="f" x1="111.012" x2="113.549" y1="76.774" y2="76.774" gradientUnits="userSpaceOnUse"><stop stop-color="#5A92EB"/><stop offset="1" stop-color="#FE37A3"/></linearGradient><linearGradient id="g" x1="108.005" x2="109.02" y1="32.774" y2="32.774" gradientUnits="userSpaceOnUse"><stop stop-color="#5A92EB"/><stop offset="1" stop-color="#FE37A3"/></linearGradient><linearGradient id="h" x1="24.015" x2="27.059" y1="100.774" y2="100.774" gradientUnits="userSpaceOnUse"><stop stop-color="#5A92EB"/><stop offset="1" stop-color="#FE37A3"/></linearGradient><linearGradient id="i" x1="38.01" x2="40.012" y1="72.774" y2="72.774" gradientUnits="userSpaceOnUse"><stop stop-color="#5A92EB"/><stop offset="1" stop-color="#FE37A3"/></linearGradient><linearGradient id="j" x1="127.015" x2="130.059" y1="95.774" y2="95.774" gradientUnits="userSpaceOnUse"><stop stop-color="#5A92EB"/><stop offset="1" stop-color="#FE37A3"/></linearGradient><linearGradient id="k" x1="132.03" x2="138.036" y1="63.642" y2="63.642" gradientUnits="userSpaceOnUse"><stop stop-color="#5A92EB"/><stop offset="1" stop-color="#FE37A3"/></linearGradient><linearGradient id="l" x1="10.02" x2="14.024" y1="94.094" y2="94.094" gradientUnits="userSpaceOnUse"><stop stop-color="#5A92EB"/><stop offset="1" stop-color="#FE37A3"/></linearGradient><linearGradient id="m" x1="10.274" x2="49.197" y1="36.255" y2="36.255" gradientUnits="userSpaceOnUse"><stop stop-color="#5A92EB"/><stop offset="1" stop-color="#FE37A3"/></linearGradient><linearGradient id="n" x1="26.443" x2="44.075" y1="38.882" y2="38.882" gradientUnits="userSpaceOnUse"><stop stop-color="#5A92EB"/><stop offset="1" stop-color="#FE37A3"/></linearGradient><linearGradient id="o" x1="32.08" x2="38.315" y1="42.085" y2="42.085" gradientUnits="userSpaceOnUse"><stop stop-color="#5A92EB"/><stop offset="1" stop-color="#FE37A3"/></linearGradient><linearGradient id="p" x1="6.819" x2="8.575" y1="52.483" y2="52.483" gradientUnits="userSpaceOnUse"><stop stop-color="#5A92EB"/><stop offset="1" stop-color="#FE37A3"/></linearGradient><linearGradient id="q" x1="8.125" x2="25.743" y1="57.22" y2="57.22" gradientUnits="userSpaceOnUse"><stop stop-color="#5A92EB"/><stop offset="1" stop-color="#FE37A3"/></linearGradient><linearGradient id="r" x1="13.758" x2="19.998" y1="60.422" y2="60.422" gradientUnits="userSpaceOnUse"><stop stop-color="#5A92EB"/><stop offset="1" stop-color="#FE37A3"/></linearGradient><linearGradient id="s" x1="3.139" x2="31.33" y1="60.02" y2="60.02" gradientUnits="userSpaceOnUse"><stop stop-color="#5A92EB"/><stop offset="1" stop-color="#FE37A3"/></linearGradient></defs></svg>