<svg xmlns="http://www.w3.org/2000/svg" width="143" height="134" fill="none"><path stroke="url(#a)" stroke-width="2" d="M120.578 115.228C175.307 115.228 111.929 1 77.505 1s-101.856 114.228-43.58 114.228"/><path fill="url(#b)" d="M77.594 30.452c11.688.286 21.215 8.99 22.349 22.828.037 0 .074.003.112.011 1.234.251 2.846 4.827 1.983 9.086l-.088.396c-.958 4.056-3.738 7.006-4.934 6.763l-.11-.033c-.198-.082-.33-.268-.406-.544-1.822 3.292-4.182 6.227-6.675 8.65.01.048.018.098.023.148l.867 8.327c2.492-1.153 5.38-.872 8.178.226 3.602 1.413 7.357 4.266 10.734 7.796 3.392 3.545 6.488 7.862 8.743 12.318 2.246 4.439 3.708 9.12 3.709 13.373-.001 2.739-1.893 4.871-4.42 6.473-2.564 1.624-6.126 2.937-10.253 3.977-8.28 2.086-19.24 3.171-30.146 3.235-10.903.063-21.869-.892-30.156-2.948-4.132-1.025-7.702-2.348-10.274-4.025-2.557-1.667-4.405-3.881-4.405-6.712 0-8.922 5.732-19.115 12.464-25.99 3.384-3.455 7.143-6.201 10.746-7.542 2.829-1.053 5.733-1.286 8.23-.116l1.213-7.917c-2.86-2.599-5.6-5.853-7.647-9.544-.059.453-.218.732-.52.785-1.242.215-4.404-3.46-5.146-7.74l-.062-.4c-.582-4.128.936-7.89 2.138-8.1l.115-.01c.034.001.069.005.102.013 1.17-14.046 10.995-22.79 22.94-22.79l.596.006Zm-22.49 59.312c-2.11 1.044-4.337 2.635-6.516 4.636.444.776 1.078 1.587 1.887 2.565 1.05 1.27 2.348 2.773 3.523 4.63 2.356 3.726 4.18 8.802 3.506 16.835 1.634 2.62 4.24 3.945 6.97 5.61 1.362.831 2.788 1.78 3.858 3.064a7.539 7.539 0 0 1 1.61 3.26c2.41.091 4.853.132 7.3.118 2.461-.015 4.919-.086 7.341-.206a7.545 7.545 0 0 1 1.591-3.172c1.07-1.284 2.496-2.233 3.859-3.064 2.73-1.664 5.334-2.99 6.968-5.61-.675-8.019 1.056-13.087 3.322-16.813 1.131-1.859 2.383-3.361 3.405-4.635.803-1 1.435-1.83 1.877-2.628-2.108-1.952-4.255-3.514-6.29-4.559a59.444 59.444 0 0 1-6.243 5.939c-4.001 3.269-9.4 6.69-14.864 7.014v17.811l-.004.102a1.001 1.001 0 0 1-1.99 0l-.005-.102v-17.834c-5.355-.444-10.733-3.838-14.75-7.063a62.692 62.692 0 0 1-6.355-5.898Zm-8.701 6.8c-6.146 6.542-10.977 15.659-10.978 23.233 0 1.357.862 2.777 3.043 4.199 2.167 1.413 5.366 2.636 9.358 3.626.481.12.973.234 1.473.346-.214-3.348-.279-6.459-.867-9.293-.653-3.146-1.924-5.741-4.674-7.578a1.002 1.002 0 0 1-.276-1.388 1.002 1.002 0 0 1 1.388-.276c3.329 2.224 4.802 5.372 5.521 8.836.65 3.135.71 6.71.943 10.122 4.61.896 9.885 1.502 15.427 1.822a4.682 4.682 0 0 0-.734-1.189c-.727-.873-1.776-1.605-3.116-2.422-2.55-1.555-6.16-3.358-8.25-7.087l-.23-.408.045-.467c.73-7.671-.972-12.212-3.015-15.442-1.048-1.658-2.199-2.993-3.297-4.32-.613-.742-1.23-1.507-1.761-2.314Zm61.388-.032c-.522.811-1.124 1.581-1.723 2.328-1.064 1.325-2.174 2.66-3.182 4.316-1.964 3.229-3.587 7.778-2.856 15.464l.044.467-.23.408c-2.09 3.729-5.7 5.532-8.25 7.087-1.34.817-2.388 1.549-3.115 2.422-.27.323-.5.672-.68 1.063 5.628-.39 10.98-1.065 15.639-2.017.222-3.349.292-6.843.93-9.916.718-3.463 2.191-6.611 5.52-8.835a1.001 1.001 0 0 1 1.112 1.664c-2.75 1.837-4.021 4.432-4.674 7.579-.575 2.77-.65 5.803-.854 9.064.406-.094.807-.189 1.2-.288 3.996-1.007 7.205-2.225 9.38-3.603 2.211-1.4 3.026-2.743 3.027-3.938-.001-3.616-1.262-7.82-3.386-12.019-2.043-4.036-4.837-7.973-7.902-11.246Zm-10.415-7.585c-2.839-1.011-5.08-.749-6.694.733-4.665 4.284-8.95 6.618-13.442 6.582-4.478-.036-8.751-2.427-13.4-6.567-1.633-1.453-3.908-1.725-6.761-.757.166.172.344.359.536.553a60.744 60.744 0 0 0 5.096 4.612c4.23 3.396 9.586 6.623 14.551 6.671l.473-.005c4.895-.149 10.019-3.273 14.071-6.584a57.439 57.439 0 0 0 5.023-4.655c.197-.205.378-.401.547-.583Zm-17.57-4.675c-.966.323-1.845.496-2.597.496l-.317-.01c-.652-.038-1.39-.194-2.193-.453v8.601c.874.232 1.726.35 2.565.356a10.08 10.08 0 0 0 2.542-.312v-8.678Zm7.264-4.234c-1.484 1.185-2.963 2.175-4.36 2.938.061.163.096.338.096.522v8.278c1.586-.831 3.27-2.031 5.107-3.644l-.843-8.094ZM66.6 88.12c1.832 1.565 3.515 2.75 5.099 3.585v-8.206c0-.16.025-.316.072-.46a30.49 30.49 0 0 1-4-2.574l-1.172 7.655ZM88 47.081c-5.438-2.512-12.069-4.04-17.841-1.016l-.556.307c-5.002 2.907-8.462 4.04-10.725 4.428-.58.1-1.082.148-1.511.167a30.013 30.013 0 0 0-.425 5.116c0 6.8 3.641 13.266 8.328 18.154 2.32 2.42 4.808 4.356 7.043 5.67 2.336 1.371 4.052 1.86 4.895 1.86.837 0 2.521-.483 4.812-1.85 2.192-1.308 4.627-3.24 6.895-5.657 4.579-4.879 8.141-11.351 8.141-18.177 0-1.23-.07-2.417-.203-3.56a43.743 43.743 0 0 0-1.959-1.449c-1.71-1.194-4.112-2.708-6.894-3.993Zm-7.49 25.814a1 1 0 0 1 .581 1.914l-3.338 1.014-.274.084-.277-.075-3.757-1.014-.098-.033a1 1 0 0 1 .52-1.92l.1.02 3.479.942 3.063-.932Zm19.674-14.56c-.188 1.044-.388 2.21-.656 3.531-.26 1.284-.508 2.434-.705 3.437a11.332 11.332 0 0 0 1.255-3.325c.247-1.22.251-2.493.106-3.644Zm-46.488-.5a11.324 11.324 0 0 0 .039 3.555c.212 1.226.67 2.413 1.224 3.432-.204-1.041-.441-2.2-.671-3.528-.224-1.291-.411-2.453-.592-3.459Zm36.587-5.293c.083-.005.27-.008.484.076.258.102.492.307.6.592.091.238.06.44.039.53-.041.175-.128.296-.146.322-.75 1.078-.835 2.018-.762 2.664.037.33.117.593.184.767.034.087.064.15.082.188l.018.033.047.089a.902.902 0 0 1-.363 1.162.996.996 0 0 1-.59.193h-24.83a.995.995 0 0 1-.589-.193.903.903 0 0 1-.314-1.252l.017-.033a3.122 3.122 0 0 0 .267-.953c.072-.646-.014-1.586-.764-2.664-.018-.026-.104-.148-.145-.323a.907.907 0 0 1 .036-.526c.106-.28.332-.485.588-.59a1.144 1.144 0 0 1 .884.01c.114.048.234.12.31.167.184.112.446.288.75.494.613.418 1.452 1.009 2.293 1.608.843.6 1.694 1.212 2.333 1.673l.776.56.031.022h11.944l.744-.543c.64-.465 1.49-1.083 2.333-1.688.84-.604 1.68-1.201 2.293-1.623.304-.209.568-.385.752-.5a2.55 2.55 0 0 1 .305-.166 1.215 1.215 0 0 1 .393-.096ZM66.516 56.04a5.121 5.121 0 0 1-.07 1.12h1.639c-.326-.234-.664-.478-1.001-.718-.19-.136-.382-.27-.568-.402Zm21.327.422c-.324.233-.648.47-.963.697h1.598c-.016-.093-.033-.19-.045-.29a5.144 5.144 0 0 1-.025-.81l-.565.403ZM77 33.445c-8.923 0-16.676 5.636-19.196 15.485.223-.023.468-.056.738-.102 1.964-.337 5.197-1.361 10.057-4.185l.317-.181c6.691-3.694 14.227-1.828 19.924.804 2.92 1.348 5.426 2.928 7.2 4.169.115.08.225.16.334.236-2.314-10.306-10.23-16.226-19.374-16.226Z"/><path stroke="url(#c)" stroke-linecap="round" stroke-width="2" d="M125 98h5"/><path stroke="url(#d)" stroke-linecap="round" stroke-width="2" d="M106 78h2.534"/><path stroke="url(#e)" stroke-linecap="round" stroke-width="2" d="M119 59h2.534"/><path stroke="url(#f)" stroke-linecap="round" stroke-width="2" d="M111 35h1.013"/><path stroke="url(#g)" stroke-linecap="round" stroke-width="2" d="M25 96h3.04"/><path stroke="url(#h)" stroke-linecap="round" stroke-width="2" d="M49 73h2"/><path stroke="url(#i)" stroke-linecap="round" stroke-width="2" d="M54 31h3"/><path stroke="url(#j)" stroke-linecap="round" stroke-width="2" d="M82 16h3.04"/><circle cx="134" cy="62" r="2.5" fill="#fff" stroke="url(#k)"/><circle cx="12" cy="101" r="3.5" fill="#fff" stroke="url(#l)"/><circle cx="58" cy="10" r="1.7" fill="#fff" stroke="url(#m)" stroke-width=".6"/><rect width="52" height="52" y="20" fill="#fff" rx="20"/><path fill="url(#n)" d="M39.913 51.073a5.44 5.44 0 0 0-1.59-3.837 5.428 5.428 0 0 0-3.833-1.592H15.51a2.715 2.715 0 0 1-2.711-2.715v-4.265a5.422 5.422 0 0 0 3.874-3.877h16.654a5.419 5.419 0 0 0 9.32 2.231 5.432 5.432 0 0 0-3.386-8.973 5.419 5.419 0 0 0-5.934 4.028H16.673a5.418 5.418 0 0 0-3.813-3.88A5.407 5.407 0 0 0 6.2 32.03a5.423 5.423 0 0 0 1.436 5.25 5.412 5.412 0 0 0 2.451 1.386v4.262a5.44 5.44 0 0 0 1.591 3.838 5.428 5.428 0 0 0 3.833 1.592H34.49a2.714 2.714 0 0 1 2.711 2.715v4.07h-4.067v4.072h-16.46a5.419 5.419 0 0 0-9.32-2.231 5.431 5.431 0 0 0 3.386 8.973 5.419 5.419 0 0 0 5.933-4.028h16.461V66H43.98V55.143h-4.067v-4.07Zm-1.356-20.357a2.71 2.71 0 0 1 2.505 1.675 2.717 2.717 0 0 1-1.976 3.7 2.709 2.709 0 0 1-2.783-1.153 2.716 2.716 0 0 1 2.254-4.222ZM8.732 33.43a2.716 2.716 0 0 1 1.674-2.508 2.708 2.708 0 0 1 3.696 1.978 2.717 2.717 0 0 1-1.153 2.787 2.71 2.71 0 0 1-4.217-2.257Zm2.711 29.856a2.71 2.71 0 0 1-2.505-1.676 2.717 2.717 0 0 1 1.976-3.7 2.71 2.71 0 0 1 3.24 2.662 2.715 2.715 0 0 1-2.71 2.714Zm29.825-5.429v5.429h-5.422v-5.429h5.422Z"/><defs><linearGradient id="a" x1="76.527" x2="76.527" y1="1" y2="115.228" gradientUnits="userSpaceOnUse"><stop stop-color="#5A92EB"/><stop offset=".245" stop-color="#5892EE"/><stop offset=".505" stop-color="#DE7AF6"/><stop offset=".745" stop-color="#FF5DB5"/><stop offset="1" stop-color="#FF008A"/></linearGradient><linearGradient id="b" x1="51.545" x2="102.861" y1="72.667" y2="72.667" gradientUnits="userSpaceOnUse"><stop stop-color="#0287DF"/><stop offset="1" stop-color="#FE37A3"/></linearGradient><linearGradient id="c" x1="125.025" x2="130.03" y1="98.774" y2="98.774" gradientUnits="userSpaceOnUse"><stop stop-color="#5A92EB"/><stop offset="1" stop-color="#FE37A3"/></linearGradient><linearGradient id="d" x1="106.012" x2="108.549" y1="78.774" y2="78.774" gradientUnits="userSpaceOnUse"><stop stop-color="#5A92EB"/><stop offset="1" stop-color="#FE37A3"/></linearGradient><linearGradient id="e" x1="119.012" x2="121.549" y1="59.774" y2="59.774" gradientUnits="userSpaceOnUse"><stop stop-color="#5A92EB"/><stop offset="1" stop-color="#FE37A3"/></linearGradient><linearGradient id="f" x1="111.005" x2="112.02" y1="35.774" y2="35.774" gradientUnits="userSpaceOnUse"><stop stop-color="#5A92EB"/><stop offset="1" stop-color="#FE37A3"/></linearGradient><linearGradient id="g" x1="25.015" x2="28.059" y1="96.774" y2="96.774" gradientUnits="userSpaceOnUse"><stop stop-color="#5A92EB"/><stop offset="1" stop-color="#FE37A3"/></linearGradient><linearGradient id="h" x1="49.01" x2="51.012" y1="73.774" y2="73.774" gradientUnits="userSpaceOnUse"><stop stop-color="#5A92EB"/><stop offset="1" stop-color="#FE37A3"/></linearGradient><linearGradient id="i" x1="54.015" x2="57.018" y1="31.774" y2="31.774" gradientUnits="userSpaceOnUse"><stop stop-color="#5A92EB"/><stop offset="1" stop-color="#FE37A3"/></linearGradient><linearGradient id="j" x1="82.015" x2="85.059" y1="16.774" y2="16.774" gradientUnits="userSpaceOnUse"><stop stop-color="#5A92EB"/><stop offset="1" stop-color="#FE37A3"/></linearGradient><linearGradient id="k" x1="131.03" x2="137.036" y1="63.642" y2="63.642" gradientUnits="userSpaceOnUse"><stop stop-color="#5A92EB"/><stop offset="1" stop-color="#FE37A3"/></linearGradient><linearGradient id="l" x1="8.039" x2="16.048" y1="103.189" y2="103.189" gradientUnits="userSpaceOnUse"><stop stop-color="#5A92EB"/><stop offset="1" stop-color="#FE37A3"/></linearGradient><linearGradient id="m" x1="56.02" x2="60.024" y1="11.094" y2="11.094" gradientUnits="userSpaceOnUse"><stop stop-color="#5A92EB"/><stop offset="1" stop-color="#FE37A3"/></linearGradient><linearGradient id="n" x1="6.187" x2="44.226" y1="57.396" y2="57.396" gradientUnits="userSpaceOnUse"><stop stop-color="#5A92EB"/><stop offset="1" stop-color="#FE37A3"/></linearGradient></defs></svg>