<svg xmlns="http://www.w3.org/2000/svg" width="142" height="134" fill="none"><path stroke="url(#a)" stroke-width="2" d="M119.578 115.228C174.307 115.228 110.929 1 76.505 1s-101.856 114.228-43.58 114.228"/><rect width="52" height="52" y="22" fill="#fff" rx="20"/><path stroke="url(#b)" stroke-width="2" d="M22.317 64.633c10.668 0 19.316-8.648 19.316-19.316C41.633 34.648 32.985 26 22.317 26 11.648 26 3 34.648 3 45.317c0 10.668 8.648 19.316 19.317 19.316Z"/><path stroke="url(#c)" stroke-linecap="round" stroke-width="2" d="M22.317 53.45a6.1 6.1 0 0 1-6.1-6.1v-4.067m6.1 10.167a6.1 6.1 0 0 0 6.1-6.1v-4.067m-6.1 10.167V43.283m-6.1 0a6.1 6.1 0 0 1 12.2 0m-12.2 0h12.2m.146 2.034h2.904m-18.3 0h3.05m12.2 5.083 2.033 1.017M16.217 50.4l-2.034 1.017m14.234-11.184 2.033-1.016m-14.233 1.016-2.034-1.016M37.41 60.88l6.257 5.787"/><path fill="url(#d)" d="M76.594 30.452c11.688.286 21.215 8.99 22.349 22.828.037 0 .074.003.112.011 1.234.251 2.846 4.827 1.983 9.086l-.088.396c-.958 4.056-3.738 7.006-4.934 6.763l-.11-.033c-.198-.082-.33-.268-.406-.544-1.822 3.292-4.182 6.227-6.675 8.65.01.048.018.098.023.149l.867 8.327c2.493-1.153 5.38-.873 8.178.225 3.602 1.413 7.357 4.266 10.734 7.796 3.393 3.545 6.488 7.862 8.743 12.318 2.246 4.439 3.708 9.12 3.709 13.373-.001 2.739-1.893 4.871-4.42 6.473-2.564 1.624-6.126 2.937-10.253 3.977-8.28 2.086-19.24 3.171-30.146 3.235-10.903.063-21.869-.892-30.156-2.948-4.132-1.025-7.702-2.348-10.274-4.025-2.557-1.667-4.405-3.881-4.405-6.712 0-8.922 5.732-19.115 12.464-25.99 3.384-3.455 7.143-6.201 10.746-7.542 2.829-1.053 5.733-1.285 8.23-.115l1.213-7.918c-2.86-2.599-5.6-5.853-7.647-9.544-.059.453-.218.732-.52.785-1.242.215-4.404-3.46-5.146-7.74l-.062-.4c-.582-4.128.936-7.89 2.138-8.1l.115-.01c.034.001.069.005.102.013 1.17-14.046 10.995-22.79 22.94-22.79l.596.006Zm-22.49 59.313c-2.11 1.044-4.337 2.635-6.516 4.636.444.776 1.079 1.587 1.887 2.564 1.05 1.27 2.348 2.773 3.523 4.63 2.356 3.726 4.18 8.802 3.506 16.835 1.634 2.62 4.24 3.946 6.97 5.61 1.362.831 2.788 1.78 3.858 3.064a7.536 7.536 0 0 1 1.61 3.26c2.41.091 4.853.132 7.3.118a169.58 169.58 0 0 0 7.341-.205 7.546 7.546 0 0 1 1.591-3.173c1.07-1.284 2.496-2.233 3.859-3.064 2.73-1.664 5.334-2.99 6.968-5.61-.675-8.019 1.056-13.087 3.322-16.813 1.13-1.859 2.383-3.361 3.405-4.635.803-1 1.435-1.829 1.877-2.627-2.109-1.952-4.255-3.514-6.29-4.559a59.428 59.428 0 0 1-6.243 5.938c-4.001 3.27-9.4 6.691-14.864 7.015v17.811l-.004.102a1.002 1.002 0 0 1-1.99 0l-.005-.102v-17.834c-5.355-.444-10.733-3.838-14.75-7.063a62.724 62.724 0 0 1-6.355-5.898Zm-8.701 6.799c-6.146 6.542-10.977 15.658-10.978 23.233 0 1.357.861 2.777 3.043 4.199 2.167 1.413 5.366 2.636 9.358 3.626.481.12.972.235 1.473.347-.214-3.348-.279-6.459-.867-9.293-.653-3.147-1.923-5.742-4.674-7.579a1.001 1.001 0 0 1 1.112-1.663c3.329 2.224 4.802 5.372 5.521 8.836.65 3.135.709 6.71.943 10.122 4.61.896 9.885 1.502 15.427 1.822a4.685 4.685 0 0 0-.734-1.19c-.727-.873-1.776-1.605-3.116-2.422-2.55-1.555-6.16-3.358-8.25-7.087l-.23-.408.045-.467c.73-7.671-.972-12.212-3.015-15.442-1.048-1.658-2.199-2.993-3.297-4.32-.613-.742-1.23-1.507-1.761-2.314Zm61.388-.032c-.522.811-1.124 1.581-1.723 2.328-1.064 1.325-2.174 2.66-3.182 4.316-1.964 3.229-3.587 7.778-2.856 15.464l.044.467-.23.408c-2.09 3.729-5.7 5.532-8.25 7.087-1.34.817-2.388 1.549-3.115 2.422-.27.323-.5.672-.68 1.063 5.627-.39 10.98-1.064 15.639-2.016.222-3.349.292-6.843.93-9.916.718-3.463 2.191-6.612 5.52-8.836a1.002 1.002 0 0 1 1.112 1.665c-2.75 1.837-4.021 4.431-4.674 7.578-.575 2.77-.65 5.804-.854 9.065.407-.094.807-.19 1.2-.289 3.996-1.007 7.205-2.225 9.38-3.603 2.211-1.4 3.026-2.743 3.027-3.938-.001-3.616-1.262-7.82-3.386-12.019-2.043-4.037-4.837-7.973-7.902-11.246Zm-10.415-7.585c-2.839-1.011-5.08-.749-6.694.733-4.665 4.284-8.95 6.618-13.442 6.582-4.478-.036-8.751-2.427-13.4-6.567-1.633-1.453-3.908-1.725-6.762-.757.166.172.344.36.537.554a60.743 60.743 0 0 0 5.096 4.612c4.23 3.395 9.586 6.623 14.551 6.671l.473-.005c4.895-.149 10.019-3.273 14.071-6.584a57.423 57.423 0 0 0 5.023-4.655c.197-.205.377-.402.547-.584Zm-17.57-4.675c-.966.323-1.845.496-2.597.496l-.317-.01c-.652-.038-1.39-.194-2.193-.453v8.602c.874.232 1.726.348 2.565.355.831.007 1.675-.094 2.542-.31v-8.68Zm7.264-4.234c-1.484 1.185-2.963 2.175-4.36 2.938.061.162.096.338.096.522v8.28c1.586-.832 3.27-2.032 5.107-3.645l-.843-8.095ZM65.6 88.12c1.832 1.565 3.515 2.75 5.099 3.585v-8.207c0-.16.025-.316.072-.46a30.49 30.49 0 0 1-4-2.574l-1.172 7.656ZM87 47.081c-5.438-2.512-12.069-4.04-17.841-1.016l-.556.307c-5.002 2.907-8.462 4.04-10.725 4.428-.58.1-1.082.148-1.511.167a30.013 30.013 0 0 0-.425 5.116c0 6.8 3.641 13.266 8.328 18.154 2.32 2.42 4.808 4.356 7.043 5.67 2.336 1.371 4.052 1.86 4.895 1.86.837 0 2.521-.483 4.812-1.85 2.192-1.308 4.627-3.24 6.895-5.657 4.579-4.879 8.141-11.351 8.141-18.177 0-1.23-.07-2.417-.203-3.56a43.743 43.743 0 0 0-1.959-1.449c-1.71-1.194-4.112-2.708-6.894-3.993Zm-7.49 25.814a1 1 0 0 1 .581 1.914l-3.338 1.014-.274.084-.277-.075-3.757-1.014-.098-.033a1 1 0 0 1 .52-1.92l.1.02 3.479.942 3.063-.932Zm19.674-14.56c-.188 1.044-.388 2.21-.656 3.531-.26 1.284-.508 2.434-.705 3.437a11.32 11.32 0 0 0 1.255-3.325c.247-1.22.25-2.493.106-3.644Zm-46.488-.5a11.324 11.324 0 0 0 .039 3.555c.212 1.226.67 2.413 1.224 3.432-.204-1.041-.441-2.2-.671-3.528-.224-1.291-.411-2.453-.592-3.459Zm36.587-5.293c.083-.005.27-.008.484.076.258.102.492.307.6.592.091.238.06.44.038.53-.041.175-.127.296-.145.322-.75 1.077-.836 2.018-.763 2.664.037.33.117.593.184.767.034.087.065.15.083.188l.017.033a.903.903 0 0 1-.318 1.252.994.994 0 0 1-.587.192h-24.83a.995.995 0 0 1-.59-.195.902.902 0 0 1-.314-1.25 2.219 2.219 0 0 0 .099-.22c.067-.174.147-.437.184-.766.073-.646-.013-1.586-.762-2.664a.906.906 0 0 1-.11-.849c.106-.28.333-.485.588-.59a1.143 1.143 0 0 1 .884.01c.114.048.234.12.31.167.184.112.447.288.75.494.614.418 1.454 1.009 2.294 1.608a461.557 461.557 0 0 1 3.108 2.233l.031.022h11.945l.744-.543c.64-.465 1.49-1.083 2.333-1.688.84-.605 1.68-1.201 2.293-1.623.304-.209.567-.385.75-.5.076-.046.195-.117.307-.166a1.22 1.22 0 0 1 .393-.096ZM65.515 56.04c.015.294.004.572-.025.827-.012.101-.028.199-.044.292h1.639c-.326-.233-.664-.477-1.001-.717l-.569-.402Zm21.328.422c-.324.233-.649.47-.964.697h1.598a5.018 5.018 0 0 1-.044-.29 5.14 5.14 0 0 1-.026-.81l-.564.403ZM76 33.445c-8.923 0-16.676 5.636-19.196 15.485.223-.023.468-.056.738-.102 1.964-.337 5.197-1.361 10.057-4.185l.317-.181c6.691-3.694 14.227-1.828 19.924.804 2.92 1.348 5.426 2.928 7.2 4.169.115.08.225.16.334.236-2.314-10.306-10.23-16.226-19.374-16.226Z"/><path fill="url(#e)" fill-rule="evenodd" d="M73.984 12.314c-.41-.939-1.447-1.414-2.435-1.173l-3.14-7.212a.249.249 0 0 0-.329-.124.248.248 0 0 0-.133.325l3.128 7.185c-1.006.507-1.463 1.693-1.02 2.71.458 1.053 1.71 1.524 2.795 1.052 1.085-.473 1.592-1.71 1.134-2.763Zm-.463.201c.351.806-.037 1.752-.867 2.113s-1.786 0-2.137-.805c-.35-.806.037-1.752.867-2.113.83-.36 1.787 0 2.137.805Z" clip-rule="evenodd"/><path stroke="url(#f)" stroke-linecap="round" stroke-width="2" d="M27 82h8.615"/><path stroke="url(#g)" stroke-linecap="round" stroke-width="2" d="M115 51h2.534"/><path stroke="url(#h)" stroke-linecap="round" stroke-width="2" d="M93 22h1.013"/><path stroke="url(#i)" stroke-linecap="round" stroke-width="2" d="M51.674 22.83h3.04"/><path stroke="url(#j)" stroke-linecap="round" stroke-width="2" d="M105 77h4.561"/><path stroke="url(#k)" stroke-linecap="round" stroke-width="2" d="M125.659 99.49h3.041"/><circle cx="11" cy="99" r="3.5" fill="#fff" stroke="url(#l)"/><circle cx="136" cy="70" r="1.75" fill="#fff" stroke="url(#m)" stroke-width=".5"/><defs><linearGradient id="a" x1="75.527" x2="75.527" y1="1" y2="115.228" gradientUnits="userSpaceOnUse"><stop stop-color="#5A92EB"/><stop offset=".245" stop-color="#5892EE"/><stop offset=".505" stop-color="#DE7AF6"/><stop offset=".745" stop-color="#FF5DB5"/><stop offset="1" stop-color="#FF008A"/></linearGradient><linearGradient id="b" x1="3.19" x2="41.864" y1="55.886" y2="55.886" gradientUnits="userSpaceOnUse"><stop stop-color="#5A92EB"/><stop offset="1" stop-color="#FE37A3"/></linearGradient><linearGradient id="c" x1="13.317" x2="43.849" y1="59.991" y2="59.991" gradientUnits="userSpaceOnUse"><stop stop-color="#5A92EB"/><stop offset="1" stop-color="#FE37A3"/></linearGradient><linearGradient id="d" x1="50.545" x2="101.861" y1="72.667" y2="72.667" gradientUnits="userSpaceOnUse"><stop stop-color="#0287DF"/><stop offset="1" stop-color="#FE37A3"/></linearGradient><linearGradient id="e" x1="71.751" x2="66.861" y1="15.489" y2="4.256" gradientUnits="userSpaceOnUse"><stop stop-color="#5A92EB"/><stop offset="1" stop-color="#FE37A3"/></linearGradient><linearGradient id="f" x1="27.042" x2="35.666" y1="82.774" y2="82.774" gradientUnits="userSpaceOnUse"><stop stop-color="#5A92EB"/><stop offset="1" stop-color="#FE37A3"/></linearGradient><linearGradient id="g" x1="115.012" x2="117.549" y1="51.774" y2="51.774" gradientUnits="userSpaceOnUse"><stop stop-color="#5A92EB"/><stop offset="1" stop-color="#FE37A3"/></linearGradient><linearGradient id="h" x1="93.005" x2="94.019" y1="22.774" y2="22.774" gradientUnits="userSpaceOnUse"><stop stop-color="#5A92EB"/><stop offset="1" stop-color="#FE37A3"/></linearGradient><linearGradient id="i" x1="51.689" x2="54.733" y1="23.604" y2="23.604" gradientUnits="userSpaceOnUse"><stop stop-color="#5A92EB"/><stop offset="1" stop-color="#FE37A3"/></linearGradient><linearGradient id="j" x1="105.022" x2="109.588" y1="77.774" y2="77.774" gradientUnits="userSpaceOnUse"><stop stop-color="#5A92EB"/><stop offset="1" stop-color="#FE37A3"/></linearGradient><linearGradient id="k" x1="125.674" x2="128.718" y1="100.264" y2="100.264" gradientUnits="userSpaceOnUse"><stop stop-color="#5A92EB"/><stop offset="1" stop-color="#FE37A3"/></linearGradient><linearGradient id="l" x1="7.039" x2="15.048" y1="101.189" y2="101.189" gradientUnits="userSpaceOnUse"><stop stop-color="#5A92EB"/><stop offset="1" stop-color="#FE37A3"/></linearGradient><linearGradient id="m" x1="134.02" x2="138.024" y1="71.094" y2="71.094" gradientUnits="userSpaceOnUse"><stop stop-color="#5A92EB"/><stop offset="1" stop-color="#FE37A3"/></linearGradient></defs></svg>