<svg xmlns="http://www.w3.org/2000/svg" width="40" height="40" fill="none"><path fill="url(#a)" d="M20 13.333c-1.833 0-3.403.653-4.708 1.959-1.306 1.305-1.959 2.875-1.959 4.708 0 1.25.313 2.403.939 3.458a6.448 6.448 0 0 0 2.603 2.459c.444.222.757.548.938.978.181.43.174.868-.021 1.313-.195.39-.487.68-.875.875a1.24 1.24 0 0 1-1.167 0 9.917 9.917 0 0 1-4.187-3.708A9.838 9.838 0 0 1 10 20c0-2.778.972-5.139 2.917-7.083C14.86 10.972 17.222 10 20 10c1.972 0 3.785.521 5.438 1.563 1.654 1.042 2.883 2.466 3.687 4.27.167.39.16.778-.02 1.167s-.465.667-.855.833a1.596 1.596 0 0 1-1.333 0 1.975 1.975 0 0 1-1-.958 6.436 6.436 0 0 0-2.459-2.603A6.682 6.682 0 0 0 20 13.333Zm0-6.666c-3.722 0-6.875 1.291-9.458 3.875C7.958 13.125 6.667 16.278 6.667 20c0 3.5 1.152 6.5 3.458 9s5.194 3.917 8.667 4.25c.472.056.881.264 1.228.625s.507.778.48 1.25c-.027.472-.2.861-.522 1.167-.32.305-.716.444-1.186.416-2.167-.139-4.188-.68-6.064-1.625a17.155 17.155 0 0 1-4.916-3.688 16.957 16.957 0 0 1-3.292-5.208A16.314 16.314 0 0 1 3.333 20c0-2.306.438-4.472 1.314-6.5.875-2.028 2.062-3.792 3.561-5.292 1.5-1.5 3.263-2.687 5.292-3.561 2.029-.875 4.195-1.313 6.5-1.314 4.361 0 8.16 1.486 11.397 4.459 3.236 2.972 5.007 6.639 5.311 11 .056.444-.076.826-.395 1.146-.319.32-.715.494-1.188.52-.473.027-.897-.126-1.27-.458a1.88 1.88 0 0 1-.647-1.208c-.416-3.334-1.867-6.188-4.353-8.562C26.369 7.856 23.418 6.668 20 6.667Zm12.583 29.166-5.5-5.458-1.25 3.792c-.139.389-.402.576-.791.563-.39-.013-.653-.215-.792-.605L20.458 21.5c-.11-.306-.041-.583.209-.833s.527-.32.833-.209l12.625 3.792c.389.139.59.403.605.792.014.388-.173.652-.563.791l-3.792 1.25 5.5 5.5c.472.473.708 1.014.708 1.625s-.236 1.153-.708 1.625c-.472.473-1.02.709-1.645.709-.624 0-1.173-.236-1.647-.709Z"/><defs><linearGradient id="a" x1="20.027" x2="20.027" y1="36.712" y2="3.333" gradientUnits="userSpaceOnUse"><stop stop-color="#5D97EC"/><stop offset=".591" stop-color="#0287DF"/><stop offset="1" stop-color="#045E99"/></linearGradient></defs></svg>