<svg xmlns="http://www.w3.org/2000/svg" width="24" height="24" fill="none"><path fill="#5F6A76" d="M17.4 22A15.42 15.42 0 0 1 2 6.6 4.6 4.6 0 0 1 6.6 2c.258-.002.516.022.77.07.245.038.486.098.72.18a1 1 0 0 1 .65.75l1.37 6a1 1 0 0 1-.26.92c-.13.14-.14.15-1.37.79a9.9 9.9 0 0 0 4.87 4.89c.65-1.24.66-1.25.8-1.38a1 1 0 0 1 .92-.26l6 1.37a1 1 0 0 1 .72.65 4.295 4.295 0 0 1 .25 1.49A4.6 4.6 0 0 1 17.4 22ZM6.6 4A2.61 2.61 0 0 0 4 6.6 13.41 13.41 0 0 0 17.4 20a2.61 2.61 0 0 0 2.6-2.6v-.33L15.36 16l-.29.55c-.45.87-.78 1.5-1.62 1.16a11.852 11.852 0 0 1-7.18-7.21c-.36-.78.32-1.14 1.18-1.59L8 8.64 6.93 4H6.6Z"/></svg>