<svg xmlns="http://www.w3.org/2000/svg" width="64" height="64" fill="none"><path fill="url(#a)" d="M3.969 1.094C2.536 1.462 1.052 2.71.42 4.077c-.736 1.603-.487 3.837.591 5.243 1.117 1.472 2.418 2.103 4.297 2.103 1.025-.013 1.301-.066 2.01-.395l.829-.367 1.656 1.655 1.655 1.643-.643.775C7.95 18.072 6.032 21.818 4.98 26.075c-.197.828-.447 2.077-.539 2.76-.223 1.603-.223 5.756 0 7.36a27.526 27.526 0 0 0 6.373 14.1l.645.775-1.656 1.643-1.656 1.656-.828-.381c-.723-.329-.986-.381-2.076-.381-1.13 0-1.328.039-2.116.407-2.142 1.012-3.26 2.904-3.102 5.19.132 1.88 1.236 3.51 2.97 4.364.815.394.947.42 2.248.407 1.195 0 1.471-.04 2.128-.342 2.629-1.209 3.825-4.336 2.655-6.938l-.355-.802 1.656-1.656 1.643-1.655.775.643c3.338 2.865 7.083 4.784 11.341 5.835 2.274.552 3.759.71 6.44.71 2.68 0 4.165-.158 6.439-.71 4.284-1.051 7.977-2.957 11.34-5.835l.776-.643 1.643 1.655 1.655 1.656-.38.828c-.33.723-.382.986-.382 2.09 0 1.182.027 1.3.486 2.247.592 1.196 1.354 1.931 2.576 2.51.802.38.999.42 2.142.42 1.183 0 1.301-.026 2.247-.486 1.196-.591 1.932-1.354 2.51-2.576.382-.801.421-.998.421-2.142 0-1.182-.026-1.3-.486-2.247-.592-1.196-1.354-1.932-2.576-2.51-.802-.381-.999-.42-2.129-.42-1.09 0-1.353.052-2.076.38l-.828.382-1.656-1.656-1.656-1.643.644-.775c2.865-3.338 4.784-7.083 5.835-11.341.197-.828.447-2.076.539-2.76.223-1.603.223-5.756 0-7.359a27.526 27.526 0 0 0-6.374-14.1l-.644-.776 1.656-1.643 1.656-1.655.801.354c2.602 1.17 5.625.027 6.913-2.615.342-.71.368-.92.381-2.168 0-1.301-.026-1.433-.42-2.247-.855-1.735-2.484-2.839-4.363-2.97-2.287-.158-4.18.96-5.191 3.101-.368.789-.408.986-.408 2.116 0 1.09.053 1.353.381 2.076l.381.828-1.655 1.656-1.643 1.656-.775-.644A27.42 27.42 0 0 0 35.206 5.43c-1.603-.223-5.756-.223-7.36 0a27.526 27.526 0 0 0-14.1 6.374l-.775.644-1.643-1.656-1.656-1.656.355-.788c1.183-2.655-.131-5.967-2.786-6.992-.815-.315-2.536-.446-3.272-.262Zm2.247 2.142c1.13.341 2.182 1.787 2.182 2.996 0 1.63-1.525 3.154-3.154 3.154-.828 0-1.499-.302-2.169-.986-1.34-1.327-1.34-3.01 0-4.336.92-.933 1.906-1.183 3.141-.828Zm52.566 0c1.13.341 2.181 1.787 2.181 2.996 0 1.63-1.524 3.154-3.154 3.154-.828 0-1.498-.302-2.168-.986-1.34-1.327-1.34-3.01 0-4.336.92-.933 1.905-1.183 3.14-.828ZM35.535 7.612c2.825.5 4.652 1.09 7.227 2.378 1.945.96 3.627 2.063 5.086 3.312l.736.644-.973.972c-.538.526-.972 1-.972 1.039 0 .118 1.301 1.445 1.42 1.445.052 0 .538-.434 1.064-.972l.972-.973.67.789c1.893 2.234 3.811 5.585 4.652 8.187 1.761 5.348 1.761 10.828 0 16.15-.854 2.629-2.76 5.967-4.652 8.2l-.67.79-.972-.973c-.526-.54-1.025-.973-1.091-.973-.184 0-1.393 1.21-1.393 1.38 0 .079.434.578.972 1.104l.973.972-.736.644c-2.076 1.775-5.585 3.798-8.042 4.626-3.01.999-4.968 1.314-8.28 1.314-2.773 0-3.955-.131-6.176-.71-3.627-.932-7.36-2.838-10.014-5.124l-.867-.75.972-.972c.54-.526.973-1.025.973-1.09 0-.185-1.21-1.394-1.38-1.394-.079 0-.578.434-1.104.973l-.972.972-.644-.736c-1.774-2.063-3.824-5.624-4.626-8.042-1.012-3.05-1.314-4.98-1.314-8.28 0-2.799.131-3.942.723-6.242.906-3.56 2.956-7.503 5.217-10.079l.644-.736.972.973c.526.538 1.012.972 1.065.972.118 0 1.419-1.327 1.419-1.446 0-.039-.434-.512-.973-1.038l-.972-.972.788-.67c3.811-3.246 8.555-5.283 13.589-5.861 1.458-.158 5.282-.053 6.689.197ZM6.216 55.802c1.13.34 2.182 1.786 2.182 2.995 0 1.63-1.525 3.154-3.154 3.154-.828 0-1.499-.302-2.169-.985-1.34-1.328-1.34-3.01 0-4.337.92-.933 1.906-1.183 3.141-.828Zm52.566 0c1.13.34 2.181 1.786 2.181 2.995 0 1.63-1.524 3.154-3.154 3.154s-3.154-1.524-3.154-3.154c0-.828.303-1.498.986-2.168.92-.933 1.905-1.183 3.14-.828Z"/><path fill="url(#b)" d="M27.702 13.84c-.263.211-.341.526-.63 2.498l-.342 2.26-.789.328c-.433.171-.828.316-.867.316-.04 0-.867-.591-1.827-1.314-1.327-.999-1.853-1.314-2.155-1.314-.342 0-.749.354-2.93 2.536-2.182 2.181-2.537 2.589-2.537 2.93 0 .303.316.828 1.314 2.156.723.959 1.315 1.787 1.315 1.826 0 .04-.145.434-.316.867l-.328.789-2.26.342c-1.972.289-2.287.368-2.498.63-.236.276-.25.592-.25 3.825 0 3.232.014 3.548.25 3.824.21.263.526.342 2.497.63l2.26.342.33.789c.17.433.315.828.315.867 0 .04-.592.867-1.315 1.827-.998 1.327-1.314 1.853-1.314 2.155 0 .342.355.749 2.537 2.93 2.181 2.182 2.588 2.537 2.93 2.537.302 0 .828-.316 2.155-1.314.96-.723 1.788-1.315 1.827-1.315.04 0 .434.145.867.316l.789.328.341 2.26c.29 1.972.368 2.287.631 2.497.276.237.592.25 3.824.25 3.233 0 3.549-.013 3.824-.25.263-.21.342-.525.631-2.496l.342-2.26.788-.33c.434-.17.828-.315.868-.315.04 0 .867.592 1.827 1.315 1.327.998 1.852 1.314 2.155 1.314.341 0 .749-.355 2.93-2.537 2.182-2.181 2.537-2.588 2.537-2.93 0-.302-.316-.828-1.315-2.155-.722-.96-1.314-1.787-1.314-1.827 0-.04.145-.434.316-.867l.328-.789 2.26-.341c1.972-.29 2.287-.368 2.497-.631.237-.276.25-.592.25-3.824 0-3.233-.013-3.549-.25-3.825-.21-.262-.525-.341-2.497-.63l-2.26-.342-.328-.788c-.171-.434-.316-.828-.316-.868 0-.04.592-.867 1.314-1.826 1-1.328 1.315-1.853 1.315-2.156 0-.341-.355-.749-2.537-2.93-2.181-2.182-2.589-2.536-2.93-2.536-.303 0-.828.315-2.155 1.314-.96.723-1.788 1.314-1.827 1.314-.04 0-.434-.145-.867-.316l-.789-.328-.342-2.26c-.289-1.972-.368-2.287-.63-2.497-.276-.237-.592-.25-3.825-.25-3.232 0-3.548.013-3.824.25Zm6.058 1.88c.053.762.67 4.231.789 4.376.079.092.368.25.63.342.264.079 1.039.38 1.71.67 1.037.447 1.274.512 1.537.394.184-.079.998-.657 1.813-1.275.828-.617 1.55-1.117 1.617-1.117.236 0 3.114 2.997 3.035 3.18-.04.093-.578.855-1.196 1.683-.63.828-1.17 1.63-1.209 1.787-.04.17.092.63.316 1.117.21.46.525 1.222.683 1.669.17.473.434.907.578 1.012.158.092 1.052.263 1.985.394.946.118 1.84.25 2.01.29.29.065.29.091.29 2.286 0 1.222-.014 2.22-.027 2.22-.762.053-4.231.67-4.376.79-.092.078-.25.367-.342.63-.078.263-.38 1.038-.67 1.708-.447 1.038-.512 1.275-.394 1.538.079.184.657.999 1.275 1.813.617.828 1.117 1.551 1.117 1.617 0 .236-2.997 3.114-3.18 3.035-.093-.039-.855-.578-1.683-1.195-.828-.631-1.63-1.17-1.787-1.21-.17-.039-.67.106-1.248.382-.54.25-1.288.552-1.67.67-.394.131-.775.355-.867.512-.092.158-.276 1.052-.407 1.998-.118.933-.25 1.84-.29 1.997-.065.303-.091.303-2.286.303-1.222 0-2.22-.014-2.22-.04-.053-.723-.67-4.218-.776-4.35-.079-.092-.512-.315-.973-.473a33.982 33.982 0 0 1-1.655-.683c-.486-.224-.96-.355-1.117-.315-.158.039-.96.578-1.787 1.209-.828.617-1.59 1.156-1.683 1.195-.184.08-3.18-2.799-3.18-3.035 0-.066.5-.789 1.117-1.617.618-.814 1.196-1.63 1.275-1.813.118-.263.053-.5-.394-1.538-.29-.67-.592-1.445-.67-1.708-.092-.263-.25-.552-.342-.63-.145-.12-3.614-.737-4.363-.79-.026 0-.04-1.011-.04-2.233 0-1.236.014-2.234.04-2.234.749-.053 4.218-.67 4.363-.789.092-.079.25-.368.341-.63.08-.263.381-1.039.67-1.71.448-1.037.513-1.274.395-1.537-.079-.184-.657-.998-1.275-1.813-.617-.828-1.117-1.55-1.117-1.616 0-.158 2.918-3.076 3.075-3.076.066 0 .789.5 1.617 1.117.814.618 1.63 1.196 1.8 1.275.276.118.512.053 1.55-.38.67-.29 1.446-.605 1.71-.684.262-.092.551-.25.63-.342.118-.145.736-3.614.788-4.376 0-.013 1.012-.026 2.234-.026 1.236 0 2.234.013 2.234.026Z"/><path fill="url(#c)" d="M30.475 18.848v1.05H32.578V17.797H30.476v1.052Z"/><path fill="url(#d)" d="m21.105 22.107-.749.762.762.749.763.749.749-.762.749-.762-.763-.75-.762-.749-.749.763Z"/><path fill="url(#e)" d="m40.423 22.107-.749.762.762.749.763.749.748-.762.75-.762-.763-.75-.762-.749-.749.763Z"/><path fill="url(#f)" d="M29.686 24.301c-2.312.5-4.612 2.3-5.637 4.429-1.235 2.55-1.235 5.02 0 7.57 1.327 2.759 4.35 4.625 7.477 4.625 3.115 0 6.058-1.827 7.464-4.6 1.301-2.601 1.236-5.558-.197-8.016-1.826-3.127-5.532-4.77-9.107-4.008Zm3.352 2.103c3.127.815 5.164 3.824 4.704 6.978a6.286 6.286 0 0 1-5.375 5.348c-4.323.631-8.042-3.495-6.951-7.7.88-3.39 4.323-5.48 7.622-4.626Z"/><path fill="url(#g)" d="M16.808 32.515v1.05H18.911V31.464H16.809v1.052Z"/><path fill="url(#h)" d="M44.142 32.515v1.05H46.245V31.464H44.142v1.052Z"/><path fill="url(#i)" d="m21.105 41.425-.749.762.762.749.763.749.749-.762.749-.763-.763-.749-.762-.749-.749.763Z"/><path fill="url(#j)" d="m40.423 41.425-.749.762.762.749.763.749.748-.762.75-.763-.763-.749-.762-.749-.749.763Z"/><path fill="url(#k)" d="M30.475 46.182v1.05H32.578V45.13H30.476v1.052Z"/><defs><linearGradient id="a" x1="31.5" x2="31.5" y1="1" y2="63.988" gradientUnits="userSpaceOnUse"><stop stop-color="#5D97EC"/><stop offset=".591" stop-color="#0287DF"/><stop offset="1" stop-color="#045E99"/></linearGradient><linearGradient id="b" x1="31.526" x2="31.526" y1="13.591" y2="51.438" gradientUnits="userSpaceOnUse"><stop stop-color="#5D97EC"/><stop offset=".591" stop-color="#0287DF"/><stop offset="1" stop-color="#045E99"/></linearGradient><linearGradient id="c" x1="31.526" x2="31.526" y1="17.796" y2="19.899" gradientUnits="userSpaceOnUse"><stop stop-color="#5D97EC"/><stop offset=".591" stop-color="#0287DF"/><stop offset="1" stop-color="#045E99"/></linearGradient><linearGradient id="d" x1="21.867" x2="21.867" y1="21.344" y2="24.367" gradientUnits="userSpaceOnUse"><stop stop-color="#5D97EC"/><stop offset=".591" stop-color="#0287DF"/><stop offset="1" stop-color="#045E99"/></linearGradient><linearGradient id="e" x1="41.185" x2="41.185" y1="21.344" y2="24.367" gradientUnits="userSpaceOnUse"><stop stop-color="#5D97EC"/><stop offset=".591" stop-color="#0287DF"/><stop offset="1" stop-color="#045E99"/></linearGradient><linearGradient id="f" x1="31.521" x2="31.521" y1="24.116" y2="40.925" gradientUnits="userSpaceOnUse"><stop stop-color="#5D97EC"/><stop offset=".591" stop-color="#0287DF"/><stop offset="1" stop-color="#045E99"/></linearGradient><linearGradient id="g" x1="17.859" x2="17.859" y1="31.463" y2="33.566" gradientUnits="userSpaceOnUse"><stop stop-color="#5D97EC"/><stop offset=".591" stop-color="#0287DF"/><stop offset="1" stop-color="#045E99"/></linearGradient><linearGradient id="h" x1="45.194" x2="45.194" y1="31.463" y2="33.566" gradientUnits="userSpaceOnUse"><stop stop-color="#5D97EC"/><stop offset=".591" stop-color="#0287DF"/><stop offset="1" stop-color="#045E99"/></linearGradient><linearGradient id="i" x1="21.867" x2="21.867" y1="40.662" y2="43.685" gradientUnits="userSpaceOnUse"><stop stop-color="#5D97EC"/><stop offset=".591" stop-color="#0287DF"/><stop offset="1" stop-color="#045E99"/></linearGradient><linearGradient id="j" x1="41.185" x2="41.185" y1="40.662" y2="43.685" gradientUnits="userSpaceOnUse"><stop stop-color="#5D97EC"/><stop offset=".591" stop-color="#0287DF"/><stop offset="1" stop-color="#045E99"/></linearGradient><linearGradient id="k" x1="31.526" x2="31.526" y1="45.13" y2="47.233" gradientUnits="userSpaceOnUse"><stop stop-color="#5D97EC"/><stop offset=".591" stop-color="#0287DF"/><stop offset="1" stop-color="#045E99"/></linearGradient></defs></svg>